<?xml version="1.0" encoding="utf-8"?>
<!-- Generator: Adobe Illustrator 21.0.0, SVG Export Plug-In . SVG Version: 6.00 Build 0)  -->
<svg version="1.1" id="Calque_1" xmlns="http://www.w3.org/2000/svg" xmlns:xlink="http://www.w3.org/1999/xlink" x="0px" y="0px"
	 viewBox="0 0 69.4 58.4" style="enable-background:new 0 0 69.4 58.4;" xml:space="preserve">
<style type="text/css">
	.st0{fill:#FFFFFF;}
</style>
<g>
	<path class="st0" d="M60.7,35.3l6.2-19.1c0.2-0.5,0.1-1.1-0.2-1.5c-0.3-0.4-0.8-0.7-1.3-0.8l-46.8-3.1l-1.5-7.4
		C16.9,2.6,16.2,2,15.4,2H4.1c-1,0-1.8,0.8-1.8,1.7s0.8,1.8,1.8,1.8h9.8l6.2,29.7c0,0,0.1,0.5,0.2,0.7c0.8,4.2,2.3,7.2,4.6,9
		c-1.6,1.2-2.6,3-2.6,5.1c0,3.5,2.9,6.4,6.4,6.4c3.5,0,6.4-2.9,6.4-6.4c0-1-0.3-2-0.7-2.9h15C49,48,48.7,49,48.7,50
		c0,3.5,2.9,6.4,6.4,6.4c3.5,0,6.4-2.9,6.4-6.4c0-3.5-2.9-6.4-6.4-6.4c-0.2,0-0.4,0-0.7,0H31.8c-3,0-6.3-0.9-7.8-7.1h35.1
		C59.8,36.5,60.5,36,60.7,35.3z M28.7,53c-1.6,0-2.9-1.3-2.9-2.9c0-1.6,1.3-2.9,2.9-2.9c1.6,0,2.9,1.3,2.9,2.9
		C31.6,51.6,30.3,53,28.7,53z M55.1,53c-1.6,0-2.9-1.3-2.9-2.9c0-1.5,1.1-2.7,2.6-2.9h0.7c1.5,0.2,2.6,1.4,2.6,2.9
		C58.1,51.6,56.8,53,55.1,53z M61.3,22.2h-7.6l0.8-5.5l8.4,0.6L61.3,22.2z M23.2,33l-1.5-7.3h6.2l1,7.3H23.2z M31.4,25.7h7.3V33
		h-6.3L31.4,25.7z M31,22.2l-1-7.2l8.8,0.6v6.6H31z M42.3,25.7h7.4l-1,7.3h-6.4V25.7z M42.3,22.2v-6.3l8.7,0.6l-0.8,5.8H42.3z
		 M26.4,14.8l1,7.4H21l-1.6-7.9L26.4,14.8z M52.2,33l1-7.3h6.9L57.8,33H52.2z"/>
</g>
</svg>
