<?xml version="1.0" encoding="utf-8"?>
<!-- Generator: Adobe Illustrator 21.0.0, SVG Export Plug-In . SVG Version: 6.00 Build 0)  -->
<svg version="1.1" id="Layer_1" xmlns="http://www.w3.org/2000/svg" xmlns:xlink="http://www.w3.org/1999/xlink" x="0px" y="0px"
	 viewBox="0 0 12.8 7.3" style="enable-background:new 0 0 12.8 7.3;" xml:space="preserve">
<style type="text/css">
	.st0{fill:#FFFFFF;}
</style>
<g>
	<path class="st0" d="M6.4,0.8c1.6,0,3.3,1,5,2.9c-0.4,0.4-0.7,0.7-0.8,0.8c-0.1,0.1-0.4,0.3-0.8,0.7c-0.4,0.4-0.8,0.6-1,0.7
		C8.5,6,8.2,6.2,7.7,6.3C7.3,6.5,6.9,6.5,6.4,6.5c-0.5,0-1-0.1-1.5-0.2C4.5,6.2,4.1,6,3.6,5.6C3.2,5.3,2.8,5,2.6,4.8
		C2.3,4.6,1.9,4.2,1.4,3.7c1-1,1.8-1.7,2.6-2.2C4.8,1,5.6,0.8,6.4,0.8z M5,5.1c0.4,0.4,0.9,0.6,1.4,0.6c0.5,0,1-0.2,1.4-0.6
		c0.4-0.4,0.6-0.9,0.6-1.4c0-0.6-0.2-1-0.6-1.4C7.4,1.8,7,1.6,6.4,1.6c-0.6,0-1,0.2-1.4,0.6C4.6,2.6,4.4,3.1,4.4,3.7
		C4.4,4.2,4.6,4.7,5,5.1z M6.4,3c0,0.2,0.1,0.4,0.2,0.5c0.1,0.1,0.3,0.2,0.5,0.2c0.1,0,0.3-0.1,0.4-0.2v0.2c0,0.3-0.1,0.6-0.3,0.8
		C7,4.7,6.7,4.9,6.4,4.9c-0.3,0-0.6-0.1-0.8-0.3C5.4,4.3,5.3,4,5.3,3.7c0-0.3,0.1-0.6,0.3-0.8c0.2-0.2,0.5-0.3,0.8-0.3h0.2
		C6.5,2.6,6.4,2.8,6.4,3z"/>
</g>
</svg>
