<svg id="Layer_1" data-name="Layer 1" xmlns="http://www.w3.org/2000/svg" viewBox="0 0 54.34 56"><defs><style>.cls-1{fill:#03c3f4;}</style></defs><title>Artboard 2</title><path class="cls-1" d="M40.95,53c4.61,0,11.2-5.94,11.22-7.46v-3A1.63,1.63,0,0,0,51,41L39.18,37.21a1.63,1.63,0,0,0-1.65.4L33.13,42a1.62,1.62,0,0,1-1.95.27,49.68,49.68,0,0,1-10.24-8.06A49.68,49.68,0,0,1,12.88,24,1.62,1.62,0,0,1,13.15,22l4.4-4.4A1.63,1.63,0,0,0,18,16L14.2,4.14A1.63,1.63,0,0,0,12.64,3h-3C8.11,3,2.17,9.61,2.17,14.22c0,2.81,1,13,13.39,25.38S38.13,53,40.95,53Z"/></svg>