<svg xmlns="http://www.w3.org/2000/svg" xmlns:xlink="http://www.w3.org/1999/xlink" viewBox="0 0 420.52 376.16"><defs><style>.cls-1{fill:#141414;}.cls-2{fill:#121212;}.cls-3{fill:url(#linear-gradient);}.cls-4{fill:url(#linear-gradient-2);}.cls-5{fill:url(#linear-gradient-3);}.cls-6{fill:url(#linear-gradient-4);}.cls-7{fill:url(#linear-gradient-5);}.cls-8{fill:url(#linear-gradient-6);}.cls-10,.cls-11,.cls-12,.cls-13,.cls-14,.cls-15,.cls-16,.cls-17,.cls-23,.cls-24,.cls-9{fill:#ff3657;}.cls-9{opacity:0.1;}.cls-10{opacity:0.14;}.cls-11{opacity:0.18;}.cls-12{opacity:0.21;}.cls-13{opacity:0.25;}.cls-14{opacity:0.29;}.cls-15{opacity:0.33;}.cls-16{opacity:0.36;}.cls-17,.cls-19{opacity:0.4;}.cls-18{fill:#ff3c26;}.cls-18,.cls-27{opacity:0.5;}.cls-19,.cls-20{fill:#ffa850;}.cls-20,.cls-21{opacity:0.7;}.cls-21{fill:#ffa759;}.cls-22{fill:#faffe7;}.cls-23{opacity:0.03;}.cls-24{opacity:0.07;}.cls-25{opacity:0.6;}.cls-26{opacity:0.3;}.cls-28{fill:#fff;}.cls-29{fill:#232323;}</style><linearGradient id="linear-gradient" x1="-3281.37" y1="-7725.75" x2="-3281.37" y2="-7750.71" gradientTransform="matrix(-0.95, 0, 0, 0.95, -2757.71, 7587.39)" gradientUnits="userSpaceOnUse"><stop offset="0" stop-color="#141414"/><stop offset="0.34" stop-color="#111"/><stop offset="0.55" stop-color="#090909"/><stop offset="0.67"/><stop offset="0.82" stop-color="#040404"/><stop offset="0.96" stop-color="#0f0f0f"/><stop offset="1" stop-color="#141414"/></linearGradient><linearGradient id="linear-gradient-2" x1="-3281.37" y1="-7725.75" x2="-3281.37" y2="-7750.71" gradientTransform="matrix(-0.95, 0, 0, 0.95, -2757.71, 7587.39)" gradientUnits="userSpaceOnUse"><stop offset="0" stop-color="#c2c1c1"/><stop offset="0.03" stop-color="#9f9e9e"/><stop offset="0.06" stop-color="#6f6f6f"/><stop offset="0.1" stop-color="#474747"/><stop offset="0.13" stop-color="#282828"/><stop offset="0.17" stop-color="#121212"/><stop offset="0.2" stop-color="#050505"/><stop offset="0.23"/><stop offset="0.27" stop-color="#060606"/><stop offset="0.32" stop-color="#161616"/><stop offset="0.38" stop-color="#303030"/><stop offset="0.44" stop-color="#555"/><stop offset="0.51" stop-color="#858585"/><stop offset="0.57" stop-color="#bebebe"/><stop offset="0.59" stop-color="#cecece"/><stop offset="0.63" stop-color="#c9c9c9"/><stop offset="0.67" stop-color="#bbb"/><stop offset="0.72" stop-color="#a3a3a3"/><stop offset="0.77" stop-color="#828282"/><stop offset="0.82" stop-color="#575757"/><stop offset="0.87" stop-color="#242424"/><stop offset="0.9"/><stop offset="1" stop-color="#969494"/></linearGradient><linearGradient id="linear-gradient-3" x1="-3311.6" y1="-7727.55" x2="-3311.6" y2="-7748.92" xlink:href="#linear-gradient"/><linearGradient id="linear-gradient-4" x1="60.07" y1="161.58" x2="60.07" y2="137.87" gradientTransform="matrix(1, 0, 0, 1, 0, 0)" xlink:href="#linear-gradient"/><linearGradient id="linear-gradient-5" x1="60.07" y1="161.58" x2="60.07" y2="137.87" gradientTransform="matrix(1, 0, 0, 1, 0, 0)" xlink:href="#linear-gradient-2"/><linearGradient id="linear-gradient-6" x1="31.35" y1="159.88" x2="31.35" y2="139.58" gradientTransform="matrix(1, 0, 0, 1, 0, 0)" xlink:href="#linear-gradient"/></defs><title>ico1</title><g id="Layer_3" data-name="Layer 3"><rect class="cls-1" x="53.23" y="141.85" width="312.86" height="14.84"/><rect class="cls-1" x="53.23" y="229.96" width="312.87" height="14.84"/><path class="cls-2" d="M359.13,296.2c-18.42,0-42.85-10-59.29-55.27a2.7,2.7,0,1,1,5.07-1.84c19.28,53.05,49.53,54.27,65.83,50.28,25.58-6.26,44.67-30.41,43.1-42.26-.88-6.64-8.29-7.88-14.34-7.73a2.67,2.67,0,0,1-2.72-3.16,2.79,2.79,0,0,1,2.76-2.24c15.6-.3,19,7.64,19.66,12.42,2.07,15.65-19.72,41.49-47.17,48.21A54.48,54.48,0,0,1,359.13,296.2Z"/><rect class="cls-3" x="345.61" y="224.98" width="27.31" height="23.71"/><rect class="cls-4" x="352.19" y="224.98" width="14.15" height="23.71"/><polygon class="cls-5" points="372.56 246.99 403.41 245.47 403.41 228.21 372.56 226.69 372.56 246.99"/><path class="cls-2" d="M60.2,209.09a54.25,54.25,0,0,1-12.9-1.59C19.86,200.78-1.94,174.95.14,159.29c.63-4.79,4-12.77,19.82-12.41a2.7,2.7,0,0,1,2.63,2.76,2.66,2.66,0,0,1-2.76,2.63c-6-.14-13.47,1.09-14.34,7.73C3.91,171.85,23,196,48.59,202.26c16.31,4,46.56,2.77,65.83-50.28a2.7,2.7,0,0,1,5.07,1.84C103,199.07,78.61,209.09,60.2,209.09Z"/><rect class="cls-6" x="46.42" y="137.87" width="27.31" height="23.71"/><rect class="cls-7" x="53" y="137.87" width="14.15" height="23.71"/><polygon class="cls-8" points="46.78 159.88 15.91 158.36 15.91 141.1 46.78 139.58 46.78 159.88"/><path class="cls-9" d="M362.24,211.46a.17.17,0,0,0,.11,0,.6.6,0,0,0,.19,0,1.93,1.93,0,0,0,.54-.07c.21-.05.47-.13.76-.23l.48-.16c0-.08.29.07.5.15l.64.27a28.56,28.56,0,0,0,37.19-37.19l-.27-.64A2,2,0,0,0,402,173q-.69-.85-1.44-1.7-1.49-1.7-3.18-3.38t-3.55-3.31c-.61-.54-1.26-1.09-1.88-1.61-.39-.33-.78-.66-1.18-1L233.28,7.58l-6.93-5.42L224.62.81l-.43-.34a1.52,1.52,0,0,0-.44-.13l-.89-.2a31.92,31.92,0,0,0-3.93-.57A30.25,30.25,0,0,0,210.7,0c-.61.12-1.19.27-1.78.4a.36.36,0,0,0-.22.11l-.22.17L208,1l-.87.68-3.47,2.71L189.85,15.25,176,26.09l-1.73,1.36-.86.68c-.13.11-.32.24-.4.32l-.23.23,1.4-1.4L56.36,145.07,45,156.38l128.6-128.6L55.84,145.59,54,147.4l-.23.23c-.08.08-.22.27-.32.4l-.68.87-1.35,1.73-7.62,10.64L33,175.14l-2.71,3.46-.68.87-.34.43-.17.22a.36.36,0,0,0-.11.22c-.13.6-.28,1.17-.4,1.78a30.39,30.39,0,0,0-.44,8.24,32.16,32.16,0,0,0,.57,3.92l.21.88a1.4,1.4,0,0,0,.13.44l.34.43,1.35,1.73,5.42,6.93L190.58,362.14h0c.32.4.64.8,1,1.18.52.63,1.07,1.27,1.61,1.89,1.09,1.24,2.2,2.42,3.31,3.55s2.25,2.19,3.38,3.18q.85.74,1.7,1.43a2,2,0,0,0,.71.42l.64.27a28.54,28.54,0,0,0,39.28-26.45c0-3.65-3.92-4.08-5.3-7.52l-.27-.64c-.09-.21-.23-.47-.15-.5l.16-.48c.1-.29.18-.55.23-.76a1.93,1.93,0,0,0,.07-.54.56.56,0,0,0,0-.19.17.17,0,0,0,0-.1L92.28,192.34l-.48-.48a1.11,1.11,0,0,1-.38-.55.85.85,0,0,1,.11-.65,5,5,0,0,1,.47-.49l1-1-7.55,7.55L214.56,67.6l1-1a5.29,5.29,0,0,1,.49-.46.85.85,0,0,1,.65-.11,1.08,1.08,0,0,1,.55.37l.48.48Z"/><path class="cls-10" d="M363.34,209.48a.37.37,0,0,0,.13.08,1.27,1.27,0,0,0,.24.09,1.86,1.86,0,0,0,.62.05,6,6,0,0,0,.81-.11l.49-.1.27-.06a.41.41,0,0,1,.39.05,26.39,26.39,0,0,0,34.36-34.36,2.61,2.61,0,0,0-.46-.71l-.6-.77q-.61-.77-1.28-1.54-1.32-1.54-2.83-3.06t-3.15-3l-1.62-1.4q-.51-.45-1.05-.88L232.71,9.64,226,4.36,224.36,3l-.42-.33a1.54,1.54,0,0,0-.43-.14l-.86-.22a27.32,27.32,0,0,0-3.8-.61,26.92,26.92,0,0,0-8,.46c-.59.13-1.15.29-1.72.43-.56.34-1.12.85-1.67,1.27l-3.34,2.64L190.78,17.12,177.42,27.68,175.75,29l-.83.66c-.13.11-.31.24-.39.32l-.23.23,1.4-1.4L57.9,146.61,46.59,157.92l128.6-128.6L57.38,147.13l-1.82,1.82-.23.23c-.08.08-.21.26-.32.39l-.66.83L53,152.06,45.7,162.2,35.13,175.56l-2.64,3.34c-.42.56-.93,1.11-1.27,1.67-.14.57-.3,1.13-.43,1.72a26.91,26.91,0,0,0-.46,8,27.57,27.57,0,0,0,.61,3.8l.22.86a1.6,1.6,0,0,0,.14.42l.33.42,1.32,1.67,5.28,6.68L192.37,361.07h0c.28.36.58.71.88,1.05l1.4,1.62c1,1.1,2,2.16,3,3.16s2,1.95,3.06,2.83q.77.66,1.54,1.28l.77.6a2.65,2.65,0,0,0,.7.46A26.37,26.37,0,0,0,240,347.62c0-3.37-3.86-3.53-5.15-6.7a.41.41,0,0,1,0-.39l.06-.26.1-.49a6.58,6.58,0,0,0,.1-.81,1.93,1.93,0,0,0-.05-.62,1.43,1.43,0,0,0-.09-.24.37.37,0,0,0-.08-.13l-145-145-.72-.72a1.67,1.67,0,0,1-.56-.83,1.28,1.28,0,0,1,.16-1,7.66,7.66,0,0,1,.7-.74l1.44-1.44-7,7L213.6,65.48,215,64a7.76,7.76,0,0,1,.74-.7,1.25,1.25,0,0,1,1-.16,1.67,1.67,0,0,1,.83.56l.72.72Z"/><path class="cls-11" d="M220.85,63.92c.13.13,144.2,144,144.68,144a8.47,8.47,0,0,0,1.87-.12l.29,0s.15,0,.23.06l.27.1,1.12.36a23,23,0,0,0,2.27.56,24.44,24.44,0,0,0,4.62.44,24.21,24.21,0,0,0,23.75-28.81q-.22-1.15-.55-2.27-.16-.56-.36-1.11a2.4,2.4,0,0,0-.24-.58l-.49-.69a48.29,48.29,0,0,0-4.65-5.53c-.88-.91-1.81-1.81-2.78-2.69l-1.37-1.21c-.3-.27-.61-.53-.93-.78L232.13,11.7l-6.43-5.15L224.1,5.27l-.4-.32a1.53,1.53,0,0,0-.41-.14l-.83-.24a24.28,24.28,0,0,0-11.41-.15c-.57.14-1.11.31-1.66.46-.54.33-1.07.83-1.61,1.24l-3.21,2.57L191.71,19l-12.86,10.3-1.61,1.29-.8.64c-.12.1-.29.23-.37.31l-.23.23,1.4-1.4L59.43,148.15,48.12,159.46l128.6-128.6L58.92,148.66l-1.82,1.82-.23.23c-.08.08-.21.25-.31.38l-.64.8-1.29,1.61-7.08,9.64L37.27,176l-2.57,3.21c-.41.54-.91,1.07-1.24,1.61-.15.56-.32,1.09-.46,1.66a24.2,24.2,0,0,0,.15,11.41l.24.83a1.56,1.56,0,0,0,.14.41l.32.4,1.29,1.61,5.15,6.43L194.16,360h0q.38.48.78.93l1.21,1.37q1.32,1.45,2.69,2.78a49,49,0,0,0,5.53,4.66l.7.48a2.45,2.45,0,0,0,.57.25l1.12.36a22.94,22.94,0,0,0,2.27.56,24.57,24.57,0,0,0,4.62.44,24.19,24.19,0,0,0,24.19-24.19,24.57,24.57,0,0,0-.44-4.62q-.22-1.15-.55-2.27c-.11-.37-.23-.75-.36-1.11l-.1-.28c0-.09-.08-.2-.06-.23l0-.29c.11-.75-3,1.85-3.09,1.34S89.42,195.62,89.29,195.48l-1.92-1.92-1-1a2.22,2.22,0,0,1-.75-1.11,1.69,1.69,0,0,1,.21-1.31,10.19,10.19,0,0,1,.93-1l1.92-1.92-6.39,6.38L212.65,63.36l1.92-1.92a10.35,10.35,0,0,1,1-.93,1.68,1.68,0,0,1,1.3-.21A2.23,2.23,0,0,1,218,61l1,1Z"/><path class="cls-12" d="M221.95,61.94c.15.15,144.24,144,144.74,144.11a7.06,7.06,0,0,0,1.87.06l.57-.05.3,0,.5.15c.68.2,1.37.37,2.06.5a22,22,0,0,0,25.82-25.82,21.25,21.25,0,0,0-.5-2.06c-.06-.17-.09-.33-.17-.52l-.38-.62q-.4-.62-.83-1.24a42.12,42.12,0,0,0-4.06-4.94,56.05,56.05,0,0,0-4.37-4.11L231.56,13.76l-6.17-5L223.84,7.5l-.38-.32a1.57,1.57,0,0,0-.4-.15l-.8-.25a21,21,0,0,0-3.55-.69,21.27,21.27,0,0,0-7.48.52c-.55.15-1.07.33-1.6.5-.52.33-1,.81-1.55,1.21L205,10.83l-12.35,10-12.35,10-1.54,1.25-.77.63c-.12.1-.28.22-.36.3l-.23.23,1.4-1.4L61,149.68,49.66,161l128.6-128.6L60.46,150.2,58.64,152l-.23.23c-.08.08-.2.24-.3.36l-.63.77-1.25,1.54-6.8,9.13-10,12.36-2.5,3.09c-.4.52-.88,1-1.21,1.55-.16.53-.34,1.05-.49,1.61a21.23,21.23,0,0,0-.52,7.48,20.71,20.71,0,0,0,.69,3.55l.25.8a1.67,1.67,0,0,0,.15.4l.31.38,1.25,1.55,5,6.18,153.6,155.94h0a55.71,55.71,0,0,0,4.11,4.37,42.13,42.13,0,0,0,4.94,4.06c.42.29.83.57,1.25.82l.62.39c.18.07.34.11.52.17.68.2,1.37.37,2.06.5a22,22,0,0,0,25.82-25.82q-.2-1-.5-2.07c0-.17-.11-.35-.15-.5l0-.3.05-.57a6.92,6.92,0,0,0-.06-1.87c-.09-.5-144-144.59-144.11-144.75l-2.4-2.4-1.2-1.2a2.78,2.78,0,0,1-.93-1.38c-.14-.55-3.26,2.07-2.95,1.59a12.73,12.73,0,0,1,1.16-1.24l2.4-2.4-5.8,5.8L211.69,61.24l2.4-2.4a12.34,12.34,0,0,1,1.23-1.17,2.11,2.11,0,0,1,1.63-.27,2.82,2.82,0,0,1,1.39.93l1.2,1.2Z"/><path class="cls-13" d="M223,60a1.08,1.08,0,0,0,.19.15l.27.17a3.42,3.42,0,0,0,.73.31c.53.15,144.72,143.79,145.42,143.78,1.05-.37,4.13.65,6.55.54A19.84,19.84,0,0,0,396,185.07c-.12-2.6,0-4.84-2.41-8a36.76,36.76,0,0,0-3.51-4.37c-.66-.71-1.36-1.42-2.1-2.1l-.91-.85q-.34-.31-.7-.61L231,15.83l-5.93-4.88-1.48-1.22-.37-.31a1.71,1.71,0,0,0-.38-.16L222.06,9a18.14,18.14,0,0,0-3.43-.72,18.89,18.89,0,0,0-7.23.55c-.53.17-1,.35-1.54.52-.5.33-1,.79-1.49,1.18l-3,2.44-11.85,9.75-11.85,9.75-1.48,1.22-.74.61c-.11.1-.27.21-.35.29l-.23.23,1.4-1.4L62.51,151.22,51.2,162.53,179.8,33.93,62,151.74l-1.82,1.82-.23.23c-.08.08-.2.24-.29.35l-.61.74-1.22,1.48L51.3,165l-9.75,11.85-2.44,3c-.39.5-.86,1-1.18,1.48s-.36,1-.52,1.54a19,19,0,0,0-.55,7.23,18.38,18.38,0,0,0,.73,3.43l.27.77a1.51,1.51,0,0,0,.16.38l.31.37,1.22,1.48,4.88,5.92L197.73,357.85h0c.2.24.4.48.61.7l.84.91c.69.73,1.39,1.43,2.1,2.1a37,37,0,0,0,4.37,3.51c3.15,2.37,5.38,2.29,8,2.4a19.84,19.84,0,0,0,19.84-19.84c.11-2.43-.9-5.5-.54-6.56,0-.7-143.63-144.89-143.78-145.42a3.21,3.21,0,0,0-.3-.73l-.17-.27a1,1,0,0,0-.15-.19l-2.88-2.88-1.44-1.44a3.33,3.33,0,0,1-1.12-1.66,2.55,2.55,0,0,1,.32-2c.39-.55-2.29,2.23-1.82,1.74l2.88-2.88-5.22,5.22L210.74,59.12l2.88-2.88a15.12,15.12,0,0,1,1.48-1.39,2.54,2.54,0,0,1,2-.32,3.34,3.34,0,0,1,1.66,1.12l1.44,1.44Z"/><path class="cls-14" d="M224.13,58a1.15,1.15,0,0,0,.19.16l.25.16c.23.14,144.05,143.84,144.31,143.93a6.15,6.15,0,0,0,1.77.31,15.54,15.54,0,0,0,2.22-.09H373l.21,0,.42.06.84.1c.56.06,1.13.08,1.69.08a17.67,17.67,0,0,0,17.67-17.67c0-.57,0-1.13-.08-1.69,0-.28-.06-.56-.1-.84l-.06-.42,0-.21-.09-.24a23,23,0,0,0-2.08-3.87,30.83,30.83,0,0,0-3-3.81c-.56-.62-1.16-1.23-1.78-1.83l-.7-.67c-.19-.18-.39-.36-.6-.53L230.42,17.88l-5.68-4.74L223.32,12l-.35-.3a1.67,1.67,0,0,0-.37-.16l-.74-.28a16,16,0,0,0-3.31-.76,16.84,16.84,0,0,0-7,.58c-.51.17-1,.37-1.48.55s-.95.77-1.42,1.15l-2.84,2.37-11.35,9.48-11.35,9.48-1.42,1.18-.71.59-.34.29-.23.23,1.4-1.4L64,152.76,52.73,164.07l128.6-128.6L63.53,153.27l-1.82,1.82-.23.23c-.08.08-.19.22-.29.34l-.59.71-1.18,1.42-6.26,8.13-9.48,11.35-2.37,2.84c-.38.47-.83.94-1.15,1.42s-.38,1-.55,1.49a16.84,16.84,0,0,0-.58,7,16.11,16.11,0,0,0,.76,3.31l.28.74a1.69,1.69,0,0,0,.16.37l.3.36,1.18,1.42,4.74,5.67L199.52,356.77h0c.17.2.35.4.53.6l.67.71c.6.62,1.21,1.22,1.83,1.78a31.31,31.31,0,0,0,3.81,3,22.92,22.92,0,0,0,3.87,2.08,1.25,1.25,0,0,0,.45.13l.42.07.84.1c.56.05,1.13.08,1.7.08a17.67,17.67,0,0,0,17.67-17.67c0-.56,0-1.13-.08-1.69,0-.28-.06-.56-.1-.84l-.06-.42,0-.21a1.26,1.26,0,0,1,0-.16,15.5,15.5,0,0,0,.09-2.22c0-.66-143.71-144.83-143.89-145.35a4,4,0,0,0-.35-.73l-.16-.26a1.14,1.14,0,0,0-.16-.19l-3.36-3.36-1.68-1.68a3.89,3.89,0,0,1-1.31-1.93,3,3,0,0,1,.38-2.28,6.24,6.24,0,0,1,.79-.89l.84-.84.14-.14-4.64,4.64L209.78,57l3.36-3.36.84-.84a6.22,6.22,0,0,1,.89-.79,2.94,2.94,0,0,1,2.28-.38,3.89,3.89,0,0,1,1.94,1.31l1.68,1.68Z"/><path class="cls-15" d="M368.81,199.59a1.76,1.76,0,0,0,.42.3,4.32,4.32,0,0,0,.71.38,5.79,5.79,0,0,0,1.67.39,11.58,11.58,0,0,0,2,0c.36,0,.74-.07,1.14-.12a2.85,2.85,0,0,1,.69,0l.74,0a15.5,15.5,0,0,0,15.5-15.5c0-.25,0-.5,0-.74a2.71,2.71,0,0,0-.1-.77,15.25,15.25,0,0,0-.56-1.66,20,20,0,0,0-1.74-3.35,26.27,26.27,0,0,0-2.49-3.28c-.47-.53-1-1.05-1.49-1.56s-.65-.65-1-1L229.85,19.94l-5.42-4.6-1.36-1.15-.34-.29a1.83,1.83,0,0,0-.35-.17l-.71-.3a14.37,14.37,0,0,0-3.18-.8,15,15,0,0,0-6.72.61c-.49.18-.95.39-1.42.58s-.91.75-1.36,1.12l-2.71,2.3-10.85,9.21-10.84,9.2-1.36,1.15-.68.58c-.1.09-.24.2-.32.28l-.23.23,1.4-1.4L65.58,154.3,54.27,165.61,182.88,37,65.07,154.81l-1.82,1.82-.23.23c-.08.08-.19.22-.28.32l-.58.68L61,159.21l-6,7.63-9.21,10.85-2.3,2.71c-.37.45-.8.9-1.12,1.36s-.4.93-.58,1.42a14.92,14.92,0,0,0-.61,6.72,14.17,14.17,0,0,0,.8,3.18l.3.71a1.83,1.83,0,0,0,.17.35l.29.34,1.15,1.36,4.6,5.42L201.31,355.7h0c.31.36.57.62,1,1s1,1,1.56,1.49a26.23,26.23,0,0,0,3.28,2.49,19.92,19.92,0,0,0,3.35,1.74,15.76,15.76,0,0,0,1.66.56,2.7,2.7,0,0,0,.77.1l.74,0a15.5,15.5,0,0,0,15.49-15.49c0-.25,0-.5,0-.74a3,3,0,0,1,0-.7c.05-.39.09-.77.12-1.14a11.59,11.59,0,0,0,0-2,5.72,5.72,0,0,0-.39-1.67,3.87,3.87,0,0,0-.38-.71,1.75,1.75,0,0,0-.3-.42l-3.84-3.84-1.92-1.92a4.45,4.45,0,0,1-1.5-2.21c-.21-.88-143.64-145.43-143.15-146.19a7,7,0,0,1,.9-1l1-1,.62-.62-4.05,4.05L208.83,54.88,212.67,51l1-1a7.31,7.31,0,0,1,1-.9c.76-.49,145.31,142.94,146.19,143.15a4.45,4.45,0,0,1,2.21,1.5l1.92,1.92Z"/><path class="cls-16" d="M369.9,197.61a1.52,1.52,0,0,0,.38.28,5.33,5.33,0,0,0,.65.36,5.43,5.43,0,0,0,1.53.44,12.42,12.42,0,0,0,3.86-.18c.68-.17,1.59-.2,2.42-.37a13.3,13.3,0,0,0,10.53-10.53,6.75,6.75,0,0,0,.11-2.62,15,15,0,0,0-2.19-5.67,21.56,21.56,0,0,0-2-2.76l-.59-.66-.58-.61a10.28,10.28,0,0,0-.8-.77L229.28,22l-5.17-4.46-1.29-1.12-.32-.28a2.27,2.27,0,0,0-.34-.17l-.68-.31a12.61,12.61,0,0,0-3.06-.84,13.31,13.31,0,0,0-6.47.64c-.47.19-.91.41-1.37.61s-.86.73-1.3,1.09l-2.59,2.23-10.34,8.93L186,37.26l-1.29,1.12-.65.56-.31.27-.23.23,1.4-1.4L67.12,155.83,55.81,167.15l128.6-128.6L66.61,156.35l-1.82,1.82-.23.23c-.08.08-.18.21-.27.31l-.56.65-1.12,1.29-5.72,7.13L48,178.11l-2.23,2.59c-.36.43-.77.86-1.09,1.3s-.42.9-.61,1.37a13.36,13.36,0,0,0-.64,6.47,12.84,12.84,0,0,0,.84,3.06l.31.68a2.28,2.28,0,0,0,.17.34l.28.32,1.12,1.29,4.46,5.17L203.1,354.62h0a9.25,9.25,0,0,0,.78.8l.6.58.66.59a21.7,21.7,0,0,0,2.76,2,15.08,15.08,0,0,0,5.67,2.18,6.74,6.74,0,0,0,2.62-.11,13.34,13.34,0,0,0,9.8-8.06,13.25,13.25,0,0,0,.73-2.47c.17-.83.2-1.74.37-2.42a12.43,12.43,0,0,0,.18-3.86,5.49,5.49,0,0,0-.44-1.54,5.38,5.38,0,0,0-.36-.65,1.51,1.51,0,0,0-.28-.38L221.86,337l-2.16-2.16a11,11,0,0,1-1-1.12c-.31-.4-144.1-144.46-144.22-145a3.8,3.8,0,0,1,.49-2.93,8.08,8.08,0,0,1,1-1.14L77,183.62l1.11-1.11L74.65,186,207.87,52.76l4.32-4.32,1.08-1.08a8.08,8.08,0,0,1,1.14-1,3.8,3.8,0,0,1,2.93-.49c.49.12,144.55,143.91,145,144.22a10.9,10.9,0,0,1,1.12,1l2.16,2.16Z"/><path class="cls-17" d="M224.21,342.42l-4.8-4.8-2.4-2.4c-.4-.4-144.4-144.37-144.74-144.82a4.14,4.14,0,0,1-.71-1.53,4.23,4.23,0,0,1,.54-3.26c.16-.23.35-.44.53-.66s.4-.4.6-.6l1.2-1.2L76,181.56l-2.89,2.89L206.92,50.64l4.8-4.8,1.2-1.2c.2-.2.39-.4.6-.6s.43-.37.66-.53a4.23,4.23,0,0,1,3.26-.54,4.15,4.15,0,0,1,1.53.71C219.43,44,363.4,188,363.79,188.42l2.4,2.4,4.8,4.8a5,5,0,0,0,2.27,1,9.35,9.35,0,0,0,3.3-.08,18.69,18.69,0,0,0,3.83-1.18,11.2,11.2,0,0,0,6.14-6.14,8.57,8.57,0,0,0,.43-4.4,12.93,12.93,0,0,0-1.75-4.7,19.4,19.4,0,0,0-3.09-3.85L228.7,24.07l-4.92-4.33-1.23-1.08-.31-.27a1.77,1.77,0,0,0-.32-.18l-.65-.33a11.13,11.13,0,0,0-2.94-.88,11.85,11.85,0,0,0-6.22.67c-.45.2-.87.43-1.31.64s-.82.71-1.23,1.06l-2.46,2.16-9.84,8.66-9.84,8.66-1.23,1.08c-.39.35-.88.76-1.14,1l1.4-1.4L68.66,157.37,57.35,168.68l128.6-128.6L68.14,157.89l-1.82,1.82c-.28.25-.68.75-1,1.14l-1.08,1.23-5.44,6.62-8.66,9.84L47.94,181c-.35.41-.75.82-1.06,1.23s-.44.86-.64,1.31a11.85,11.85,0,0,0-.67,6.22,11.18,11.18,0,0,0,.88,2.94l.33.65a1.79,1.79,0,0,0,.18.32l.27.31,1.08,1.23,4.33,4.92L204.89,353.55a19.4,19.4,0,0,0,3.85,3.09,12.93,12.93,0,0,0,4.7,1.75,8.57,8.57,0,0,0,4.4-.43,11.2,11.2,0,0,0,6.14-6.14,18.82,18.82,0,0,0,1.18-3.83,9.31,9.31,0,0,0,.07-3.3A5,5,0,0,0,224.21,342.42Z"/><path class="cls-18" d="M223.18,343l-5.05-5.05L72,191.83a13.24,13.24,0,0,1-1.21-1.31,4.39,4.39,0,0,1-.75-1.6,4.44,4.44,0,0,1,.57-3.43c.17-.24.37-.46.55-.7s.42-.42.63-.63l1.26-1.26,1.83-1.83-2.59,2.59L206.43,49.54l5-5,1.26-1.26c.21-.21.42-.42.63-.63s.45-.38.7-.55a4.44,4.44,0,0,1,3.43-.57,4.39,4.39,0,0,1,1.6.75,13.25,13.25,0,0,1,1.31,1.21L366.52,189.55l5.05,5.05c1.93,1.93,7.72,1.38,11.72-2.45a8.35,8.35,0,0,0,2.46-7.34,11.73,11.73,0,0,0-1.54-4.21,14.68,14.68,0,0,0-1.42-2l-.68-.8a6.64,6.64,0,0,0-.55-.56L228.41,25.13l-4.79-4.26-1.2-1.06-.3-.27a2.17,2.17,0,0,0-.31-.18l-.64-.33a10.52,10.52,0,0,0-2.87-.9,11.15,11.15,0,0,0-6.09.68c-.44.21-.85.44-1.28.66s-.8.7-1.2,1l-2.4,2.13-9.58,8.52-9.58,8.52L187,40.74c-.38.34-.85.74-1.11,1l1.4-1.4L69.45,158.17,58.14,169.48l128.6-128.6L68.94,158.68l-1.82,1.82c-.28.26-.68.74-1,1.11L65,162.81l-5.31,6.36-8.52,9.58-2.13,2.4c-.35.4-.73.79-1,1.2s-.46.84-.66,1.28a11.19,11.19,0,0,0-.68,6.09,10.61,10.61,0,0,0,.9,2.87l.33.63a2.14,2.14,0,0,0,.18.31l.26.3,1.07,1.2,4.26,4.79L205.81,353a6.67,6.67,0,0,0,.56.55l.8.68a14.67,14.67,0,0,0,2,1.41,11.75,11.75,0,0,0,4.21,1.54,8.35,8.35,0,0,0,7.34-2.46C224.56,350.71,225.11,344.92,223.18,343Z"/><path class="cls-19" d="M220.08,344.71l-5.8-5.8L67.79,192.42a15,15,0,0,1-1.4-1.5,5,5,0,0,1-.87-1.84,5.13,5.13,0,0,1,.65-3.94c.19-.28.43-.53.64-.8s.48-.49.72-.73L69,182.16l5.81-5.81-4.89,4.89,135-135,5.8-5.8L212.18,39c.24-.24.48-.49.73-.72s.52-.44.8-.64a5.13,5.13,0,0,1,3.94-.65,5,5,0,0,1,1.84.87,15,15,0,0,1,1.5,1.4L367.48,185.69l5.8,5.8a1.4,1.4,0,0,0,.53.34,5.17,5.17,0,0,0,.88.34,4.77,4.77,0,0,0,2,0,7,7,0,0,0,4.14-2.47,6.19,6.19,0,0,0,1.37-5,8.24,8.24,0,0,0-.94-2.74c-.12-.22-.26-.44-.4-.65l-.22-.32-.11-.16-.07-.11a3.75,3.75,0,0,0-.62-.75L227.51,28.36l-4.4-4a10.83,10.83,0,0,0-2.25-1.81,8.7,8.7,0,0,0-2.68-1,9.26,9.26,0,0,0-5.7.73c-.41.22-.79.47-1.18.71s-.74.67-1.1,1L208,26l-8.79,8.09-8.79,8.09-1.1,1c-.35.33-.77.69-1,1l1.4-1.4L71.86,160.58,60.55,171.89l128.6-128.6L71.35,161.09l-1.82,1.82c-.29.27-.65.69-1,1l-1,1.1-4.88,5.58-8.09,8.79-2,2.19c-.33.37-.69.73-1,1.1s-.49.77-.71,1.18a9.26,9.26,0,0,0-.73,5.7,8.7,8.7,0,0,0,1,2.68,10.83,10.83,0,0,0,1.81,2.25l4,4.4L208.62,351.31a3.77,3.77,0,0,0,.75.62l.11.07.16.11.32.22.65.4a8.24,8.24,0,0,0,2.74.94,6.19,6.19,0,0,0,5-1.37,7.06,7.06,0,0,0,2.48-4.14,4.77,4.77,0,0,0,0-2.05,5.09,5.09,0,0,0-.34-.88A1.4,1.4,0,0,0,220.08,344.71Z"/><path class="cls-20" d="M219.56,345l-5.93-5.93L67.08,192.52A15.66,15.66,0,0,1,65.66,191a5.15,5.15,0,0,1-.88-1.88,5.22,5.22,0,0,1,.67-4c.2-.28.44-.55.65-.82s.49-.5.74-.75L68.31,182l5.93-5.93-4.74,4.74L204.68,45.66l5.93-5.93,1.48-1.48c.25-.24.49-.5.75-.74s.53-.45.82-.65a5.22,5.22,0,0,1,4-.67,5.15,5.15,0,0,1,1.88.88,15.65,15.65,0,0,1,1.53,1.43L367.64,185.05l5.93,5.93a1.36,1.36,0,0,0,.49.32l.15,0,.21.1a3.08,3.08,0,0,0,.44.15,4.27,4.27,0,0,0,1.88.05,6.26,6.26,0,0,0,3.74-2.3,5.76,5.76,0,0,0,1.21-4.57,7.44,7.44,0,0,0-.85-2.5,6.92,6.92,0,0,0-.36-.59l-.2-.29-.12-.2a3.44,3.44,0,0,0-.56-.68L227.36,28.9l-4.33-4a11.27,11.27,0,0,0-2.22-1.81,8.49,8.49,0,0,0-2.65-1,9,9,0,0,0-5.63.73c-.41.22-.78.48-1.17.72s-.72.66-1.09,1l-2.17,2-8.66,8-8.66,8-1.08,1c-.35.32-.76.69-1,1l1.4-1.4L72.27,161,61,172.29l128.6-128.6L71.75,161.49l-1.82,1.82c-.29.27-.65.69-1,1l-1,1.08-4.8,5.45-8,8.66-2,2.16c-.33.36-.69.72-1,1.09s-.5.76-.72,1.17a9,9,0,0,0-.74,5.63,8.59,8.59,0,0,0,1,2.65,11.29,11.29,0,0,0,1.81,2.22l4,4.33L209.08,351a3.44,3.44,0,0,0,.68.56l.2.12.29.2a6.9,6.9,0,0,0,.6.36,7.43,7.43,0,0,0,2.5.85,5.76,5.76,0,0,0,4.57-1.21,6.26,6.26,0,0,0,2.3-3.74,4.27,4.27,0,0,0-.05-1.88,2.93,2.93,0,0,0-.15-.44l-.1-.21,0-.15A1.36,1.36,0,0,0,219.56,345Z"/><path class="cls-21" d="M219,345.3l-6.06-6.06L66.33,192.62a14.93,14.93,0,0,1-1.46-1.57,5.13,5.13,0,0,1-.9-1.92,5.32,5.32,0,0,1,.68-4.11c.2-.29.44-.56.67-.84s.5-.51.75-.76l1.52-1.52,6.06-6.06-4.58,4.58L204.42,45.07,210.48,39,212,37.49c.25-.25.5-.51.76-.75s.55-.46.84-.67a5.32,5.32,0,0,1,4.11-.68,5.2,5.2,0,0,1,1.92.9,15,15,0,0,1,1.57,1.46L367.81,184.37l6.06,6.06a3.67,3.67,0,0,0,2.84.58,5.46,5.46,0,0,0,3.33-2.11,5.31,5.31,0,0,0,1.06-4.14,7.69,7.69,0,0,0-1.8-3.77L227.2,29.48l-4.26-4a11.54,11.54,0,0,0-2.19-1.8,8.18,8.18,0,0,0-2.61-1,8.67,8.67,0,0,0-5.56.74c-.4.22-.77.48-1.15.72s-.71.65-1.07,1l-2.13,2-8.52,7.95L191.19,43c-.69.65-1.47,1.35-2.09,2l1.4-1.4L72.7,161.41,61.38,172.72,190,44.12,72.18,161.92l-1.82,1.82c-.61.62-1.31,1.39-2,2.09l-4.73,5.3-7.95,8.52-2,2.13c-.33.36-.68.71-1,1.07s-.5.75-.72,1.15a8.67,8.67,0,0,0-.74,5.56,8.21,8.21,0,0,0,1,2.61,11.75,11.75,0,0,0,1.8,2.19l4,4.26,151.53,152.1a7.7,7.7,0,0,0,3.77,1.8,5.32,5.32,0,0,0,4.14-1.06,5.47,5.47,0,0,0,2.1-3.33A3.67,3.67,0,0,0,219,345.3Z"/><path class="cls-22" d="M378.32,182.64a1.92,1.92,0,0,1,.5.83,1.89,1.89,0,0,0,.12.3c0,.12.09.24.13.35a4.52,4.52,0,0,1,.17.72,3.64,3.64,0,0,1-.59,2.66,3.18,3.18,0,0,1-2,1.41,3.23,3.23,0,0,1-1.07,0,.91.91,0,0,1-.66-.27L224.79,38.54l-3.25-3.25a15.83,15.83,0,0,0-1.68-1.57,5.61,5.61,0,0,0-2.06-1,5.74,5.74,0,0,0-4.41.73c-.31.22-.6.48-.9.71s-.55.54-.82.81L210,36.63l-6.5,6.5L67.67,179l4-4-6.5,6.5-1.62,1.62c-.27.27-.55.54-.81.82s-.5.59-.71.9a5.74,5.74,0,0,0-.73,4.41,5.61,5.61,0,0,0,1,2.06A15.77,15.77,0,0,0,63.86,193l3.25,3.25L217.2,346.3a.91.91,0,0,1,.27.66,2.91,2.91,0,0,1-1.39,3.11,3.65,3.65,0,0,1-2.66.59,4.53,4.53,0,0,1-.72-.17l-.35-.13-.3-.12a1.92,1.92,0,0,1-.83-.5L59.94,198.1l-3.85-4A13,13,0,0,1,54.31,192a7.45,7.45,0,0,1-1-2.5,7.78,7.78,0,0,1,.77-5.33c.23-.38.5-.73.75-1.1s.64-.67,1-1l1.92-2,7.7-8.06,4.48-4.84,1.91-2,1.82-1.82L191.39,45.52,62.79,174.13,74.1,162.81,191.91,45l-1.4,1.4,2-1.91,8.06-7.7,8.06-7.7,2-1.92c.34-.32.67-.65,1-1s.72-.52,1.1-.75a7.78,7.78,0,0,1,5.33-.77,7.45,7.45,0,0,1,2.5,1,13,13,0,0,1,2.08,1.78l4,3.85Z"/><path class="cls-23" d="M345,177.51h0L208.53,314h0l-.15.17-.07.08,0,0-.14.15q-.56.63-1.09,1.27a32.89,32.89,0,0,0,43.6,48.22,32.26,32.26,0,0,0,2.66-2c.43-.35.86-.71,1.27-1.09l.16-.14,0,0,.08-.07.17-.15h0L391.53,224h0l.15-.16.07-.09,0,0,.14-.16c.38-.41.74-.84,1.09-1.27a32.26,32.26,0,0,0,2-2.66,32.89,32.89,0,0,0-27.47-51A32.77,32.77,0,0,0,346.74,176q-.65.53-1.27,1.09l-.15.14,0,0-.09.07Z"/><path class="cls-24" d="M210.07,315.53l-.14.15-.06.08,0,0v0l-.07.07c-.35.39-.69.78-1,1.19q-1,1.21-1.83,2.49a30.72,30.72,0,0,0,42.55,42.55q1.28-.84,2.49-1.83c.4-.33.8-.67,1.19-1l.07-.06h0l0,0,.08-.06.15-.14L390,222.48h0l.14-.15.06-.08,0,0v0l.07-.07q.53-.58,1-1.19a30.71,30.71,0,0,0-43.21-43.21q-.6.49-1.19,1l-.07.07h0l0,0-.08.06-.15.14Z"/><path class="cls-9" d="M211.61,317.07a2,2,0,0,0-.25.3c-.31.34-.63.72-.94,1.09q-.91,1.12-1.7,2.31a28.54,28.54,0,0,0,39.54,39.54c.79-.52,1.56-1.09,2.31-1.7.37-.3.75-.63,1.09-.94a2,2,0,0,0,.3-.24L388.46,220.94h0a2,2,0,0,0,.25-.3c.3-.34.63-.72.94-1.09a28.4,28.4,0,0,0,4.31-7.27,28.54,28.54,0,0,0-42.15-34.58,28.21,28.21,0,0,0-2.31,1.7c-.37.3-.75.63-1.09.94a2.22,2.22,0,0,0-.3.24Z"/><path class="cls-10" d="M213.15,318.6a1.84,1.84,0,0,0-.22.27l-.81,1a26.37,26.37,0,0,0,20.45,43,26.32,26.32,0,0,0,14.51-4.34q1.1-.72,2.13-1.57l1-.81a1.84,1.84,0,0,0,.27-.22L386.92,219.4h0a1.7,1.7,0,0,0,.22-.27l.81-1q.84-1,1.57-2.13A26.37,26.37,0,0,0,353,179.51q-1.1.72-2.13,1.57l-1,.81a1.84,1.84,0,0,0-.27.22Z"/><path class="cls-11" d="M214.68,320.14a1.63,1.63,0,0,0-.21.25.5.5,0,0,1-.08.1l-.2.23-.39.47a24.12,24.12,0,0,0-3.65,6.16,24.21,24.21,0,0,0,31.52,31.52,23.93,23.93,0,0,0,4.21-2.21,23.61,23.61,0,0,0,2-1.44l.47-.39.23-.2a.43.43,0,0,1,.1-.08,1.78,1.78,0,0,0,.25-.21L385.38,217.87h0a1.78,1.78,0,0,0,.21-.25.52.52,0,0,1,.08-.1l.2-.23.39-.47a24,24,0,0,0,3.65-6.16,24.21,24.21,0,0,0-31.52-31.52,24,24,0,0,0-6.17,3.65l-.47.39-.23.2a.43.43,0,0,1-.1.08,1.78,1.78,0,0,0-.25.21Z"/><path class="cls-12" d="M216.22,321.68a32.23,32.23,0,0,0-2,2.67,21.73,21.73,0,0,0-2,3.83,22,22,0,0,0,32.52,26.68,32.08,32.08,0,0,0,2.67-2L383.85,216.33h0c.17-.17.09-.15.73-.89a22,22,0,0,0-29.19-32.29,32.4,32.4,0,0,0-2.68,2Z"/><path class="cls-13" d="M217.76,323.21a1.51,1.51,0,0,0-.17.21s0,.05-.09.14l-.32.39a19.65,19.65,0,0,0-3,5.06A19.85,19.85,0,0,0,240,354.86a19.77,19.77,0,0,0,5.06-3l.39-.32.14-.09a1.36,1.36,0,0,0,.21-.17L382.31,214.79h0a1.36,1.36,0,0,0,.17-.21,1.19,1.19,0,0,1,.09-.14l.32-.39a19.06,19.06,0,0,0,1.18-1.6A19.84,19.84,0,0,0,355,186.14l-.39.32a1.05,1.05,0,0,1-.14.09,1.36,1.36,0,0,0-.21.17Z"/><path class="cls-14" d="M219.3,324.75a1.18,1.18,0,0,0-.15.18,2,2,0,0,1-.28.38q-.56.69-1.05,1.43a17.67,17.67,0,0,0,24.48,24.48c.49-.33,1-.68,1.43-1.05a2,2,0,0,1,.38-.28,1.15,1.15,0,0,0,.18-.15L380.77,213.25h0a1.18,1.18,0,0,0,.15-.18l.06-.1,0,0,.07-.08.14-.17a17.36,17.36,0,0,0,1.05-1.43,17.67,17.67,0,0,0-14.76-27.39,17.6,17.6,0,0,0-9.72,2.91c-.49.33-1,.68-1.43,1.05a1.92,1.92,0,0,1-.38.28l-.18.15Z"/><path class="cls-15" d="M220.83,326.29a1,1,0,0,0-.13.16l-.06.09,0,0v0l-.06.08a15.43,15.43,0,0,0-.92,1.25,15.22,15.22,0,0,0-1.42,2.69,15.5,15.5,0,0,0,20.19,20.19,15.23,15.23,0,0,0,2.69-1.42,15.42,15.42,0,0,0,1.25-.92l.08-.06h0l0,0,.09-.06.16-.13L379.23,211.72h0a1.12,1.12,0,0,0,.13-.16l.06-.09,0,0v0l.06-.08a15.23,15.23,0,0,0,.92-1.25A15.5,15.5,0,0,0,359,188.59c-.43.29-.85.59-1.25.92l-.08.06h0l0,0-.09.06-.16.13Z"/><path class="cls-16" d="M222.37,327.83a1,1,0,0,0-.2.3s-.07.11-.14.2l-.2.27c-.13.18-.26.36-.38.54a13,13,0,0,0-1.22,2.32,13.32,13.32,0,0,0,19.68,16.14l.55-.38.27-.2a1.07,1.07,0,0,1,.2-.14,1,1,0,0,0,.3-.2L377.7,210.18h0a1,1,0,0,0,.2-.3,1.13,1.13,0,0,1,.14-.2l.2-.27c.13-.18.26-.36.38-.55a13,13,0,0,0,1.22-2.31,13.33,13.33,0,0,0-17.36-17.36,13,13,0,0,0-2.32,1.22l-.55.38-.27.2a1.23,1.23,0,0,1-.2.14,1,1,0,0,0-.3.2Z"/><path class="cls-17" d="M360.39,192.88,223.91,329.36a.79.79,0,0,0-.17.25l0,.08s-.09.13-.13.19l-.32.46a11.15,11.15,0,0,0,15.45,15.45l.46-.32a1.5,1.5,0,0,1,.19-.13l.08,0a.79.79,0,0,0,.25-.17L376.16,208.64a.79.79,0,0,0,.17-.25l0-.08a1.63,1.63,0,0,1,.13-.19l.32-.46a11.15,11.15,0,0,0-15.45-15.45l-.46.32c-.06,0-.18.14-.19.13l-.08,0A.79.79,0,0,0,360.39,192.88Z"/><path class="cls-18" d="M358.86,191.34,222.37,327.82a.71.71,0,0,0-.15.22,1.16,1.16,0,0,1-.07.16l-.29.41a10,10,0,0,0,8.37,15.54,10.06,10.06,0,0,0,3.77-.73,9.93,9.93,0,0,0,1.74-.92l.41-.29a1.12,1.12,0,0,1,.16-.07.75.75,0,0,0,.22-.15L373,205.51a.75.75,0,0,0,.15-.22,1.12,1.12,0,0,1,.07-.16l.29-.41a9.93,9.93,0,0,0,.92-1.74,10,10,0,0,0-13.06-13.06,10,10,0,0,0-1.74.92l-.41.29a1.16,1.16,0,0,1-.16.07A.71.71,0,0,0,358.86,191.34Z"/><path class="cls-19" d="M361.27,193.75,224.78,330.23a.56.56,0,0,0-.15.34.19.19,0,0,1,0,.06l-.08.14-.16.29a6.35,6.35,0,0,0-.27.58,6.5,6.5,0,0,0-.48,2.49,6.62,6.62,0,0,0,9.1,6.13c.2-.08.39-.17.58-.27l.29-.16.14-.09h.06a.55.55,0,0,0,.34-.15L370.62,203.1a.55.55,0,0,0,.15-.34.27.27,0,0,1,0-.06l.09-.14.16-.29c.1-.19.19-.39.27-.58a6.61,6.61,0,0,0-6.13-9.1,6.55,6.55,0,0,0-2.49.48,6.35,6.35,0,0,0-.58.27l-.29.16-.14.08h-.06A.56.56,0,0,0,361.27,193.75Z"/><path class="cls-20" d="M361.67,194.15,225.18,330.64a.51.51,0,0,0-.14.31s0,.05,0,.11l-.15.26c-.09.17-.17.35-.25.54a6,6,0,0,0,7.88,7.88c.18-.07.36-.16.54-.25l.26-.15c.06,0,.08,0,.11,0a.51.51,0,0,0,.31-.14L370.22,202.7a.51.51,0,0,0,.14-.31s0-.05,0-.11l.15-.26c.09-.17.17-.35.25-.54a6,6,0,0,0-7.88-7.88c-.18.07-.36.16-.54.25l-.26.15c-.06,0-.07,0-.11,0A.51.51,0,0,0,361.67,194.15Z"/><path class="cls-22" d="M231.9,337.35a.45.45,0,0,1-.44.05l-.08,0-.16.05-.32.08a3.61,3.61,0,0,1-.66.06,3.44,3.44,0,0,1-3.45-3.45,3.59,3.59,0,0,1,.06-.66c0-.11,0-.22.08-.32L227,333a.55.55,0,0,0,0-.08.46.46,0,0,1,.05-.44L363.5,196a.46.46,0,0,1,.44-.05H364l.16,0,.32-.08a3.36,3.36,0,0,1,.66-.06,3.44,3.44,0,0,1,3.45,3.45,3.37,3.37,0,0,1-.06.66,3,3,0,0,1-.08.32l-.05.16a.41.41,0,0,0,0,.08.45.45,0,0,1-.05.44Z"/><path class="cls-2" d="M225.28,289.51c-9.76,0-17.64-13.88-19.42-27.16a2.46,2.46,0,1,1,4.88-.66c1.66,12.41,8.79,23.31,14.92,22.88,4-.28,24-8,23.07-132.83a2.46,2.46,0,0,1,4.92,0c.67,87.54-9.15,136.48-27.64,137.78C225.77,289.51,225.53,289.51,225.28,289.51Z"/><path class="cls-2" d="M215.37,273.07A12.31,12.31,0,0,1,211,249.25a5.74,5.74,0,0,0,.37-.5,12.31,12.31,0,0,1,24.51,1.36c.18,9.45-8.42,20.45-17.7,22.64A12.27,12.27,0,0,1,215.37,273.07Z"/><path class="cls-2" d="M180.6,153c-.34,0-.69,0-1,0a12.31,12.31,0,0,1-11.25-13.28c.79-9.5,10.39-19.64,19.77-20.86a12.31,12.31,0,0,1,5,24,5.14,5.14,0,0,0-.44.44A12.31,12.31,0,0,1,180.6,153Z"/><path class="cls-25" d="M199,140.46v8.41a3.12,3.12,0,0,0,3.11,3.11h34.58c3.37,1.82,9,5.12,13.65,5.12a9.75,9.75,0,0,0,9.88-10c0-6.12-3.73-9.72-9.88-9.72l-10.49,0H202.06A3.12,3.12,0,0,0,199,140.46Z"/><g class="cls-26"><g class="cls-27"><path class="cls-28" d="M202.31,138.45a2.54,2.54,0,0,1,2.41,2.64v7.15a2.42,2.42,0,1,1-4.82,0v-7.15A2.54,2.54,0,0,1,202.31,138.45Z"/></g><g class="cls-27"><path class="cls-28" d="M239.44,138.45a2.54,2.54,0,0,1,2.41,2.64v7.15a2.42,2.42,0,1,1-4.82,0v-7.15A2.54,2.54,0,0,1,239.44,138.45Z"/></g></g><g class="cls-25"><rect x="206.17" y="138.45" width="29.42" height="12.44" rx="2.64" ry="2.64"/></g><circle class="cls-25" cx="250.3" cy="147.09" r="6.44"/><circle class="cls-29" cx="250.3" cy="147.09" r="5.86"/><polygon class="cls-25" points="249.39 143.24 249.39 146.19 246.45 146.19 246.45 148 249.39 148 249.39 150.94 251.2 150.94 251.2 148 254.14 148 254.14 146.19 251.2 146.19 251.2 143.24 249.39 143.24"/><path class="cls-25" d="M200.46,229.52v-8.41a3.12,3.12,0,0,1,3.11-3.11h34.58c3.37-1.82,9-5.12,13.65-5.12a9.75,9.75,0,0,1,9.88,10c0,6.12-3.73,9.72-9.88,9.72l-10.49,0H203.57A3.12,3.12,0,0,1,200.46,229.52Z"/><g class="cls-26"><g class="cls-27"><path class="cls-28" d="M203.81,231.54a2.54,2.54,0,0,0,2.41-2.64v-7.15a2.42,2.42,0,1,0-4.82,0v7.15A2.54,2.54,0,0,0,203.81,231.54Z"/></g><g class="cls-27"><path class="cls-28" d="M240.95,231.54a2.54,2.54,0,0,0,2.41-2.64v-7.15a2.42,2.42,0,1,0-4.82,0v7.15A2.54,2.54,0,0,0,240.95,231.54Z"/></g></g><g class="cls-25"><rect x="207.67" y="219.1" width="29.42" height="12.44" rx="2.64" ry="2.64"/></g><circle class="cls-25" cx="251.8" cy="222.89" r="6.44"/><circle class="cls-29" cx="251.8" cy="222.89" r="5.86"/><polygon class="cls-25" points="250.89 226.74 250.89 223.79 247.95 223.79 247.95 221.99 250.89 221.99 250.89 219.04 252.7 219.04 252.7 221.99 255.65 221.99 255.65 223.79 252.7 223.79 252.7 226.74 250.89 226.74"/><path class="cls-2" d="M202.4,186a13.22,13.22,0,0,1-1.51-.09c-14.54-1.63-24.82-26.91-27.19-43.49a2.46,2.46,0,1,1,4.87-.7c2.52,17.66,12.53,38.14,22.86,39.3,7.15.8,14.38-7.84,20.92-25a2.46,2.46,0,0,1,4.6,1.76C219.82,176.49,211.56,186,202.4,186Z"/><path class="cls-23" d="M206.09,174.63h0l4.56-2.29,2.28-1.14,1.13-.57.92-.43,7.32-3.49,1.82-.89.11-.05-3.62-9.3-1.94-5c-1.79-4.47,11.22,27.71,5.78,14.18l0,0,.16-.07.65-.26,1-.4.62-.25.15-.06h0l-.23-.66-.94-2.67c-.94-2.57-1.79-5-2.62-7.53l-1-3.14-.9-2.83-.79-2.6-.66-2.23-.58-2.16q-.26-.9-.48-1.81a46.6,46.6,0,0,1-1.64-10.25,11.48,11.48,0,0,1,.21-2.59,3.54,3.54,0,0,1,.32-1A5.55,5.55,0,0,1,216,126.4a25.88,25.88,0,0,1-7,2.09c-.39.07-.78.13-1.18.19l-.59.07-.67.1c-.91.14-1.82.24-2.72.3l-.68,0-.77.07-1.55.12c-1,.07-2,.09-3.13.12s-2.33.08-3.49.09-2.23,0-3.6-.11-2.58-.23-3.87-.39a13.1,13.1,0,0,0-4-.26l-4.32.38-.54,0c-.16,0-.43,0-.36.06v.33c0,.66.06-.86,0-.69v.16l-.06,1.69-.11,3.38-.19,6.76,0,1.6v1.33l0,2.66-.1,21.24c-.05,28.06.07,55.9.17,83.81h0l0,.52,0,.26v.13l0,.28q.06,1.15.18,2.28.24,2.26.7,4.46a44.9,44.9,0,0,0,85.35,8,44.59,44.59,0,0,0,3.24-12.87q.11-1.13.16-2.28v-1.2h0c-.1-27.77-.22-55.62-.17-83.24l.1-20.52V143.6l0-1,.08-3.68,0-1.84v-.78a17.64,17.64,0,0,0-2-.19l-15.14-1.31-7.57-.66-3.79-.34c-8.31-.51,55.33,3,28.55,1.49v-.16l0-.32,0-.65.07-1.47.05-1.88c0-1.24,0-2.32,0-3.49a62.67,62.67,0,0,0-.93-9.1l-.26-1.39c-.08-.45-.23-1.08-.36-1.61l-.42-1.66c-.15-.57-.27-1-.49-1.75-.41-1.33-.86-2.62-1.36-3.93-.62-1.55-1.3-3.09-2.05-4.58a55.14,55.14,0,0,0-3-5.15q-1-1.44-2-2.81L255.28,94c-.36-.44-.74-.89-1.19-1.38-.86-1-1.77-1.89-2.7-2.78-.47-.45-.93-.88-1.43-1.31s-1-.89-1.57-1.31a47.3,47.3,0,0,0-6.77-4.59,48.23,48.23,0,0,0-7.18-3.3c-1.26-.47-2.3-.78-3.45-1.11s-2.29-.61-3.38-.84-2-.38-3-.53-2.07-.28-2.88-.34c-1.7-.15-3.63-.22-5-.19A55.48,55.48,0,0,0,203.84,78,80.06,80.06,0,0,0,193,81.58l-1.42.57c-.4.17-.69.27-1.23.52L187.42,84l-11.57,5.41-1.44.69-1.2.6-2.39,1.2L166,94.3h0l-.47.25-.23.14-.11.07-.25.14q-1,.58-2,1.2-2,1.24-3.77,2.65a42.87,42.87,0,0,0-6.48,6.2,45.16,45.16,0,0,0-8.44,15.11,44.3,44.3,0,0,0,2.78,34.25,45.2,45.2,0,0,0,26.16,22.23,44.73,44.73,0,0,0,17,2.13,46.23,46.23,0,0,0,8.56-1.39,42.58,42.58,0,0,0,4.2-1.34q1-.39,2.07-.84l.25-.11.12,0,.24-.1Z"/><path class="cls-24" d="M180.18,251.57c0,.36,0,.58.06,1,0,.72.09,1.43.17,2.13a41.91,41.91,0,0,0,83.39-.36q.1-1.06.15-2.13c0-.46.05-.69,0-1-.1-27.78-.22-55.62-.17-83.26l.1-20.55v-3.84l0-1,.08-3.78,0-1.89V136l-14.21-1.24-7.57-.66-3.78-.34c-7.67-.47,49.78,2.63,25.62,1.31V135l0-.33,0-.65.07-1.42.05-1.8c0-1.18,0-2.22,0-3.34a59.88,59.88,0,0,0-.89-8.67l-.25-1.32c-.08-.42-.22-1-.34-1.53l-.39-1.57c-.14-.54-.26-1-.47-1.66-.39-1.25-.81-2.47-1.28-3.71-.59-1.46-1.23-2.91-1.94-4.32a52.36,52.36,0,0,0-2.84-4.85c-.61-.9-1.25-1.78-1.91-2.64l-1-1.28c-.33-.41-.7-.83-1.12-1.3q-1.22-1.35-2.53-2.61c-.44-.42-.88-.82-1.34-1.23s-1-.83-1.47-1.23a44.58,44.58,0,0,0-6.36-4.31,45.64,45.64,0,0,0-6.75-3.1c-1.19-.44-2.16-.74-3.24-1s-2.16-.57-3.18-.79-1.9-.36-2.85-.5-1.95-.26-2.71-.32c-1.61-.14-3.42-.21-4.7-.18a52.88,52.88,0,0,0-12.2,1.58,77,77,0,0,0-10.48,3.48l-1.41.57c-.4.17-.69.27-1.22.52l-2.87,1.32-11.43,5.35-1.43.68-1.2.6-2.38,1.19L167.36,97h0c-.33.16-.52.28-.93.53q-1,.54-1.87,1.12-1.83,1.16-3.51,2.47a40.91,40.91,0,0,0-6.06,5.78A42.15,42.15,0,0,0,147.12,121a41.39,41.39,0,0,0,2.58,32A42.21,42.21,0,0,0,190,175.73a42.68,42.68,0,0,0,8-1.29,40.75,40.75,0,0,0,3.93-1.26c.65-.25,1.29-.51,1.93-.79.42-.17.62-.25.94-.41l6.28-3.15,1.58-.79,1.44-.67,3.19-1.51,3.61-1.73,2-1,.25-.12.06,0s.05.07,0-.1l-1.06-2.7L220,154.81l-1.06-2.71c-4.88-12.11,5.36,13.2,4.42,10.84l.72-.29,1.15-.47.72-.28.16-.06h0l-.21-.61-1.56-4.38-2.57-7.72-1-3.3q-.42-1.31-.79-2.65l-.69-2.55q-.3-1.08-.56-2.18l-.25-1.11-.22-.91c-.14-.61-.26-1.22-.36-1.83l-.28-1.59c-.09-.48-.13-1.08-.2-1.5-.13-.82-.15-1.8-.2-2.42a12.38,12.38,0,0,1,.25-3.14,4.11,4.11,0,0,1,.28-.78,1.85,1.85,0,0,1-.31.3,3,3,0,0,1-.37.3l-.5.33c-1.52.94-4.57,2-9,2.61a92.75,92.75,0,0,1-16.78.79q-2.63-.19-5.24-.57l-1.3-.2c-.47,0-1,.08-1.46.11l-1.47.13-.74.06c-.1,0,0,.07-.05.11l0,.45v.28c.1-1.34,0-.33,0-.61v.14l0,1.15q-.07,2.3-.15,4.64t-.13,4.72q0,1.19-.06,2.38v1.92q0,3.85,0,7.78c0,5.22,0,10.51-.07,15.81,0,21,.05,41.92.07,57.64S180.18,251.57,180.18,251.57Z"/><path class="cls-9" d="M183.15,251.56a9,9,0,0,0,.05.91c0,.64.09,1.32.16,2q.21,2,.61,3.87a38.95,38.95,0,0,0,76.88-4.21c.06-.65.11-1.33.14-2a8.12,8.12,0,0,0,0-.9c-.1-27.78-.22-55.63-.17-83.28l.1-20.57,0-2.57v-1.28l0-1,.09-3.88,0-1.94v-.88l-3.65-.32-7.57-.66-7.57-.66-3.79-.34c-7-.43,44.11,2.27,22.63,1.12v-.16l0-.32,0-.65.06-1.36.05-1.72c0-1.13,0-2.13,0-3.2a57,57,0,0,0-.85-8.24l-.23-1.25c-.08-.4-.21-1-.32-1.44l-.37-1.48c-.14-.51-.24-.93-.44-1.56-.37-1.18-.76-2.33-1.21-3.49-.55-1.37-1.16-2.73-1.82-4.05a50,50,0,0,0-2.66-4.54q-.86-1.26-1.79-2.48l-1-1.19c-.32-.39-.65-.78-1-1.22-.76-.84-1.55-1.66-2.37-2.44-.41-.39-.82-.78-1.25-1.16s-.91-.78-1.38-1.15a42.94,42.94,0,0,0-12.26-6.93c-1.11-.42-2-.69-3-1s-2-.54-3-.74-1.78-.34-2.67-.47-1.83-.24-2.54-.3c-1.51-.13-3.21-.2-4.42-.17a49.73,49.73,0,0,0-11.52,1.49,74.69,74.69,0,0,0-10.09,3.35l-1.39.56c-.4.17-.7.27-1.22.52l-2.83,1.31-11.29,5.29-1.41.67-1.2.6-2.38,1.19-4.76,2.39h0a9.2,9.2,0,0,0-.8.46c-.57.32-1.16.68-1.73,1A38.38,38.38,0,0,0,150,121.88a38.49,38.49,0,0,0,2.38,29.72,39.18,39.18,0,0,0,37.42,21.17,37.86,37.86,0,0,0,7.43-1.19,36.7,36.7,0,0,0,3.65-1.17c.6-.22,1.21-.48,1.79-.73a7.6,7.6,0,0,0,.82-.35L208,167l2.29-1.15,1.14-.57,1-.45,7.6-3.62,1.9-.92.12-.06.06,0c.12.28,0-.18-.48-1.27l-1-2.49-1.94-5c-1.31-3.27,7,17.29,3.55,8.68l0,0,.16-.06.64-.26,1-.42,1-.4h0l-.53-1.51-1.27-3.75-1-3.14-.9-2.83-.79-2.6-.66-2.23-.58-2.16q-.26-.9-.48-1.81a46.6,46.6,0,0,1-1.64-10.25,11.48,11.48,0,0,1,.21-2.59,3.54,3.54,0,0,1,.32-1A5.55,5.55,0,0,1,216,126.4a25.88,25.88,0,0,1-7,2.09c-.39.07-.78.13-1.18.19l-.59.07-.67.1c-.91.14-1.82.24-2.72.3l-.68,0-.77.07-1.55.12c-1,.07-2,.09-3.13.12s-2.33.08-3.49.09-2.23,0-3.6-.11-2.58-.23-3.87-.39l-1.92-.28a3,3,0,0,0-1-.07l-.27,0c-.07,0,0,0,0,0v.08l0,.65,0,.32V130c0,.58.05-.75,0-.59v.15l-.06,1.64-.11,3.28-.18,6.55,0,1.56v4l-.1,21.19C182.92,195.82,183,223.66,183.15,251.56Z"/><path class="cls-10" d="M186.11,251.55a7.77,7.77,0,0,0,.05.84l.06.82.09.91q.2,1.82.56,3.57a36,36,0,0,0,60.77,17.9,36.1,36.1,0,0,0,7.66-11.46,35.81,35.81,0,0,0,2.6-10.32l.08-.91.05-.82a7.71,7.71,0,0,0,0-.84c-.1-27.79-.22-55.63-.17-83.3l.1-20.59V143.5l0-1.06.09-4,0-2v-.9c-.31,0,.69,0-.69-.09l-7.57-.66-7.57-.66-3.79-.34c-6.37-.39,38.5,1.92,19.67.93v-.16l0-.33,0-.65.06-1.31,0-1.63c0-1.08,0-2,0-3.06a54.06,54.06,0,0,0-.8-7.8,44.21,44.21,0,0,0-4.11-12.45A47.59,47.59,0,0,0,251,103.1a43,43,0,0,0-3.54-4.55c-.71-.78-1.45-1.54-2.21-2.27s-1.56-1.44-2.45-2.15a38.76,38.76,0,0,0-5.53-3.75,39.41,39.41,0,0,0-5.88-2.7c-1-.39-1.88-.64-2.82-.91s-1.88-.5-2.78-.69-1.66-.31-2.49-.43-1.7-.23-2.37-.28a41.22,41.22,0,0,0-4.13-.16A46.81,46.81,0,0,0,206,86.62a72.14,72.14,0,0,0-9.7,3.23l-1.38.56c-.4.17-.71.28-1.22.52l-2.79,1.29-11.15,5.22-1.39.66-1.19.6-2.38,1.19L170,102.27h0a7.77,7.77,0,0,0-.74.42l-.72.42-.79.49q-1.57,1-3,2.12a36.44,36.44,0,0,0-5.2,5,36,36,0,0,0,30,59.14,35,35,0,0,0,6.88-1.1q1.7-.46,3.38-1.09l.83-.33.75-.31a7.57,7.57,0,0,0,.76-.32l4.58-2.3,2.29-1.15,1.14-.57,1-.45,7.74-3.68,1.93-.93.12-.06.06,0h0s.09.16-.37-1l-1.94-5c-1.07-2.67,4.91,12.08,2.44,5.93l0,0,.16-.06.64-.26,1-.42,1.13-.44h0l0-.11-.16-.47-.63-1.88-1-3.14-.9-2.83-.79-2.6-.66-2.23-.58-2.16q-.26-.9-.48-1.81a46.6,46.6,0,0,1-1.64-10.25,11.48,11.48,0,0,1,.21-2.59,3.54,3.54,0,0,1,.32-1A5.55,5.55,0,0,1,216,126.4a25.88,25.88,0,0,1-7,2.09c-.39.07-.78.13-1.18.19l-.59.07-.67.1c-.91.14-1.82.24-2.72.3l-.68,0-.77.07-1.55.12c-1,.07-2,.09-3.13.12s-2.33.08-3.49.09-2.23,0-3.6-.11-2.58-.23-3.87-.39l-.24,0c-.08,0,0,0,0,0v-.12c0-.12,0,.07,0,.16l0,.65,0,.33v.16c0,.54,0-.68,0-.54v.15l-.05,1.61-.11,3.23-.18,6.45,0,1.55V144l0,2.65-.1,21.17C185.89,195.82,186,223.65,186.11,251.55Z"/><path class="cls-11" d="M189.08,251.54c0,.26,0,.51,0,.77l.14,1.5a33,33,0,0,0,65.2,3,32.23,32.23,0,0,0,.48-3.27l.12-1.5a6.57,6.57,0,0,0,0-.77c-.1-27.79-.22-55.64-.17-83.32l.1-20.62v-3.86l0-1.08.09-4.09,0-2v-1c.12,0,.21,0-1.55-.15l-3.78-.33-7.57-.66-3.78-.34c-5.74-.35,33,1.57,16.73.75v-.16l0-.33,0-.65.06-1.26,0-1.55c0-1,0-1.94,0-2.91a50.85,50.85,0,0,0-.76-7.38,41.28,41.28,0,0,0-3.84-11.63,43.15,43.15,0,0,0-2.3-3.94,39.8,39.8,0,0,0-3.28-4.22q-1-1.09-2-2.1c-.69-.67-1.45-1.33-2.27-2A36.11,36.11,0,0,0,235.81,93a36.7,36.7,0,0,0-5.44-2.5c-1-.36-1.74-.59-2.62-.84s-1.74-.46-2.57-.64-1.54-.29-2.31-.4-1.58-.21-2.21-.26c-1.31-.11-2.78-.17-3.84-.15a43.91,43.91,0,0,0-10.15,1.33,68.61,68.61,0,0,0-9.3,3.1l-1.36.55c-.4.17-.72.28-1.22.52L192,94.95l-11,5.16-1.37.65-1.19.6-2.37,1.19-4.74,2.38h0a6.61,6.61,0,0,0-.68.39l-1.3.8q-1.44.91-2.75,1.94a33.46,33.46,0,0,0-4.76,4.54,32.86,32.86,0,0,0-4.22,36.29,33.11,33.11,0,0,0,19.21,16.39,33.56,33.56,0,0,0,12.48,1.59,32,32,0,0,0,9.42-2l1.37-.55a6.59,6.59,0,0,0,.69-.3l4.59-2.3,2.29-1.15,1.14-.57,1-.46,7.88-3.75,2-.95c.28-.15.78-.34,1.18-.5l1.06-.43,1.24-.48.06,0c-.59-1.82-1.26-3.73-1.83-5.61l-.79-2.6-.66-2.23-.58-2.16c-.17-.6-.33-1.21-.48-1.81a46.65,46.65,0,0,1-1.64-10.25,11.5,11.5,0,0,1,.21-2.59,3.59,3.59,0,0,1,.32-1A5.55,5.55,0,0,1,216,126.4a25.81,25.81,0,0,1-7,2.09c-.39.07-.78.13-1.17.19l-.59.07-.67.1c-.91.14-1.82.24-2.72.3l-.68,0-.77.07-1.55.12c-1,.07-2,.09-3.13.12s-2.33.08-3.49.09-2.23,0-3.59-.11l-1-.08-.22,0h0v-.15s0-.31,0,0l0,.65,0,.32v.16c0,.49,0-.63,0-.49V130l-.05,1.59-.1,3.17-.17,6.35,0,1.53V144l0,2.65-.1,21.14C188.86,195.81,189,223.65,189.08,251.54Z"/><path class="cls-12" d="M192,251.53a34.67,34.67,0,0,0,.63,4.94,29.75,29.75,0,0,0,1.78,5.64,30.06,30.06,0,0,0,57.09-5.9,35,35,0,0,0,.59-4.94c-.1-27.8-.22-55.64-.17-83.34l.1-20.64,0-2.57c0-.86,0-1.76,0-2.39l.09-4.19,0-2.1v-1c.53,0-1.13-.11-2.38-.22l-7.57-.66-3.78-.34c-5.09-.31,27.34,1.22,13.77.56v-.16l0-.32,0-.65.05-1.2,0-1.47c0-1,0-1.84,0-2.77a48,48,0,0,0-.71-6.95A38.42,38.42,0,0,0,248.18,110a41.41,41.41,0,0,0-2.13-3.64,37.17,37.17,0,0,0-3-3.89,34.08,34.08,0,0,0-4-3.76,34,34,0,0,0-9.72-5.49c-.88-.33-1.61-.55-2.41-.78s-1.6-.42-2.37-.59-1.42-.26-2.13-.37-1.46-.2-2-.24c-1.21-.1-2.57-.16-3.55-.13a41.05,41.05,0,0,0-9.47,1.24,66.87,66.87,0,0,0-8.91,3l-1.35.55c-.4.17-.73.28-1.22.52l-2.72,1.26-10.86,5.09-1.35.64-1.19.59-2.37,1.19-4.74,2.38h0a35.56,35.56,0,0,0-4.21,2.8,30.43,30.43,0,0,0-4.33,4.13,29.38,29.38,0,0,0-5.67,10.1,29.79,29.79,0,0,0,1.81,22.93,30.11,30.11,0,0,0,17.48,14.93,30.82,30.82,0,0,0,11.36,1.46,29.08,29.08,0,0,0,5.75-.93,33.62,33.62,0,0,0,4.63-1.63l4.59-2.3,2.3-1.15,1.14-.57,1-.47,8-3.81,2-1c.29-.15.78-.34,1.18-.5l1.07-.43,1.35-.52.11,0h0l-.89-2.8-.79-2.6-.66-2.23-.58-2.16c-.17-.6-.33-1.21-.48-1.81a46.65,46.65,0,0,1-1.64-10.25,11.5,11.5,0,0,1,.21-2.59,3.59,3.59,0,0,1,.32-1A5.55,5.55,0,0,1,216,126.4a25.81,25.81,0,0,1-7,2.09c-.39.07-.78.13-1.17.19l-.59.07-.67.1c-.91.14-1.82.24-2.72.3l-.68,0-.77.07-1.55.12c-1,.07-2,.09-3.13.12s-2.33.08-3.49.09l-1.74,0h-.08v0a1,1,0,0,1,0-.17s0-.24,0,.1l0,.65,0,.32v.16c0,.45,0-.57,0-.45v.15l-.05,1.56-.1,3.12-.17,6.25c0,1.11,0,1.95,0,2.83l0,2.65-.1,21.12C191.83,195.8,191.95,223.64,192,251.53Z"/><path class="cls-13" d="M195,251.51a5.42,5.42,0,0,0,0,.63l0,.34.06.69c.1.91.24,1.81.42,2.69a26.77,26.77,0,0,0,1.6,5.08,27.1,27.1,0,0,0,49.9-.23,26.72,26.72,0,0,0,1.56-5.09,27,27,0,0,0,.4-2.69l.06-.68,0-.34a6.27,6.27,0,0,0,0-.63c-.1-27.8-.22-55.65-.17-83.36l.1-20.66v-2.58c0-.86,0-1.76,0-2.41l.1-4.29,0-2.15v-1.07l.11-1.72.05-1.15,0-1.39c0-.92,0-1.75,0-2.62a45.23,45.23,0,0,0-.66-6.52,35.56,35.56,0,0,0-3.29-10c-.58-1.12-1.24-2.25-1.95-3.33a34.07,34.07,0,0,0-2.76-3.55,31.07,31.07,0,0,0-7.92-6.35,30.75,30.75,0,0,0-4.57-2.1c-.8-.3-1.47-.5-2.2-.71s-1.46-.39-2.17-.54a33.43,33.43,0,0,0-7.09-.68,38,38,0,0,0-8.79,1.15,63.11,63.11,0,0,0-8.52,2.85l-1.33.54c-.4.17-.74.29-1.22.52l-2.68,1.25-10.73,5-1.34.63-1.19.6-2.37,1.19L174,110.24h0a6.19,6.19,0,0,0-.55.32l-.29.19-.59.37q-1.17.75-2.25,1.59a27.44,27.44,0,0,0-3.89,3.72,26.37,26.37,0,0,0-5.12,9.1,27.08,27.08,0,0,0,17.37,34.13A28,28,0,0,0,188.88,161a26.59,26.59,0,0,0,5.19-.84c.86-.23,1.71-.5,2.55-.82l.63-.25.32-.11a5,5,0,0,0,.57-.25l4.6-2.31,2.3-1.16,1.15-.57,1-.48,8.16-3.87,2-1c.3-.16.78-.34,1.18-.51l1.08-.44,1.46-.56.21-.07-.78-2.57-.66-2.23-.58-2.16c-.17-.6-.33-1.21-.48-1.81a46.65,46.65,0,0,1-1.64-10.25,11.5,11.5,0,0,1,.21-2.59,3.59,3.59,0,0,1,.32-1A5.55,5.55,0,0,1,216,126.4a25.81,25.81,0,0,1-7,2.09c-.39.07-.78.13-1.17.19l-.59.07-.67.1c-.91.14-1.82.24-2.72.3l-.68,0-.77.07-1.55.12c-1,.07-2,.09-3.13.12s-2.87.09-2.35.08c0,0,0,0,0,0a.46.46,0,0,1,0-.09s0-.17,0,.15l0,.65,0,.33v.16c0,.41,0-.51,0-.4v.15l-.05,1.53-.09,3.07-.17,6.15c0,1.08,0,1.93,0,2.81l0,2.64-.1,21.1C194.79,195.79,194.91,223.63,195,251.51Z"/><path class="cls-14" d="M198,251.5c0,.19,0,.38,0,.56s.05.29.1.79a24.11,24.11,0,0,0,48-.21c0-.5.07-.6.09-.79a5,5,0,0,0,0-.56c-.1-27.81-.22-55.65-.17-83.38l.1-20.69v-2.58c0-.86,0-1.76,0-2.43l.1-4.39,0-2.2,0-1.1.11-1.67a46.52,46.52,0,0,0-.55-11,32.69,32.69,0,0,0-3-9.16c-.53-1-1.13-2-1.77-3a31.2,31.2,0,0,0-2.5-3.22,28,28,0,0,0-7.17-5.74,27.68,27.68,0,0,0-4.13-1.9c-.72-.27-1.33-.45-2-.64s-1.33-.35-2-.49a30.51,30.51,0,0,0-6.46-.62,35,35,0,0,0-8.11,1.07,60.59,60.59,0,0,0-8.13,2.72l-1.32.53c-.4.17-.75.29-1.22.52l-2.65,1.23-10.59,5-1.32.62-1.19.59L180,110.52l-4.73,2.37h0a4.69,4.69,0,0,0-.49.28c-.17.11-.24.18-.68.44-.69.44-1.36.92-2,1.41a24.19,24.19,0,0,0-3.46,3.31,23.62,23.62,0,0,0-4.57,8.09,24.11,24.11,0,0,0,15.45,30.4,24.66,24.66,0,0,0,9.12,1.19,23.6,23.6,0,0,0,6.91-1.48c.46-.18.56-.2.74-.27a5.39,5.39,0,0,0,.51-.22l4.61-2.31,2.3-1.16,1.15-.57,1-.49,8.3-3.94,2.07-1c.31-.16.78-.34,1.19-.51l1.1-.44,1.56-.6.32-.11h0l-.08-.28-.17-.55-.32-1.12-.58-2.16q-.26-.9-.48-1.81a46.65,46.65,0,0,1-1.64-10.25,11.5,11.5,0,0,1,.21-2.59,3.54,3.54,0,0,1,.32-1A5.55,5.55,0,0,1,216,126.4a25.85,25.85,0,0,1-7,2.09c-.39.07-.78.13-1.18.19l-.58.07-.67.1q-1.36.2-2.72.3l-.68,0-.77.07-1.55.12-1.55.07-.78,0h-.18a.7.7,0,0,0,0,.14h0s0-.11,0,.21l0,.65,0,.32V131c0,.36,0-.45,0-.35v.14l0,1.51-.09,3-.16,6c0,1.06,0,1.91,0,2.79v2.64l-.1,21.07C197.76,195.78,197.88,223.62,198,251.5Z"/><path class="cls-15" d="M200.95,251.49a6.1,6.1,0,0,0,.12,1.05,21.11,21.11,0,0,0,1.58,6.06,21.15,21.15,0,0,0,40.49-6.25,6,6,0,0,0,.1-1c-.1-27.81-.22-55.65-.17-83.39l.1-20.72,0-2.58c0-.86,0-1.75,0-2.46l.11-4.49,0-2.25,0-1.13.1-1.63A43.64,43.64,0,0,0,243,122.4a29.56,29.56,0,0,0-2.74-8.34c-.47-.92-1-1.84-1.59-2.73a28,28,0,0,0-2.24-2.89,25,25,0,0,0-6.41-5.14,24.51,24.51,0,0,0-3.7-1.7,27.29,27.29,0,0,0-3.55-1,27.59,27.59,0,0,0-5.82-.56,32.2,32.2,0,0,0-7.43,1,57.64,57.64,0,0,0-7.73,2.6l-1.31.53c-.4.17-.76.29-1.21.52l-2.62,1.22-10.44,4.91-1.3.62-1.19.59-2.36,1.18-4.72,2.37h0a4.11,4.11,0,0,0-.43.25l-.47.32a21.29,21.29,0,0,0-1.75,1.24,21.62,21.62,0,0,0-3,2.9,21.21,21.21,0,0,0,17.52,34.81,20.51,20.51,0,0,0,6.06-1.3,6,6,0,0,0,1-.37l4.61-2.31,2.31-1.16,1.15-.58,1.06-.5,8.44-4,2.11-1c.32-.17.79-.34,1.19-.51l1.11-.45c.68-.27,1.26-.5,1.67-.64l.43-.15.08,0h0l-.06-.24-.28-1q-.26-.9-.48-1.81a46.6,46.6,0,0,1-1.64-10.25,11.48,11.48,0,0,1,.21-2.59,3.54,3.54,0,0,1,.32-1A5.55,5.55,0,0,1,216,126.4a25.88,25.88,0,0,1-7,2.09c-.39.07-.78.13-1.18.19l-.59.07-.67.1c-.91.14-1.82.24-2.72.3l-.68,0-.77.07-.78.06-.32,0h0s0,0,0,0V130l0,.65,0,.32v.16c0,.32,0-.39,0-.3V131l0,1.49-.09,3-.16,5.94c0,1,0,1.89,0,2.77l0,2.63-.1,21C200.72,195.77,200.85,223.61,200.95,251.49Z"/><path class="cls-16" d="M203.91,251.47a3.85,3.85,0,0,0,.1.84,3.3,3.3,0,0,1,.05.36l.07.45c0,.3.1.6.16.89a18.18,18.18,0,0,0,35.62-.15c.06-.3.11-.59.16-.9l.06-.45a3,3,0,0,1,.05-.36,3.94,3.94,0,0,0,.09-.84c-.1-27.81-.22-55.66-.17-83.41l.1-20.74v-2.59c0-.86,0-1.75,0-2.48l.11-4.6,0-2.3,0-1.15.1-1.58a40.67,40.67,0,0,0-.46-9.55,26.78,26.78,0,0,0-2.46-7.52c-.42-.81-.9-1.63-1.42-2.42a25.23,25.23,0,0,0-2-2.55,22.27,22.27,0,0,0-8.91-6A23.14,23.14,0,0,0,217,103a29.34,29.34,0,0,0-6.75.89,55.09,55.09,0,0,0-7.34,2.47l-1.29.52c-.4.17-.76.3-1.21.52l-2.58,1.2-10.31,4.84-1.29.61-1.18.59-2.35,1.18L178,118.2h0a3.72,3.72,0,0,0-.72.46,3.63,3.63,0,0,1-.31.21l-.38.26-.74.55a18.24,18.24,0,0,0-6.05,8.58,18,18,0,0,0,1.06,13.88,18.37,18.37,0,0,0,17.44,10,17.59,17.59,0,0,0,3.5-.57l.86-.26.43-.15.35-.12a3.63,3.63,0,0,0,.79-.29l4.62-2.32,2.31-1.16,1.15-.58,1.08-.51,8.58-4.06,2.14-1c.33-.17.79-.34,1.19-.51l1.13-.45c.7-.28,1.31-.52,1.78-.68l.55-.18.15,0,0,0h0l-.05-.22a46.6,46.6,0,0,1-1.64-10.25,11.48,11.48,0,0,1,.21-2.59,3.54,3.54,0,0,1,.32-1A5.55,5.55,0,0,1,216,126.4a25.88,25.88,0,0,1-7,2.09c-.39.07-.78.13-1.18.19l-.59.07-.67.1-1.36.18-.68.07-.27,0h0s0,.11,0,.18v.58a1.4,1.4,0,0,1,0,.32l0,.65,0,.33v.16c0,.28,0-.33,0-.25v.14l0,1.46-.09,2.92-.15,5.84c0,1,0,1.87,0,2.74l0,2.63-.1,21C203.69,195.76,203.81,223.61,203.91,251.47Z"/><path class="cls-17" d="M192.86,148.09l4.63-2.32,2.32-1.16L201,144l1.09-.52,8.72-4.12,2.18-1c.34-.18.79-.34,1.19-.51l1.14-.46a27.21,27.21,0,0,1,2.92-1h0l-.14-.64c-.1-.5-.19-1-.27-1.51s-.16-.83-.23-1.25-.11-.86-.16-1.26-.1-.69-.13-1l-.06-1q0-.42,0-.86a11.48,11.48,0,0,1,.21-2.59,3.54,3.54,0,0,1,.32-1A5.55,5.55,0,0,1,216,126.4a25.88,25.88,0,0,1-7,2.09c-.39.07-.78.13-1.18.19l-.59.07c-.07,0,0,0,0,0a.29.29,0,0,0,0,.07l0,.36v.8a3.21,3.21,0,0,1,0,.37l0,.65,0,.32v.16c0,.23,0-.28,0-.21v.13l0,1.44-.08,2.87-.15,5.74c0,1,0,1.85,0,2.72l0,2.63-.1,21c-.05,27.92.07,55.75.17,83.62a17.32,17.32,0,0,0,1.22,4.81,15.22,15.22,0,0,0,28-.12,17.34,17.34,0,0,0,1.17-4.81c-.1-27.82-.22-55.66-.17-83.43l.1-20.76,0-2.59c0-.86,0-1.75,0-2.5l.11-4.7.05-2.35,0-1.17.09-1.54a38,38,0,0,0-.42-8.84,23.8,23.8,0,0,0-2.19-6.7c-.37-.71-.79-1.43-1.24-2.12a22.08,22.08,0,0,0-1.73-2.22,19.18,19.18,0,0,0-4.89-3.92,18.51,18.51,0,0,0-2.83-1.3,20.52,20.52,0,0,0-2.73-.78A21.64,21.64,0,0,0,217,106a26.46,26.46,0,0,0-6.07.81,52.62,52.62,0,0,0-6.95,2.34l-1.28.52c-.4.17-.77.3-1.21.52l-2.54,1.19-10.16,4.78-1.27.6-1.18.59L184,118.5l-4.7,2.36a13.92,13.92,0,0,0-1.63,1.16,15.29,15.29,0,0,0-5.06,7.18,15,15,0,0,0,.87,11.6,15.34,15.34,0,0,0,14.59,8.36A17.08,17.08,0,0,0,192.86,148.09Z"/><path class="cls-18" d="M192.17,146.71l4.63-2.33,2.32-1.16,1.16-.58,1.1-.52,8.8-4.16,2.2-1c.74-.35,1.64-.68,2.34-1a28.15,28.15,0,0,1,3.12-1.12l.09,0h0l-.11-.64c-.09-.41-.16-.83-.23-1.25s-.11-.86-.16-1.26-.1-.69-.13-1l-.06-1q0-.42,0-.86a11.48,11.48,0,0,1,.21-2.59,3.54,3.54,0,0,1,.32-1A5.55,5.55,0,0,1,216,126.4a25.88,25.88,0,0,1-7,2.09l-.28.05h0s0,0,0,0a.65.65,0,0,0,0,.13l0,.46v.92a3.8,3.8,0,0,1,0,.4l0,.65,0,.32v.16c0,.21,0-.25,0-.18v.13l0,1.42-.08,2.84-.15,5.69c0,1,0,1.84,0,2.71l0,2.63-.1,21c-.05,27.91.07,55.75.17,83.61a2.91,2.91,0,0,0,.08.63l.09.34.12.67a13.69,13.69,0,0,0,26,2.45,13.53,13.53,0,0,0,.79-2.57l.11-.67.09-.34a3,3,0,0,0,.07-.63c-.1-27.82-.22-55.66-.17-83.44l.1-20.77v-2.6c0-.86,0-1.75,0-2.51l.12-4.75.05-2.37,0-1.19.09-1.51a36.06,36.06,0,0,0-.4-8.47,22.2,22.2,0,0,0-2-6.27c-.34-.66-.73-1.32-1.15-2a20.73,20.73,0,0,0-1.59-2,17.63,17.63,0,0,0-4.5-3.61,17,17,0,0,0-2.6-1.2,20.06,20.06,0,0,0-2.52-.72,20.31,20.31,0,0,0-4.22-.4,24.88,24.88,0,0,0-5.72.77,50.88,50.88,0,0,0-6.74,2.28c-.91.38-1.64.64-2.48,1l-2.53,1.18-10.09,4.75-1.26.59-1.18.59-2.35,1.18-4.7,2.36a3,3,0,0,0-.54.35l-.27.23-.55.41a13.63,13.63,0,0,0-3.78,16.88,13.77,13.77,0,0,0,13.12,7.52,13.39,13.39,0,0,0,2.64-.43l.65-.19.34-.07A2.94,2.94,0,0,0,192.17,146.71Z"/><path class="cls-19" d="M190.09,142.55c3.08-1.53,6.23-3.16,9.25-4.61l9-4.26,2.25-1.07c.76-.35,1.63-.68,2.36-1a31.32,31.32,0,0,1,3.74-1.31l.28-.06.19,0,.09,0h0s0,0,0-.11,0-.37,0-.49q0-.42,0-.86a11.48,11.48,0,0,1,.21-2.59,3.54,3.54,0,0,1,.32-1A5.55,5.55,0,0,1,216,126.4a6.79,6.79,0,0,1-1.26.56c-.25.11-.53.22-.79.31l-.41.13-.28.08s0,.07,0,.24a14.85,14.85,0,0,1,.09,3l0,.65,0,.33v.16c0,.15,0-.15,0-.1v.13l0,1.38-.08,2.77L213,141.6c0,1.86,0,3.52-.05,5.3l-.1,21c-.05,27.89.07,55.73.17,83.58a2,2,0,0,0,.19.82l0,.11.05.22.12.43a8.51,8.51,0,0,0,.31.83,9,9,0,0,0,16.63-.07q.17-.41.3-.83l.12-.43.05-.22,0-.11a2,2,0,0,0,.18-.82c-.1-27.83-.22-55.67-.17-83.47l.1-20.81c0-1.71,0-3.52,0-5.15l.12-4.91.06-2.45,0-1.23.09-1.44a32,32,0,0,0-.34-7.36,17.83,17.83,0,0,0-1.61-5c-.26-.5-.56-1-.87-1.49a16.19,16.19,0,0,0-1.19-1.53,12.94,12.94,0,0,0-3.31-2.66,13.36,13.36,0,0,0-3.79-1.42,15.28,15.28,0,0,0-3.23-.3,20.3,20.3,0,0,0-4.65.63,47.19,47.19,0,0,0-6.13,2.08c-.88.36-1.64.64-2.46,1l-2.47,1.16-9.87,4.64c-3.25,1.56-6.29,3.13-9.44,4.7a2,2,0,0,0-.66.54l-.07.09-.17.15-.33.3c-.21.21-.42.42-.61.64a9.12,9.12,0,0,0-1.71,3A9,9,0,0,0,187.64,143a8.53,8.53,0,0,0,.87-.1l.43-.08.22,0h.12A2,2,0,0,0,190.09,142.55Z"/><path class="cls-20" d="M189.75,141.86c3.08-1.53,6.22-3.16,9.26-4.61l9.05-4.27,2.26-1.07c.75-.36,1.63-.68,2.36-1a31.74,31.74,0,0,1,3.84-1.35l.31-.07.23,0,.13,0h0s0,0,0,0v-.64a11.48,11.48,0,0,1,.21-2.59,3.54,3.54,0,0,1,.32-1A5.55,5.55,0,0,1,216,126.4a6.79,6.79,0,0,1-1.26.56l-.74.29h0a2.54,2.54,0,0,1,.07.33,15.52,15.52,0,0,1,.1,3.23l0,.65,0,.33V132c0,.13,0-.14,0-.09V132l0,1.38-.08,2.75-.14,5.5c0,1.85,0,3.52-.05,5.29l-.1,20.95c-.05,27.88.07,55.73.17,83.58a1.83,1.83,0,0,0,.17.75c0,.07.06.1.09.2l.11.39c.08.26.18.51.28.76a8.32,8.32,0,0,0,1.78,2.61,8.25,8.25,0,0,0,13.42-2.68c.1-.25.19-.5.27-.76l.11-.39c0-.1.06-.13.09-.2a1.82,1.82,0,0,0,.16-.75c-.1-27.83-.22-55.67-.17-83.47l.1-20.82c0-1.71,0-3.52.05-5.15l.12-4.94.06-2.47,0-1.23.09-1.43a31.23,31.23,0,0,0-.33-7.18,16.93,16.93,0,0,0-1.54-4.77c-.25-.47-.53-.95-.82-1.41a15.52,15.52,0,0,0-1.12-1.44,12.17,12.17,0,0,0-3.12-2.5,12.57,12.57,0,0,0-3.57-1.34,14.59,14.59,0,0,0-3.06-.29,19.7,19.7,0,0,0-4.47.61,46,46,0,0,0-6,2c-.87.36-1.64.64-2.46,1l-2.46,1.16-9.83,4.63c-3.24,1.55-6.28,3.13-9.43,4.69a1.84,1.84,0,0,0-.6.49c0,.05-.07.1-.14.17l-.3.28c-.19.19-.38.39-.56.59a8.31,8.31,0,0,0-1.56,2.76,8.26,8.26,0,0,0,8.36,10.84c.27,0,.53,0,.8-.09l.4-.08H189A1.78,1.78,0,0,0,189.75,141.86Z"/><path class="cls-21" d="M189.38,141.11c3.09-1.53,6.22-3.16,9.27-4.61l9.09-4.29,2.27-1.08c.76-.36,1.63-.68,2.37-1a32.52,32.52,0,0,1,3.95-1.38,5.37,5.37,0,0,1,.62-.13l.19,0h.08c0,.07,0-.17,0-.3s0-.24,0-.36a6.54,6.54,0,0,1,0-.69l.06-.58c0-.17.06-.35.1-.52a3.54,3.54,0,0,1,.32-1A5.55,5.55,0,0,1,216,126.4a6.75,6.75,0,0,1-1.22.55.12.12,0,0,0,0,.07,3.94,3.94,0,0,1,.09.42,16.48,16.48,0,0,1,.12,3.43l0,.65,0,.32V132c0,.12,0-.12,0-.08v.13l0,1.37-.07,2.73-.14,5.47c0,1.84,0,3.52-.05,5.28l-.1,20.94c-.05,27.88.07,55.72.17,83.57a8.5,8.5,0,0,0,2.19,4.13,7.42,7.42,0,0,0,10.49,0,8.52,8.52,0,0,0,2.16-4.15c-.1-27.83-.22-55.67-.17-83.48l.1-20.82c0-1.71,0-3.51.05-5.15l.12-5,.06-2.48,0-1.24.09-1.42a30.53,30.53,0,0,0-.32-7,16.14,16.14,0,0,0-1.46-4.54A11.6,11.6,0,0,0,220,114a13.8,13.8,0,0,0-2.88-.27,18.8,18.8,0,0,0-4.28.58,45.23,45.23,0,0,0-5.92,2c-.86.35-1.63.63-2.45,1L202,118.53l-9.8,4.61c-3.23,1.55-6.28,3.13-9.42,4.69a8.59,8.59,0,0,0-2.74,3.81,7.42,7.42,0,0,0,4.7,9.38A8.48,8.48,0,0,0,189.38,141.11Z"/><path class="cls-22" d="M226.8,251.38a1.19,1.19,0,0,1-.37.83l-.09.1-.1.2c-.07.13-.15.26-.23.39a4.86,4.86,0,0,1-.57.7,4.7,4.7,0,0,1-7.23-.67,4.49,4.49,0,0,1-.24-.39l-.1-.2-.1-.1a1.21,1.21,0,0,1-.37-.83c-.1-27.85-.22-55.69-.17-83.55l.1-20.92c0-1.76,0-3.46.05-5.26l.14-5.38.07-2.69,0-1.34.07-1.23a18.66,18.66,0,0,0-.15-4.08,4.51,4.51,0,0,0-.33-1.18.17.17,0,0,1,0-.08l0,0,.26-.22.16-.15.07-.09,0,0,0-.06,0,.06a2.38,2.38,0,0,0-.13.31,3.48,3.48,0,0,0-.13.43,1.88,1.88,0,0,0-.29,0,7.11,7.11,0,0,0-1.5.23,34.7,34.7,0,0,0-4.31,1.5c-.77.32-1.62.63-2.39,1l-2.3,1.09-9.22,4.35c-3.08,1.47-6.2,3.09-9.3,4.63a1.23,1.23,0,0,1-.9,0l-.13,0h-.23l-.45,0a4.87,4.87,0,0,1-.88-.2,4.7,4.7,0,0,1-3-6,5,5,0,0,1,.37-.83c.08-.13.16-.26.24-.39l.14-.19c0-.05,0-.09,0-.13a1.21,1.21,0,0,1,.58-.7c3.14-1.56,6.2-3.15,9.4-4.68L203,121l2.42-1.13c.81-.38,1.6-.66,2.43-1a43.22,43.22,0,0,1,5.56-1.9,15.94,15.94,0,0,1,3.66-.51,9.53,9.53,0,0,1,4.86,1.17,9.08,9.08,0,0,1,3.64,3.86,13.47,13.47,0,0,1,1.21,3.79,27.76,27.76,0,0,1,.28,6.33L227,133l0,1.26-.06,2.53-.13,5.06c0,1.68,0,3.46,0,5.18l-.1,20.84C226.58,195.7,226.7,223.54,226.8,251.38Z"/></g></svg>