<svg id="Layer_1" data-name="Layer 1" xmlns="http://www.w3.org/2000/svg" xmlns:xlink="http://www.w3.org/1999/xlink" viewBox="0 0 419.33 378.33"><defs><style>.cls-1{fill:#141414;}.cls-2{fill:#121212;}.cls-3{fill:url(#linear-gradient);}.cls-4{fill:url(#linear-gradient-2);}.cls-5{fill:url(#linear-gradient-3);}.cls-6{fill:url(#linear-gradient-4);}.cls-7{fill:url(#linear-gradient-5);}.cls-8{fill:url(#linear-gradient-6);}.cls-10,.cls-11,.cls-12,.cls-13,.cls-14,.cls-15,.cls-16,.cls-17,.cls-23,.cls-24,.cls-9{fill:#ff3657;}.cls-9{opacity:0.1;}.cls-10{opacity:0.14;}.cls-11{opacity:0.18;}.cls-12{opacity:0.21;}.cls-13{opacity:0.25;}.cls-14{opacity:0.29;}.cls-15{opacity:0.33;}.cls-16{opacity:0.36;}.cls-17,.cls-19{opacity:0.4;}.cls-18{fill:#ff3c26;}.cls-18,.cls-27{opacity:0.5;}.cls-19,.cls-20{fill:#ffa850;}.cls-20,.cls-21{opacity:0.7;}.cls-21{fill:#ffa759;}.cls-22{fill:#faffe7;}.cls-23{opacity:0.03;}.cls-24{opacity:0.07;}.cls-25{opacity:0.6;}.cls-26{opacity:0.3;}.cls-28{fill:#fff;}.cls-29{fill:#232323;}</style><linearGradient id="linear-gradient" x1="-4593.46" y1="-7712.87" x2="-4593.46" y2="-7737.83" gradientTransform="matrix(-0.95, 0, 0, 0.95, -4004.07, 7573.53)" gradientUnits="userSpaceOnUse"><stop offset="0" stop-color="#141414"/><stop offset="0.34" stop-color="#111"/><stop offset="0.55" stop-color="#090909"/><stop offset="0.67"/><stop offset="0.82" stop-color="#040404"/><stop offset="0.96" stop-color="#0f0f0f"/><stop offset="1" stop-color="#141414"/></linearGradient><linearGradient id="linear-gradient-2" x1="-4593.46" y1="-7712.87" x2="-4593.46" y2="-7737.83" gradientTransform="matrix(-0.95, 0, 0, 0.95, -4004.07, 7573.53)" gradientUnits="userSpaceOnUse"><stop offset="0" stop-color="#c2c1c1"/><stop offset="0.03" stop-color="#9f9e9e"/><stop offset="0.06" stop-color="#6f6f6f"/><stop offset="0.1" stop-color="#474747"/><stop offset="0.13" stop-color="#282828"/><stop offset="0.17" stop-color="#121212"/><stop offset="0.2" stop-color="#050505"/><stop offset="0.23"/><stop offset="0.27" stop-color="#060606"/><stop offset="0.32" stop-color="#161616"/><stop offset="0.38" stop-color="#303030"/><stop offset="0.44" stop-color="#555"/><stop offset="0.51" stop-color="#858585"/><stop offset="0.57" stop-color="#bebebe"/><stop offset="0.59" stop-color="#cecece"/><stop offset="0.63" stop-color="#c9c9c9"/><stop offset="0.67" stop-color="#bbb"/><stop offset="0.72" stop-color="#a3a3a3"/><stop offset="0.77" stop-color="#828282"/><stop offset="0.82" stop-color="#575757"/><stop offset="0.87" stop-color="#242424"/><stop offset="0.9"/><stop offset="1" stop-color="#969494"/></linearGradient><linearGradient id="linear-gradient-3" x1="-4623.7" y1="-7714.66" x2="-4623.7" y2="-7736.04" xlink:href="#linear-gradient"/><linearGradient id="linear-gradient-4" x1="60.07" y1="159.96" x2="60.07" y2="136.25" gradientTransform="matrix(1, 0, 0, 1, 0, 0)" xlink:href="#linear-gradient"/><linearGradient id="linear-gradient-5" x1="60.07" y1="159.96" x2="60.07" y2="136.25" gradientTransform="matrix(1, 0, 0, 1, 0, 0)" xlink:href="#linear-gradient-2"/><linearGradient id="linear-gradient-6" x1="31.35" y1="158.26" x2="31.35" y2="137.96" gradientTransform="matrix(1, 0, 0, 1, 0, 0)" xlink:href="#linear-gradient"/></defs><title>ico2</title><rect class="cls-1" x="53.23" y="140.23" width="312.86" height="14.84"/><rect class="cls-1" x="53.23" y="228.34" width="312.87" height="14.84"/><path class="cls-2" d="M359.13,294.58c-18.42,0-42.85-10-59.29-55.27a2.7,2.7,0,1,1,5.07-1.84c19.28,53.05,49.53,54.27,65.83,50.28,25.58-6.26,44.67-30.41,43.1-42.26-.88-6.64-8.29-7.88-14.34-7.73a2.67,2.67,0,0,1-2.72-3.16,2.79,2.79,0,0,1,2.76-2.24c15.6-.3,19,7.64,19.66,12.42,2.07,15.65-19.72,41.49-47.17,48.21A54.48,54.48,0,0,1,359.13,294.58Z"/><rect class="cls-3" x="345.61" y="223.36" width="27.31" height="23.71"/><rect class="cls-4" x="352.19" y="223.36" width="14.15" height="23.71"/><polygon class="cls-5" points="372.56 245.37 403.41 243.85 403.41 226.59 372.56 225.07 372.56 245.37"/><path class="cls-2" d="M60.2,207.47a54.25,54.25,0,0,1-12.9-1.59C19.86,199.16-1.94,173.33.14,157.67c.63-4.79,4-12.77,19.82-12.41A2.7,2.7,0,0,1,22.59,148a2.66,2.66,0,0,1-2.76,2.63c-6-.14-13.47,1.09-14.34,7.73-1.57,11.85,17.52,36,43.1,42.26,16.31,4,46.56,2.77,65.83-50.28a2.7,2.7,0,0,1,5.07,1.84C103,197.44,78.61,207.47,60.2,207.47Z"/><rect class="cls-6" x="46.42" y="136.25" width="27.31" height="23.71"/><rect class="cls-7" x="53" y="136.25" width="14.15" height="23.71"/><polygon class="cls-8" points="46.78 158.26 15.91 156.74 15.91 139.47 46.78 137.96 46.78 158.26"/><path class="cls-9" d="M362.24,209.84a.17.17,0,0,0,.11,0,.6.6,0,0,0,.19,0,1.93,1.93,0,0,0,.54-.07c.21-.05.47-.13.76-.23l.48-.16c0-.08.29.07.5.15l.64.27a28.56,28.56,0,0,0,37.19-37.19l-.27-.64a2,2,0,0,0-.43-.71q-.69-.85-1.44-1.7-1.49-1.7-3.18-3.38T393.79,163c-.61-.54-1.26-1.09-1.88-1.61-.39-.33-.78-.66-1.18-1L233.28,6,226.35.54,224.62-.81l-.43-.34a1.52,1.52,0,0,0-.44-.13l-.89-.2a31.92,31.92,0,0,0-3.93-.57,30.25,30.25,0,0,0-8.23.44c-.61.12-1.19.27-1.78.4a.36.36,0,0,0-.22.11l-.22.17L208-.6l-.87.68-3.47,2.71L189.85,13.63,176,24.46l-1.73,1.36-.86.68c-.13.11-.32.24-.4.32l-.23.23,1.4-1.4L56.36,143.45,45,154.76l128.6-128.6L55.84,144,54,145.78l-.23.23c-.08.08-.22.27-.32.4l-.68.87L51.45,149l-7.62,10.64L33,173.51,30.28,177l-.68.87-.34.43-.17.22a.36.36,0,0,0-.11.22c-.13.6-.28,1.17-.4,1.78a30.39,30.39,0,0,0-.44,8.24,32.16,32.16,0,0,0,.57,3.92l.21.88a1.4,1.4,0,0,0,.13.44l.34.43,1.35,1.73,5.42,6.93L190.58,360.52h0c.32.4.64.8,1,1.18.52.63,1.07,1.27,1.61,1.89,1.09,1.24,2.2,2.42,3.31,3.55s2.25,2.19,3.38,3.18q.85.74,1.7,1.43a2,2,0,0,0,.71.42l.64.27A28.54,28.54,0,0,0,242.18,346c0-3.65-3.92-4.08-5.3-7.52l-.27-.64c-.09-.21-.23-.47-.15-.5l.16-.48c.1-.29.18-.55.23-.76a1.93,1.93,0,0,0,.07-.54.56.56,0,0,0,0-.19.17.17,0,0,0,0-.1L92.28,190.71l-.48-.48a1.11,1.11,0,0,1-.38-.55.85.85,0,0,1,.11-.65,5,5,0,0,1,.47-.49l1-1-7.55,7.55L214.56,66l1-1a5.29,5.29,0,0,1,.49-.46.85.85,0,0,1,.65-.11,1.08,1.08,0,0,1,.55.37l.48.48Z"/><path class="cls-10" d="M363.34,207.86a.37.37,0,0,0,.13.08,1.27,1.27,0,0,0,.24.09,1.86,1.86,0,0,0,.62.05,6,6,0,0,0,.81-.11l.49-.1.27-.06a.41.41,0,0,1,.39.05,26.39,26.39,0,0,0,34.36-34.36,2.61,2.61,0,0,0-.46-.71l-.6-.77q-.61-.77-1.28-1.54-1.32-1.54-2.83-3.06t-3.15-3L390.7,163q-.51-.45-1.05-.88L232.71,8,226,2.74l-1.67-1.32-.42-.33a1.54,1.54,0,0,0-.43-.14l-.86-.22a27.32,27.32,0,0,0-3.8-.61,26.92,26.92,0,0,0-8,.46c-.59.13-1.15.29-1.72.43-.56.34-1.12.85-1.67,1.27l-3.34,2.64L190.78,15.5,177.42,26.06l-1.67,1.32-.83.66c-.13.11-.31.24-.39.32l-.23.23,1.4-1.4L57.9,145,46.59,156.3,175.19,27.7,57.38,145.5l-1.82,1.82-.23.23c-.08.08-.21.26-.32.39l-.66.83L53,150.44,45.7,160.58,35.13,173.94l-2.64,3.34c-.42.56-.93,1.11-1.27,1.67-.14.57-.3,1.13-.43,1.72a26.91,26.91,0,0,0-.46,8,27.57,27.57,0,0,0,.61,3.8l.22.86a1.6,1.6,0,0,0,.14.42l.33.42,1.32,1.67,5.28,6.68L192.37,359.45h0c.28.36.58.71.88,1.05l1.4,1.62c1,1.1,2,2.16,3,3.16s2,1.95,3.06,2.83q.77.66,1.54,1.28l.77.6a2.65,2.65,0,0,0,.7.46A26.37,26.37,0,0,0,240,346c0-3.37-3.86-3.53-5.15-6.7a.41.41,0,0,1,0-.39l.06-.26.1-.49a6.58,6.58,0,0,0,.1-.81,1.93,1.93,0,0,0-.05-.62,1.43,1.43,0,0,0-.09-.24.37.37,0,0,0-.08-.13l-145-145-.72-.72a1.67,1.67,0,0,1-.56-.83,1.28,1.28,0,0,1,.16-1,7.66,7.66,0,0,1,.7-.74l1.44-1.44-7,7L213.6,63.86,215,62.42a7.76,7.76,0,0,1,.74-.7,1.25,1.25,0,0,1,1-.16,1.67,1.67,0,0,1,.83.56l.72.72Z"/><path class="cls-11" d="M220.85,62.3c.13.13,144.2,144,144.68,144a8.47,8.47,0,0,0,1.87-.12l.29,0s.15,0,.23.06l.27.1,1.12.36a23,23,0,0,0,2.27.56,24.44,24.44,0,0,0,4.62.44,24.21,24.21,0,0,0,23.75-28.81q-.22-1.15-.55-2.27-.16-.56-.36-1.11a2.4,2.4,0,0,0-.24-.58l-.49-.69a48.29,48.29,0,0,0-4.65-5.53c-.88-.91-1.81-1.81-2.78-2.69l-1.37-1.21c-.3-.27-.61-.53-.93-.78L232.13,10.08l-6.43-5.15L224.1,3.65l-.4-.32a1.53,1.53,0,0,0-.41-.14l-.83-.24a24.28,24.28,0,0,0-11.41-.15c-.57.14-1.11.31-1.66.46-.54.33-1.07.83-1.61,1.24l-3.21,2.57L191.71,17.36l-12.86,10.3-1.61,1.29-.8.64c-.12.1-.29.23-.37.31l-.23.23,1.4-1.4L59.43,146.53,48.12,157.84l128.6-128.6L58.92,147l-1.82,1.82-.23.23c-.08.08-.21.25-.31.38l-.64.8-1.29,1.61-7.08,9.64-10.3,12.86-2.57,3.21c-.41.54-.91,1.07-1.24,1.61-.15.56-.32,1.09-.46,1.66a24.2,24.2,0,0,0,.15,11.41l.24.83a1.56,1.56,0,0,0,.14.41l.32.4,1.29,1.61,5.15,6.43L194.16,358.37h0q.38.48.78.93l1.21,1.37q1.32,1.45,2.69,2.78a49,49,0,0,0,5.53,4.66l.7.48a2.45,2.45,0,0,0,.57.25l1.12.36a22.94,22.94,0,0,0,2.27.56,24.57,24.57,0,0,0,4.62.44A24.19,24.19,0,0,0,237.83,346a24.57,24.57,0,0,0-.44-4.62q-.22-1.15-.55-2.27c-.11-.37-.23-.75-.36-1.11l-.1-.28c0-.09-.08-.2-.06-.23l0-.29c.11-.75-3,1.85-3.09,1.34S89.42,194,89.29,193.86l-1.92-1.92-1-1a2.22,2.22,0,0,1-.75-1.11,1.69,1.69,0,0,1,.21-1.31,10.19,10.19,0,0,1,.93-1l1.92-1.92-6.39,6.38L212.65,61.74l1.92-1.92a10.35,10.35,0,0,1,1-.93,1.68,1.68,0,0,1,1.3-.21,2.23,2.23,0,0,1,1.11.75l1,1Z"/><path class="cls-12" d="M221.95,60.32c.15.15,144.24,144,144.74,144.11a7.06,7.06,0,0,0,1.87.06l.57-.05.3,0,.5.15c.68.2,1.37.37,2.06.5a22,22,0,0,0,25.82-25.82,21.25,21.25,0,0,0-.5-2.06c-.06-.17-.09-.33-.17-.52l-.38-.62q-.4-.62-.83-1.24a42.12,42.12,0,0,0-4.06-4.94,56.05,56.05,0,0,0-4.37-4.11L231.56,12.14l-6.17-5-1.55-1.25-.38-.32a1.57,1.57,0,0,0-.4-.15l-.8-.25a21,21,0,0,0-3.55-.69,21.27,21.27,0,0,0-7.48.52c-.55.15-1.07.33-1.6.5-.52.33-1,.81-1.55,1.21L205,9.21l-12.35,10-12.35,10-1.54,1.25-.77.63c-.12.1-.28.22-.36.3l-.23.23,1.4-1.4L61,148.06,49.66,159.37l128.6-128.6L60.46,148.58l-1.82,1.82-.23.23c-.08.08-.2.24-.3.36l-.63.77-1.25,1.54-6.8,9.13-10,12.36-2.5,3.09c-.4.52-.88,1-1.21,1.55-.16.53-.34,1.05-.49,1.61a21.23,21.23,0,0,0-.52,7.48,20.71,20.71,0,0,0,.69,3.55l.25.8a1.67,1.67,0,0,0,.15.4l.31.38,1.25,1.55,5,6.18L195.95,357.3h0a55.71,55.71,0,0,0,4.11,4.37,42.13,42.13,0,0,0,4.94,4.06c.42.29.83.57,1.25.82l.62.39c.18.07.34.11.52.17.68.2,1.37.37,2.06.5a22,22,0,0,0,25.82-25.82q-.2-1-.5-2.07c0-.17-.11-.35-.15-.5l0-.3.05-.57a6.92,6.92,0,0,0-.06-1.87c-.09-.5-144-144.59-144.11-144.75l-2.4-2.4-1.2-1.2a2.78,2.78,0,0,1-.93-1.38c-.14-.55-3.26,2.07-2.95,1.59a12.73,12.73,0,0,1,1.16-1.24l2.4-2.4-5.8,5.8L211.69,59.62l2.4-2.4a12.34,12.34,0,0,1,1.23-1.17,2.11,2.11,0,0,1,1.63-.27,2.82,2.82,0,0,1,1.39.93l1.2,1.2Z"/><path class="cls-13" d="M223,58.34a1.08,1.08,0,0,0,.19.15l.27.17a3.42,3.42,0,0,0,.73.31c.53.15,144.72,143.79,145.42,143.78,1.05-.37,4.13.65,6.55.54A19.84,19.84,0,0,0,396,183.44c-.12-2.6,0-4.84-2.41-8a36.76,36.76,0,0,0-3.51-4.37c-.66-.71-1.36-1.42-2.1-2.1l-.91-.85q-.34-.31-.7-.61L231,14.2l-5.93-4.88-1.48-1.22-.37-.31a1.71,1.71,0,0,0-.38-.16l-.77-.26a18.14,18.14,0,0,0-3.43-.72,18.89,18.89,0,0,0-7.23.55c-.53.17-1,.35-1.54.52-.5.33-1,.79-1.49,1.18l-3,2.44L193.56,21.1l-11.85,9.75-1.48,1.22-.74.61c-.11.1-.27.21-.35.29l-.23.23,1.4-1.4L62.51,149.6,51.2,160.91,179.8,32.31,62,150.12l-1.82,1.82-.23.23c-.08.08-.2.24-.29.35l-.61.74-1.22,1.48-6.53,8.63-9.75,11.85-2.44,3c-.39.5-.86,1-1.18,1.48s-.36,1-.52,1.54a19,19,0,0,0-.55,7.23,18.38,18.38,0,0,0,.73,3.43l.27.77A1.51,1.51,0,0,0,38,193l.31.37,1.22,1.48,4.88,5.92L197.73,356.22h0c.2.24.4.48.61.7l.84.91c.69.73,1.39,1.43,2.1,2.1a37,37,0,0,0,4.37,3.51c3.15,2.37,5.38,2.29,8,2.4A19.84,19.84,0,0,0,233.48,346c.11-2.43-.9-5.5-.54-6.56,0-.7-143.63-144.89-143.78-145.42a3.21,3.21,0,0,0-.3-.73l-.17-.27a1,1,0,0,0-.15-.19L85.66,190l-1.44-1.44a3.33,3.33,0,0,1-1.12-1.66,2.55,2.55,0,0,1,.32-2c.39-.55-2.29,2.23-1.82,1.74l2.88-2.88L79.26,189,210.74,57.5l2.88-2.88a15.12,15.12,0,0,1,1.48-1.39,2.54,2.54,0,0,1,2-.32A3.34,3.34,0,0,1,218.72,54l1.44,1.44Z"/><path class="cls-14" d="M224.13,56.36a1.15,1.15,0,0,0,.19.16l.25.16c.23.14,144.05,143.84,144.31,143.93a6.15,6.15,0,0,0,1.77.31,15.54,15.54,0,0,0,2.22-.09H373l.21,0,.42.06.84.1c.56.06,1.13.08,1.69.08a17.67,17.67,0,0,0,17.67-17.67c0-.57,0-1.13-.08-1.69,0-.28-.06-.56-.1-.84l-.06-.42,0-.21-.09-.24a23,23,0,0,0-2.08-3.87,30.83,30.83,0,0,0-3-3.81c-.56-.62-1.16-1.23-1.78-1.83l-.7-.67c-.19-.18-.39-.36-.6-.53L230.42,16.26l-5.68-4.74-1.42-1.18L223,10a1.67,1.67,0,0,0-.37-.16l-.74-.28a16,16,0,0,0-3.31-.76,16.84,16.84,0,0,0-7,.58c-.51.17-1,.37-1.48.55s-.95.77-1.42,1.15l-2.84,2.37L194.49,23l-11.35,9.48-1.42,1.18-.71.59-.34.29-.23.23,1.4-1.4L64,151.14,52.73,162.45l128.6-128.6L63.53,151.65l-1.82,1.82-.23.23c-.08.08-.19.22-.29.34l-.59.71-1.18,1.42-6.26,8.13-9.48,11.35-2.37,2.84c-.38.47-.83.94-1.15,1.42s-.38,1-.55,1.49a16.84,16.84,0,0,0-.58,7,16.11,16.11,0,0,0,.76,3.31l.28.74a1.69,1.69,0,0,0,.16.37l.3.36,1.18,1.42,4.74,5.67L199.52,355.15h0c.17.2.35.4.53.6l.67.71c.6.62,1.21,1.22,1.83,1.78a31.31,31.31,0,0,0,3.81,3,22.92,22.92,0,0,0,3.87,2.08,1.25,1.25,0,0,0,.45.13l.42.07.84.1c.56.05,1.13.08,1.7.08A17.67,17.67,0,0,0,231.31,346c0-.56,0-1.13-.08-1.69,0-.28-.06-.56-.1-.84l-.06-.42,0-.21a1.26,1.26,0,0,1,0-.16,15.5,15.5,0,0,0,.09-2.22c0-.66-143.71-144.83-143.89-145.35a4,4,0,0,0-.35-.73l-.16-.26a1.14,1.14,0,0,0-.16-.19l-3.36-3.36-1.68-1.68A3.89,3.89,0,0,1,80.21,187a3,3,0,0,1,.38-2.28,6.24,6.24,0,0,1,.79-.89l.84-.84.14-.14-4.64,4.64L209.78,55.38,213.15,52l.84-.84a6.22,6.22,0,0,1,.89-.79,2.94,2.94,0,0,1,2.28-.38,3.89,3.89,0,0,1,1.94,1.31L220.77,53Z"/><path class="cls-15" d="M368.81,198a1.76,1.76,0,0,0,.42.3,4.32,4.32,0,0,0,.71.38,5.79,5.79,0,0,0,1.67.39,11.58,11.58,0,0,0,2,0c.36,0,.74-.07,1.14-.12a2.85,2.85,0,0,1,.69,0l.74,0a15.5,15.5,0,0,0,15.5-15.5c0-.25,0-.5,0-.74a2.71,2.71,0,0,0-.1-.77,15.25,15.25,0,0,0-.56-1.66,20,20,0,0,0-1.74-3.35,26.27,26.27,0,0,0-2.49-3.28c-.47-.53-1-1.05-1.49-1.56s-.65-.65-1-1L229.85,18.32l-5.42-4.6-1.36-1.15-.34-.29a1.83,1.83,0,0,0-.35-.17l-.71-.3a14.37,14.37,0,0,0-3.18-.8,15,15,0,0,0-6.72.61c-.49.18-.95.39-1.42.58s-.91.75-1.36,1.12l-2.71,2.3-10.85,9.21L184.57,34l-1.36,1.15-.68.58c-.1.09-.24.2-.32.28l-.23.23,1.4-1.4L65.58,152.67,54.27,164l128.6-128.6L65.07,153.19,63.25,155l-.23.23c-.08.08-.19.22-.28.32l-.58.68L61,157.59l-6,7.63-9.21,10.85-2.3,2.71c-.37.45-.8.9-1.12,1.36s-.4.93-.58,1.42a14.92,14.92,0,0,0-.61,6.72,14.17,14.17,0,0,0,.8,3.18l.3.71a1.83,1.83,0,0,0,.17.35l.29.34,1.15,1.36,4.6,5.42L201.31,354.08h0c.31.36.57.62,1,1s1,1,1.56,1.49a26.23,26.23,0,0,0,3.28,2.49,19.92,19.92,0,0,0,3.35,1.74,15.76,15.76,0,0,0,1.66.56,2.7,2.7,0,0,0,.77.1l.74,0A15.5,15.5,0,0,0,229.14,346c0-.25,0-.5,0-.74a3,3,0,0,1,0-.7c.05-.39.09-.77.12-1.14a11.59,11.59,0,0,0,0-2,5.72,5.72,0,0,0-.39-1.67,3.87,3.87,0,0,0-.38-.71,1.75,1.75,0,0,0-.3-.42l-3.84-3.84-1.92-1.92a4.45,4.45,0,0,1-1.5-2.21c-.21-.88-143.64-145.43-143.15-146.19a7,7,0,0,1,.9-1l1-1,.62-.62-4.05,4.05L208.83,53.26l3.84-3.84,1-1a7.31,7.31,0,0,1,1-.9c.76-.49,145.31,142.94,146.19,143.15a4.45,4.45,0,0,1,2.21,1.5l1.92,1.92Z"/><path class="cls-16" d="M369.9,196a1.52,1.52,0,0,0,.38.28,5.33,5.33,0,0,0,.65.36,5.43,5.43,0,0,0,1.53.44,12.42,12.42,0,0,0,3.86-.18c.68-.17,1.59-.2,2.42-.37A13.3,13.3,0,0,0,389.28,186a6.75,6.75,0,0,0,.11-2.62,15,15,0,0,0-2.19-5.67,21.56,21.56,0,0,0-2-2.76l-.59-.66-.58-.61a10.28,10.28,0,0,0-.8-.77L229.28,20.38l-5.17-4.46-1.29-1.12-.32-.28a2.27,2.27,0,0,0-.34-.17l-.68-.31a12.61,12.61,0,0,0-3.06-.84,13.31,13.31,0,0,0-6.47.64c-.47.19-.91.41-1.37.61s-.86.73-1.3,1.09l-2.59,2.23L196.35,26.7,186,35.64l-1.29,1.12-.65.56-.31.27-.23.23,1.4-1.4L67.12,154.21,55.81,165.53l128.6-128.6L66.61,154.73l-1.82,1.82-.23.23c-.08.08-.18.21-.27.31l-.56.65L62.62,159l-5.72,7.13L48,176.49l-2.23,2.59c-.36.43-.77.86-1.09,1.3s-.42.9-.61,1.37a13.36,13.36,0,0,0-.64,6.47,12.84,12.84,0,0,0,.84,3.06l.31.68a2.28,2.28,0,0,0,.17.34l.28.32,1.12,1.29,4.46,5.17L203.1,353h0a9.25,9.25,0,0,0,.78.8l.6.58.66.59a21.7,21.7,0,0,0,2.76,2,15.08,15.08,0,0,0,5.67,2.18,6.74,6.74,0,0,0,2.62-.11A13.34,13.34,0,0,0,226,351a13.25,13.25,0,0,0,.73-2.47c.17-.83.2-1.74.37-2.42a12.43,12.43,0,0,0,.18-3.86,5.49,5.49,0,0,0-.44-1.54,5.38,5.38,0,0,0-.36-.65,1.51,1.51,0,0,0-.28-.38l-4.32-4.32-2.16-2.16a11,11,0,0,1-1-1.12c-.31-.4-144.1-144.46-144.22-145a3.8,3.8,0,0,1,.49-2.93,8.08,8.08,0,0,1,1-1.14L77,182l1.11-1.11-3.47,3.47L207.87,51.14l4.32-4.32,1.08-1.08a8.08,8.08,0,0,1,1.14-1,3.8,3.8,0,0,1,2.93-.49c.49.12,144.55,143.91,145,144.22a10.9,10.9,0,0,1,1.12,1l2.16,2.16Z"/><path class="cls-17" d="M224.21,340.8l-4.8-4.8-2.4-2.4c-.4-.4-144.4-144.37-144.74-144.82a4.14,4.14,0,0,1-.71-1.53,4.23,4.23,0,0,1,.54-3.26c.16-.23.35-.44.53-.66s.4-.4.6-.6l1.2-1.2L76,179.94l-2.89,2.89L206.92,49l4.8-4.8,1.2-1.2c.2-.2.39-.4.6-.6s.43-.37.66-.53a4.23,4.23,0,0,1,3.26-.54,4.15,4.15,0,0,1,1.53.71c.45.34,144.42,144.34,144.82,144.74l2.4,2.4L371,194a5,5,0,0,0,2.27,1,9.35,9.35,0,0,0,3.3-.08,18.69,18.69,0,0,0,3.83-1.18,11.2,11.2,0,0,0,6.14-6.14,8.57,8.57,0,0,0,.43-4.4,12.93,12.93,0,0,0-1.75-4.7,19.4,19.4,0,0,0-3.09-3.85L228.7,22.44l-4.92-4.33L222.55,17l-.31-.27a1.77,1.77,0,0,0-.32-.18l-.65-.33a11.13,11.13,0,0,0-2.94-.88,11.85,11.85,0,0,0-6.22.67c-.45.2-.87.43-1.31.64s-.82.71-1.23,1.06l-2.46,2.16-9.84,8.66-9.84,8.66-1.23,1.08c-.39.35-.88.76-1.14,1l1.4-1.4L68.66,155.75,57.35,167.06l128.6-128.6L68.14,156.26l-1.82,1.82c-.28.25-.68.75-1,1.14l-1.08,1.23-5.44,6.62-8.66,9.84-2.17,2.46c-.35.41-.75.82-1.06,1.23s-.44.86-.64,1.31a11.85,11.85,0,0,0-.67,6.22,11.18,11.18,0,0,0,.88,2.94l.33.65A1.79,1.79,0,0,0,47,192l.27.31,1.08,1.23,4.33,4.92L204.89,351.93a19.4,19.4,0,0,0,3.85,3.09,12.93,12.93,0,0,0,4.7,1.75,8.57,8.57,0,0,0,4.4-.43A11.2,11.2,0,0,0,224,350.2a18.82,18.82,0,0,0,1.18-3.83,9.31,9.31,0,0,0,.07-3.3A5,5,0,0,0,224.21,340.8Z"/><path class="cls-18" d="M223.18,341.37l-5.05-5.05L72,190.21a13.24,13.24,0,0,1-1.21-1.31,4.39,4.39,0,0,1-.75-1.6,4.44,4.44,0,0,1,.57-3.43c.17-.24.37-.46.55-.7s.42-.42.63-.63l1.26-1.26,1.83-1.83L72.32,182,206.43,47.92l5-5,1.26-1.26c.21-.21.42-.42.63-.63s.45-.38.7-.55a4.44,4.44,0,0,1,3.43-.57,4.39,4.39,0,0,1,1.6.75,13.25,13.25,0,0,1,1.31,1.21L366.52,187.93l5.05,5.05c1.93,1.93,7.72,1.38,11.72-2.45a8.35,8.35,0,0,0,2.46-7.34,11.73,11.73,0,0,0-1.54-4.21,14.68,14.68,0,0,0-1.42-2l-.68-.8a6.64,6.64,0,0,0-.55-.56L228.41,23.51l-4.79-4.26-1.2-1.06-.3-.27a2.17,2.17,0,0,0-.31-.18l-.64-.33a10.52,10.52,0,0,0-2.87-.9,11.15,11.15,0,0,0-6.09.68c-.44.21-.85.44-1.28.66s-.8.7-1.2,1L207.33,21l-9.58,8.52-9.58,8.52L187,39.12c-.38.34-.85.74-1.11,1l1.4-1.4L69.45,156.54,58.14,167.86l128.6-128.6L68.94,157.06l-1.82,1.82c-.28.26-.68.74-1,1.11L65,161.19l-5.31,6.36-8.52,9.58-2.13,2.4c-.35.4-.73.79-1,1.2s-.46.84-.66,1.28a11.19,11.19,0,0,0-.68,6.09,10.61,10.61,0,0,0,.9,2.87l.33.63a2.14,2.14,0,0,0,.18.31l.26.3,1.07,1.2,4.26,4.79,152.1,153.16a6.67,6.67,0,0,0,.56.55l.8.68a14.67,14.67,0,0,0,2,1.41,11.75,11.75,0,0,0,4.21,1.54,8.35,8.35,0,0,0,7.34-2.46C224.56,349.09,225.11,343.3,223.18,341.37Z"/><path class="cls-19" d="M220.08,343.08l-5.8-5.8L67.79,190.8a15,15,0,0,1-1.4-1.5,5,5,0,0,1-.87-1.84,5.13,5.13,0,0,1,.65-3.94c.19-.28.43-.53.64-.8s.48-.49.72-.73L69,180.54l5.81-5.81-4.89,4.89,135-135,5.8-5.8,1.45-1.45c.24-.24.48-.49.73-.72s.52-.44.8-.64a5.13,5.13,0,0,1,3.94-.65,5,5,0,0,1,1.84.87,15,15,0,0,1,1.5,1.4L367.48,184.07l5.8,5.8a1.4,1.4,0,0,0,.53.34,5.17,5.17,0,0,0,.88.34,4.77,4.77,0,0,0,2,0,7,7,0,0,0,4.14-2.47,6.19,6.19,0,0,0,1.37-5,8.24,8.24,0,0,0-.94-2.74c-.12-.22-.26-.44-.4-.65l-.22-.32-.11-.16-.07-.11a3.75,3.75,0,0,0-.62-.75L227.51,26.74l-4.4-4a10.83,10.83,0,0,0-2.25-1.81,8.7,8.7,0,0,0-2.68-1,9.26,9.26,0,0,0-5.7.73c-.41.22-.79.47-1.18.71s-.74.67-1.1,1l-2.19,2-8.79,8.09-8.79,8.09-1.1,1c-.35.33-.77.69-1,1l1.4-1.4L71.86,159,60.55,170.27l128.6-128.6L71.35,159.47l-1.82,1.82c-.29.27-.65.69-1,1l-1,1.1L62.67,169l-8.09,8.79-2,2.19c-.33.37-.69.73-1,1.1s-.49.77-.71,1.18a9.26,9.26,0,0,0-.73,5.7,8.7,8.7,0,0,0,1,2.68,10.83,10.83,0,0,0,1.81,2.25l4,4.4L208.62,349.69a3.77,3.77,0,0,0,.75.62l.11.07.16.11.32.22.65.4a8.24,8.24,0,0,0,2.74.94,6.19,6.19,0,0,0,5-1.37,7.06,7.06,0,0,0,2.48-4.14,4.77,4.77,0,0,0,0-2.05,5.09,5.09,0,0,0-.34-.88A1.4,1.4,0,0,0,220.08,343.08Z"/><path class="cls-20" d="M219.56,343.37l-5.93-5.93L67.08,190.9a15.66,15.66,0,0,1-1.43-1.53,5.15,5.15,0,0,1-.88-1.88,5.22,5.22,0,0,1,.67-4c.2-.28.44-.55.65-.82s.49-.5.74-.75l1.48-1.48,5.93-5.93-4.74,4.74L204.68,44l5.93-5.93,1.48-1.48c.25-.24.49-.5.75-.74s.53-.45.82-.65a5.22,5.22,0,0,1,4-.67,5.15,5.15,0,0,1,1.88.88,15.65,15.65,0,0,1,1.53,1.43L367.64,183.43l5.93,5.93a1.36,1.36,0,0,0,.49.32l.15,0,.21.1a3.08,3.08,0,0,0,.44.15,4.27,4.27,0,0,0,1.88.05,6.26,6.26,0,0,0,3.74-2.3,5.76,5.76,0,0,0,1.21-4.57,7.44,7.44,0,0,0-.85-2.5,6.92,6.92,0,0,0-.36-.59l-.2-.29-.12-.2a3.44,3.44,0,0,0-.56-.68L227.36,27.28l-4.33-4a11.27,11.27,0,0,0-2.22-1.81,8.49,8.49,0,0,0-2.65-1,9,9,0,0,0-5.63.73c-.41.22-.78.48-1.17.72s-.72.66-1.09,1l-2.17,2-8.66,8-8.66,8-1.08,1c-.35.32-.76.69-1,1l1.4-1.4L72.27,159.36,61,170.67l128.6-128.6L71.75,159.87l-1.82,1.82c-.29.27-.65.69-1,1l-1,1.08-4.8,5.45-8,8.66-2,2.16c-.33.36-.69.72-1,1.09s-.5.76-.72,1.17a9,9,0,0,0-.74,5.63,8.59,8.59,0,0,0,1,2.65,11.29,11.29,0,0,0,1.81,2.22l4,4.33L209.08,349.4a3.44,3.44,0,0,0,.68.56l.2.12.29.2a6.9,6.9,0,0,0,.6.36,7.43,7.43,0,0,0,2.5.85,5.76,5.76,0,0,0,4.57-1.21,6.26,6.26,0,0,0,2.3-3.74,4.27,4.27,0,0,0-.05-1.88,2.93,2.93,0,0,0-.15-.44l-.1-.21,0-.15A1.36,1.36,0,0,0,219.56,343.37Z"/><path class="cls-21" d="M219,343.67l-6.06-6.06L66.33,191a14.93,14.93,0,0,1-1.46-1.57,5.13,5.13,0,0,1-.9-1.92,5.32,5.32,0,0,1,.68-4.11c.2-.29.44-.56.67-.84s.5-.51.75-.76l1.52-1.52,6.06-6.06-4.58,4.58L204.42,43.45l6.06-6.06L212,35.87c.25-.25.5-.51.76-.75s.55-.46.84-.67a5.32,5.32,0,0,1,4.11-.68,5.2,5.2,0,0,1,1.92.9,15,15,0,0,1,1.57,1.46L367.81,182.74l6.06,6.06a3.67,3.67,0,0,0,2.84.58,5.46,5.46,0,0,0,3.33-2.11,5.31,5.31,0,0,0,1.06-4.14,7.69,7.69,0,0,0-1.8-3.77L227.2,27.86l-4.26-4a11.54,11.54,0,0,0-2.19-1.8,8.18,8.18,0,0,0-2.61-1,8.67,8.67,0,0,0-5.56.74c-.4.22-.77.48-1.15.72s-.71.65-1.07,1l-2.13,2-8.52,7.95-8.52,7.95c-.69.65-1.47,1.35-2.09,2l1.4-1.4L72.7,159.79,61.38,171.1,190,42.5,72.18,160.3l-1.82,1.82c-.61.62-1.31,1.39-2,2.09l-4.73,5.3L55.73,178l-2,2.13c-.33.36-.68.71-1,1.07s-.5.75-.72,1.15a8.67,8.67,0,0,0-.74,5.56,8.21,8.21,0,0,0,1,2.61,11.75,11.75,0,0,0,1.8,2.19l4,4.26L209.58,349.1a7.7,7.7,0,0,0,3.77,1.8,5.32,5.32,0,0,0,4.14-1.06,5.47,5.47,0,0,0,2.1-3.33A3.67,3.67,0,0,0,219,343.67Z"/><path class="cls-22" d="M378.32,181a1.92,1.92,0,0,1,.5.83,1.89,1.89,0,0,0,.12.3c0,.12.09.24.13.35a4.52,4.52,0,0,1,.17.72,3.64,3.64,0,0,1-.59,2.66,3.18,3.18,0,0,1-2,1.41,3.23,3.23,0,0,1-1.07,0,.91.91,0,0,1-.66-.27L224.79,36.91l-3.25-3.25a15.83,15.83,0,0,0-1.68-1.57,5.61,5.61,0,0,0-2.06-1,5.74,5.74,0,0,0-4.41.73c-.31.22-.6.48-.9.71s-.55.54-.82.81L210,35l-6.5,6.5L67.67,177.38l4-4-6.5,6.5-1.62,1.62c-.27.27-.55.54-.81.82s-.5.59-.71.9a5.74,5.74,0,0,0-.73,4.41,5.61,5.61,0,0,0,1,2.06,15.77,15.77,0,0,0,1.57,1.68l3.25,3.25L217.2,344.68a.91.91,0,0,1,.27.66,2.91,2.91,0,0,1-1.39,3.11,3.65,3.65,0,0,1-2.66.59,4.53,4.53,0,0,1-.72-.17l-.35-.13-.3-.12a1.92,1.92,0,0,1-.83-.5L59.94,196.48l-3.85-4a13,13,0,0,1-1.78-2.08,7.45,7.45,0,0,1-1-2.5,7.78,7.78,0,0,1,.77-5.33c.23-.38.5-.73.75-1.1s.64-.67,1-1l1.92-2,7.7-8.06,4.48-4.84,1.91-2,1.82-1.82L191.39,43.9,62.79,172.5,74.1,161.19,191.91,43.38l-1.4,1.4,2-1.91,8.06-7.7,8.06-7.7,2-1.92c.34-.32.67-.65,1-1s.72-.52,1.1-.75a7.78,7.78,0,0,1,5.33-.77,7.45,7.45,0,0,1,2.5,1,13,13,0,0,1,2.08,1.78l4,3.85Z"/><path class="cls-23" d="M345,175.88h0L208.53,312.37h0l-.15.17-.07.08,0,0-.14.15q-.56.63-1.09,1.27a32.89,32.89,0,0,0,43.6,48.22,32.26,32.26,0,0,0,2.66-2c.43-.35.86-.71,1.27-1.09l.16-.14,0,0,.08-.07.17-.15h0L391.53,222.39h0l.15-.16.07-.09,0,0,.14-.16c.38-.41.74-.84,1.09-1.27a32.26,32.26,0,0,0,2-2.66,32.89,32.89,0,0,0-27.47-51,32.77,32.77,0,0,0-20.76,7.37q-.65.53-1.27,1.09l-.15.14,0,0-.09.07Z"/><path class="cls-24" d="M210.07,313.91l-.14.15-.06.08,0,0v0l-.07.07c-.35.39-.69.78-1,1.19q-1,1.21-1.83,2.49a30.72,30.72,0,0,0,42.55,42.55q1.28-.84,2.49-1.83c.4-.33.8-.67,1.19-1l.07-.06h0l0,0,.08-.06.15-.14L390,220.86h0l.14-.15.06-.08,0,0v0l.07-.07q.53-.58,1-1.19a30.71,30.71,0,0,0-43.21-43.21q-.6.49-1.19,1l-.07.07h0l0,0-.08.06-.15.14Z"/><path class="cls-9" d="M211.61,315.44a2,2,0,0,0-.25.3c-.31.34-.63.72-.94,1.09q-.91,1.12-1.7,2.31a28.54,28.54,0,0,0,39.54,39.54c.79-.52,1.56-1.09,2.31-1.7.37-.3.75-.63,1.09-.94a2,2,0,0,0,.3-.24L388.46,219.32h0a2,2,0,0,0,.25-.3c.3-.34.63-.72.94-1.09a28.4,28.4,0,0,0,4.31-7.27,28.54,28.54,0,0,0-42.15-34.58,28.21,28.21,0,0,0-2.31,1.7c-.37.3-.75.63-1.09.94a2.22,2.22,0,0,0-.3.24Z"/><path class="cls-10" d="M213.15,317a1.84,1.84,0,0,0-.22.27l-.81,1a26.37,26.37,0,0,0,20.45,43,26.32,26.32,0,0,0,14.51-4.34q1.1-.72,2.13-1.57l1-.81a1.84,1.84,0,0,0,.27-.22L386.92,217.78h0a1.7,1.7,0,0,0,.22-.27l.81-1q.84-1,1.57-2.13A26.37,26.37,0,0,0,353,177.89q-1.1.72-2.13,1.57l-1,.81a1.84,1.84,0,0,0-.27.22Z"/><path class="cls-11" d="M214.68,318.52a1.63,1.63,0,0,0-.21.25.5.5,0,0,1-.08.1l-.2.23-.39.47a24.12,24.12,0,0,0-3.65,6.16,24.21,24.21,0,0,0,31.52,31.52,23.93,23.93,0,0,0,4.21-2.21,23.61,23.61,0,0,0,2-1.44l.47-.39.23-.2a.43.43,0,0,1,.1-.08,1.78,1.78,0,0,0,.25-.21L385.38,216.24h0a1.78,1.78,0,0,0,.21-.25.52.52,0,0,1,.08-.1l.2-.23.39-.47a24,24,0,0,0,3.65-6.16,24.21,24.21,0,0,0-31.52-31.52,24,24,0,0,0-6.17,3.65l-.47.39-.23.2a.43.43,0,0,1-.1.08,1.78,1.78,0,0,0-.25.21Z"/><path class="cls-12" d="M216.22,320.05a32.23,32.23,0,0,0-2,2.67,21.73,21.73,0,0,0-2,3.83,22,22,0,0,0,32.52,26.68,32.08,32.08,0,0,0,2.67-2L383.85,214.71h0c.17-.17.09-.15.73-.89a22,22,0,0,0-29.19-32.29,32.4,32.4,0,0,0-2.68,2Z"/><path class="cls-13" d="M217.76,321.59a1.51,1.51,0,0,0-.17.21s0,.05-.09.14l-.32.39a19.65,19.65,0,0,0-3,5.06A19.85,19.85,0,0,0,240,353.23a19.77,19.77,0,0,0,5.06-3l.39-.32.14-.09a1.36,1.36,0,0,0,.21-.17L382.31,213.17h0a1.36,1.36,0,0,0,.17-.21,1.19,1.19,0,0,1,.09-.14l.32-.39a19.06,19.06,0,0,0,1.18-1.6A19.84,19.84,0,0,0,355,184.52l-.39.32a1.05,1.05,0,0,1-.14.09,1.36,1.36,0,0,0-.21.17Z"/><path class="cls-14" d="M219.3,323.13a1.18,1.18,0,0,0-.15.18,2,2,0,0,1-.28.38q-.56.69-1.05,1.43a17.67,17.67,0,0,0,24.48,24.48c.49-.33,1-.68,1.43-1.05a2,2,0,0,1,.38-.28,1.15,1.15,0,0,0,.18-.15L380.77,211.63h0a1.18,1.18,0,0,0,.15-.18l.06-.1,0,0,.07-.08.14-.17a17.36,17.36,0,0,0,1.05-1.43,17.67,17.67,0,0,0-14.76-27.39,17.6,17.6,0,0,0-9.72,2.91c-.49.33-1,.68-1.43,1.05a1.92,1.92,0,0,1-.38.28l-.18.15Z"/><path class="cls-15" d="M220.83,324.67a1,1,0,0,0-.13.16l-.06.09,0,0v0l-.06.08a15.43,15.43,0,0,0-.92,1.25,15.22,15.22,0,0,0-1.42,2.69A15.5,15.5,0,0,0,238.4,349.2a15.23,15.23,0,0,0,2.69-1.42,15.42,15.42,0,0,0,1.25-.92l.08-.06h0l0,0,.09-.06.16-.13L379.23,210.1h0a1.12,1.12,0,0,0,.13-.16l.06-.09,0,0v0l.06-.08a15.23,15.23,0,0,0,.92-1.25A15.5,15.5,0,0,0,359,187c-.43.29-.85.59-1.25.92l-.08.06h0l0,0-.09.06-.16.13Z"/><path class="cls-16" d="M222.37,326.2a1,1,0,0,0-.2.3s-.07.11-.14.2l-.2.27c-.13.18-.26.36-.38.54a13,13,0,0,0-1.22,2.32A13.32,13.32,0,0,0,239.9,346l.55-.38.27-.2a1.07,1.07,0,0,1,.2-.14,1,1,0,0,0,.3-.2L377.7,208.56h0a1,1,0,0,0,.2-.3,1.13,1.13,0,0,1,.14-.2l.2-.27c.13-.18.26-.36.38-.55a13,13,0,0,0,1.22-2.31,13.33,13.33,0,0,0-17.36-17.36,13,13,0,0,0-2.32,1.22l-.55.38-.27.2a1.23,1.23,0,0,1-.2.14,1,1,0,0,0-.3.2Z"/><path class="cls-17" d="M360.39,191.25,223.91,327.74a.79.79,0,0,0-.17.25l0,.08s-.09.13-.13.19l-.32.46a11.15,11.15,0,0,0,15.45,15.45l.46-.32a1.5,1.5,0,0,1,.19-.13l.08,0a.79.79,0,0,0,.25-.17L376.16,207a.79.79,0,0,0,.17-.25l0-.08a1.63,1.63,0,0,1,.13-.19l.32-.46a11.15,11.15,0,0,0-15.45-15.45l-.46.32c-.06,0-.18.14-.19.13l-.08,0A.79.79,0,0,0,360.39,191.25Z"/><path class="cls-18" d="M358.86,189.72,222.37,326.2a.71.71,0,0,0-.15.22,1.16,1.16,0,0,1-.07.16l-.29.41a10,10,0,0,0,8.37,15.54,10.06,10.06,0,0,0,3.77-.73,9.93,9.93,0,0,0,1.74-.92l.41-.29a1.12,1.12,0,0,1,.16-.07.75.75,0,0,0,.22-.15L373,203.89a.75.75,0,0,0,.15-.22,1.12,1.12,0,0,1,.07-.16l.29-.41a9.93,9.93,0,0,0,.92-1.74,10,10,0,0,0-13.06-13.06,10,10,0,0,0-1.74.92l-.41.29a1.16,1.16,0,0,1-.16.07A.71.71,0,0,0,358.86,189.72Z"/><path class="cls-19" d="M361.27,192.13,224.78,328.61a.56.56,0,0,0-.15.34.19.19,0,0,1,0,.06l-.08.14-.16.29a6.35,6.35,0,0,0-.27.58,6.5,6.5,0,0,0-.48,2.49,6.62,6.62,0,0,0,9.1,6.13c.2-.08.39-.17.58-.27l.29-.16.14-.09h.06a.55.55,0,0,0,.34-.15L370.62,201.48a.55.55,0,0,0,.15-.34.27.27,0,0,1,0-.06l.09-.14.16-.29c.1-.19.19-.39.27-.58a6.61,6.61,0,0,0-6.13-9.1,6.55,6.55,0,0,0-2.49.48,6.35,6.35,0,0,0-.58.27l-.29.16-.14.08h-.06A.56.56,0,0,0,361.27,192.13Z"/><path class="cls-20" d="M361.67,192.53,225.18,329a.51.51,0,0,0-.14.31s0,.05,0,.11l-.15.26c-.09.17-.17.35-.25.54a6,6,0,0,0,7.88,7.88c.18-.07.36-.16.54-.25l.26-.15c.06,0,.08,0,.11,0a.51.51,0,0,0,.31-.14L370.22,201.08a.51.51,0,0,0,.14-.31s0-.05,0-.11l.15-.26c.09-.17.17-.35.25-.54a6,6,0,0,0-7.88-7.88c-.18.07-.36.16-.54.25l-.26.15c-.06,0-.07,0-.11,0A.51.51,0,0,0,361.67,192.53Z"/><path class="cls-22" d="M231.9,335.73a.45.45,0,0,1-.44.05l-.08,0-.16.05-.32.08a3.61,3.61,0,0,1-.66.06,3.44,3.44,0,0,1-3.45-3.45,3.59,3.59,0,0,1,.06-.66c0-.11,0-.22.08-.32l.05-.16a.55.55,0,0,0,0-.08.46.46,0,0,1,.05-.44L363.5,194.36a.46.46,0,0,1,.44-.05H364l.16,0,.32-.08a3.36,3.36,0,0,1,.66-.06,3.44,3.44,0,0,1,3.45,3.45,3.37,3.37,0,0,1-.06.66,3,3,0,0,1-.08.32l-.05.16a.41.41,0,0,0,0,.08.45.45,0,0,1-.05.44Z"/><path class="cls-2" d="M238.59,267.44a24.33,24.33,0,0,1-2.83-.17c-13.77-1.65-29.85-16.64-29.85-53.46a2.1,2.1,0,1,1,4.21,0c0,34.07,14.08,47.84,26.15,49.28,10.69,1.27,20.25-6.48,23.26-18.86a2.1,2.1,0,0,1,4.09,1C260.34,258.67,250.28,267.44,238.59,267.44Z"/><path class="cls-2" d="M201.56,169.86a10.27,10.27,0,0,1-1.18-.07c-8.85-1-16.17-13.44-19.57-33.29a2.1,2.1,0,0,1,4.14-.71c3,17.37,9.22,29.08,15.9,29.83,5.08.58,10.63-5.47,15.25-16.57a2.1,2.1,0,1,1,3.88,1.61C213.5,166.25,206.58,169.86,201.56,169.86Z"/><path class="cls-25" d="M211.64,104.39h7.19a2.66,2.66,0,0,1,2.66,2.66v29.54c1.56,2.88,4.37,7.67,4.37,11.66a8.33,8.33,0,0,1-8.53,8.44c-5.23,0-8.31-3.18-8.31-8.44,0-2.36,0-5.9,0-9,0,0,0-.06,0-.1V107A2.66,2.66,0,0,1,211.64,104.39Z"/><g class="cls-26"><g class="cls-27"><path class="cls-28" d="M209.92,107.26a2.17,2.17,0,0,0,2.26,2.06h6.11a2.07,2.07,0,1,0,0-4.12h-6.11A2.17,2.17,0,0,0,209.92,107.26Z"/></g><g class="cls-27"><path class="cls-28" d="M209.92,139a2.17,2.17,0,0,0,2.26,2.06h6.11a2.07,2.07,0,1,0,0-4.12h-6.11A2.17,2.17,0,0,0,209.92,139Z"/></g></g><g class="cls-25"><rect x="209.92" y="110.55" width="10.63" height="25.14" rx="2.26" ry="2.26"/></g><circle class="cls-25" cx="217.31" cy="148.25" r="5.5"/><circle class="cls-29" cx="217.31" cy="148.25" r="5.01"/><polygon class="cls-25" points="214.02 147.48 216.54 147.48 216.54 144.96 218.08 144.96 218.08 147.48 220.6 147.48 220.6 149.02 218.08 149.02 218.08 151.54 216.54 151.54 216.54 149.02 214.02 149.02 214.02 147.48"/><path class="cls-25" d="M226.68,252.54h7.18a2.66,2.66,0,0,0,2.66-2.65V220.34c1.55-2.88,4.37-7.67,4.37-11.66a8.33,8.33,0,0,0-8.53-8.44c-5.23,0-8.3,3.18-8.3,8.44,0,2.36,0,5.9,0,9,0,0,0,.06,0,.1v32.15A2.66,2.66,0,0,0,226.68,252.54Z"/><g class="cls-26"><g class="cls-27"><path class="cls-28" d="M225,249.67a2.17,2.17,0,0,1,2.26-2.06h6.11a2.07,2.07,0,1,1,0,4.12h-6.11A2.17,2.17,0,0,1,225,249.67Z"/></g><g class="cls-27"><path class="cls-28" d="M225,218a2.17,2.17,0,0,1,2.26-2.06h6.11a2.07,2.07,0,1,1,0,4.12h-6.11A2.17,2.17,0,0,1,225,218Z"/></g></g><g class="cls-25"><rect x="224.96" y="221.25" width="10.63" height="25.14" rx="2.26" ry="2.26"/></g><circle class="cls-25" cx="232.34" cy="208.68" r="5.5"/><circle class="cls-29" cx="232.34" cy="208.68" r="5.01"/><polygon class="cls-25" points="229.06 209.45 231.57 209.45 231.57 211.97 233.11 211.97 233.11 209.45 235.63 209.45 235.63 207.91 233.11 207.91 233.11 205.39 231.57 205.39 231.57 207.91 229.06 207.91 229.06 209.45"/><path class="cls-25" d="M222.34,172.84l-5.11,5a2.66,2.66,0,0,0,0,3.76l20.76,21c.92,3.14,2.28,8.53,5.09,11.37a8.33,8.33,0,0,0,12,0c3.72-3.68,3.67-8.1,0-11.84l-6.28-6.39-.06-.08-22.6-22.87A2.66,2.66,0,0,0,222.34,172.84Z"/><g class="cls-26"><g class="cls-27"><path class="cls-28" d="M225.58,173.67a2.17,2.17,0,0,1-.16,3.05L221.07,181a2.07,2.07,0,1,1-2.89-2.93l4.34-4.29A2.17,2.17,0,0,1,225.58,173.67Z"/></g><g class="cls-27"><path class="cls-28" d="M247.87,196.24a2.17,2.17,0,0,1-.16,3.05l-4.35,4.3a2.07,2.07,0,1,1-2.89-2.93l4.34-4.3A2.17,2.17,0,0,1,247.87,196.24Z"/></g></g><g class="cls-25"><path d="M244,192.29a2.26,2.26,0,0,1,0,3.19l-4.34,4.29a2.27,2.27,0,0,1-3.19,0l-14.49-14.67a2.26,2.26,0,0,1,0-3.19l4.35-4.3a2.26,2.26,0,0,1,3.19,0Z"/></g><circle class="cls-25" cx="249.14" cy="208.02" r="5.5" transform="translate(-74.29 235.21) rotate(-44.67)"/><circle class="cls-29" cx="249.14" cy="208.02" r="5.01" transform="translate(-74.29 235.14) rotate(-44.65)"/><polygon class="cls-25" points="250.93 205.16 249.14 206.93 247.37 205.14 246.28 206.23 248.04 208.02 246.25 209.79 247.34 210.88 249.13 209.12 250.9 210.91 252 209.82 250.23 208.03 252.02 206.26 250.93 205.16"/><path class="cls-2" d="M260.27,247.66a10.51,10.51,0,0,1-8-3.68,4.55,4.55,0,0,0-.52-.15,10.51,10.51,0,0,1-6-20.09c7.54-2.88,18.87.85,23.31,7.68a10.51,10.51,0,0,1-8.8,16.25Z"/><path class="cls-2" d="M179.86,148.22a10.63,10.63,0,0,1-2-.19,10.52,10.52,0,0,1-8.35-12.3c1.53-8,10.61-15.74,18.68-15.93a10.51,10.51,0,0,1,2.05,20.87,4.51,4.51,0,0,0-.42.34A10.53,10.53,0,0,1,179.86,148.22Z"/><path class="cls-2" d="M183.85,243.51a10.46,10.46,0,0,1-3-.45c-12.67-3.8-13.35-13.07-13.26-15.83.49-14.63,22.5-25,36.26-28.18a10.51,10.51,0,1,1,4.67,20.5,52.15,52.15,0,0,0-16.37,7,10.52,10.52,0,0,1-8.29,17Z"/><path class="cls-23" d="M230.81,240.69h0a218.46,218.46,0,0,0,18.47-14.11c1.53-1.31,3.06-2.65,4.58-4.06.69-.63,2-1.87,3.14-3s2.27-2.25,3.37-3.4a124,124,0,0,0,12.14-14.51,96.13,96.13,0,0,0,9.15-15.82A76.07,76.07,0,0,0,287,169.2a67.71,67.71,0,0,0-1.67-33.52,75.25,75.25,0,0,0-16.95-28.89,66.54,66.54,0,0,0-13-10.79,70.7,70.7,0,0,0-15.23-7.39,77.8,77.8,0,0,0-34.63-3.47,109.15,109.15,0,0,0-35.69,11h0c-13.55,6.82-20.62,17.63-22.58,28a32.8,32.8,0,0,0,8.43,28.43c7.16,7.84,16.65,12.07,25.51,13.85a46.69,46.69,0,0,0,12.62.85,23.69,23.69,0,0,0,2.83-.31,26.79,26.79,0,0,0,2.65-.52c.86-.25,1.67-.42,2.46-.74l.48-.17,0,.05,0,0h0l-14.94,11.75h0l-.32.23-.39.31c-.43.33-.84.68-1.26,1q-1.23,1.06-2.35,2.23a34.48,34.48,0,0,0-4,5.15,40.2,40.2,0,0,0-5.25,12.47,44.49,44.49,0,0,0,2.94,28.94,33.82,33.82,0,0,0,22.92,18.71,37.68,37.68,0,0,0,15.9.36,41,41,0,0,0,8.18-2.47,42.44,42.44,0,0,0,4-1.93c.66-.36,1.32-.75,2-1.15l.6-.36Z"/><path class="cls-24" d="M171,98.49a40.91,40.91,0,0,0-14.36,11.63A33.85,33.85,0,0,0,150,124.35,30.75,30.75,0,0,0,157.63,151c6.57,7.39,15.39,11.45,23.68,13.19a43.6,43.6,0,0,0,11.86.86,24.73,24.73,0,0,0,2.68-.32,19.1,19.1,0,0,0,2.53-.5,20.79,20.79,0,0,0,2.35-.7l.23-.08c.09,0,.16-.06.15,0l.08,0s.06,0,.08,0a3.9,3.9,0,0,1,2.44-.48,2.26,2.26,0,0,1,1.73,1.66,2.72,2.72,0,0,1-.75,2.32c-.13.16-.28.32-.43.47l-.11.11-.45.41c-.84.78-1.74,1.57-2.66,2.36a144.13,144.13,0,0,1-12.21,9.3h0c-.22.16-.37.27-.63.49s-.8.64-1.19,1a30.55,30.55,0,0,0-2.22,2.11A33.08,33.08,0,0,0,181,188a37.67,37.67,0,0,0-4.91,11.72,40.63,40.63,0,0,0,2.94,27A32.07,32.07,0,0,0,200.53,244a35.05,35.05,0,0,0,14.78.3,37.66,37.66,0,0,0,7.58-2.3,39.63,39.63,0,0,0,3.72-1.79c.61-.33,1.22-.69,1.82-1.06l.51-.3.44-.28s2.3-1.55,6.31-4.48a196.38,196.38,0,0,0,16.46-13.46c.8-.73,2.29-2.12,3.54-3.35s2.56-2.6,3.86-3.93,2.53-2.78,3.83-4.2,2.51-2.94,3.71-4.48a96.19,96.19,0,0,0,12.5-20.48,72.12,72.12,0,0,0,6-23.44,65.69,65.69,0,0,0-.19-12.19,62.46,62.46,0,0,0-2.46-12,71,71,0,0,0-11.11-21.68,68,68,0,0,0-17.08-16.29,74,74,0,0,0-10-5.44,67.4,67.4,0,0,0-10.34-3.59,74.2,74.2,0,0,0-20.29-2.44,95.46,95.46,0,0,0-31.59,6.33c-.94.35-1.84.66-2.67,1l-2.31,1L174,97C172,98,171,98.49,171,98.49Z"/><path class="cls-9" d="M172,100.78q-.7.35-1.37.74l-1.36.76-.67.39-.51.33c-1.31.85-2.42,1.67-3.55,2.57a36.93,36.93,0,0,0-5.67,5.81,31.69,31.69,0,0,0-6.14,13.1,28.79,28.79,0,0,0,6.77,24.82,41.61,41.61,0,0,0,33,13.37,27.89,27.89,0,0,0,4.93-.8,17.51,17.51,0,0,0,2.21-.66l.23-.08s.05,0,.08,0h.12a.17.17,0,0,0,.12,0,7.77,7.77,0,0,1,4.88-1,4.23,4.23,0,0,1,2.21,1.16,5.08,5.08,0,0,1,1.25,2.17,5.42,5.42,0,0,1-1.5,4.65c-.27.32-.56.63-.85.93l-.23.22-.54.49c-.87.81-1.78,1.61-2.72,2.41a147.26,147.26,0,0,1-12.43,9.47h0a6.5,6.5,0,0,0-.56.44c-.37.28-.75.6-1.11.91a28.37,28.37,0,0,0-2.09,2,30.56,30.56,0,0,0-3.56,4.55,34.87,34.87,0,0,0-4.57,11,37.19,37.19,0,0,0,2.91,25.13,30.12,30.12,0,0,0,20.09,15.92,32.66,32.66,0,0,0,13.67.25,35.18,35.18,0,0,0,7-2.13,37.26,37.26,0,0,0,3.43-1.65c.56-.31,1.13-.65,1.67-1a8.83,8.83,0,0,0,.82-.5,213,213,0,0,0,18-13.78c1.49-1.27,3-2.58,4.45-3.95.68-.62,1.91-1.76,3-2.78s2.12-2.1,3.15-3.17a118.82,118.82,0,0,0,11.4-13.53c6.8-9.47,11.71-19.78,13.88-30.33a62.7,62.7,0,0,0-1.26-31.57,70,70,0,0,0-16-27.24,61.62,61.62,0,0,0-12.26-10.11,65.71,65.71,0,0,0-14.41-6.82,73.55,73.55,0,0,0-32.56-2.93A104.2,104.2,0,0,0,172,100.78Z"/><path class="cls-10" d="M173.1,103.08c-.41.21-.82.43-1.22.66l-1.11.63-.61.35-.3.18-.23.15c-.63.41-1.17.78-1.69,1.17s-1,.78-1.55,1.19a31.83,31.83,0,0,0-2.79,2.55,27,27,0,0,0-2.41,2.73,29.64,29.64,0,0,0-3.63,5.86,26.76,26.76,0,0,0-2.07,6.14,26.19,26.19,0,0,0,.27,12.17,28.11,28.11,0,0,0,5.71,10.82,33.72,33.72,0,0,0,9.41,7.72,39.25,39.25,0,0,0,10.67,4.08,42.38,42.38,0,0,0,5.29.8,35.85,35.85,0,0,0,5,0c.81-.08,1.6-.16,2.38-.27s1.53-.31,2.26-.47c.37-.09.73-.19,1.09-.3l1-.34c.4-.1.44,0,.54-.1a11.65,11.65,0,0,1,7.32-1.46,6.35,6.35,0,0,1,3.32,1.73,7.46,7.46,0,0,1,1.87,3.26,6.25,6.25,0,0,1-.29,3.73,11.56,11.56,0,0,1-2,3.24c-.4.49-.83,1-1.28,1.4l-.34.33-.63.58c-.89.82-1.83,1.65-2.79,2.47a149.82,149.82,0,0,1-12.64,9.63h0a6.16,6.16,0,0,0-.52.4l-.48.38-.52.43a26,26,0,0,0-2,1.85,28.39,28.39,0,0,0-3.33,4.24,32.2,32.2,0,0,0-4.23,10.18,34,34,0,0,0,2.85,23.21A28.06,28.06,0,0,0,202.18,239a30.1,30.1,0,0,0,12.57.2,32.42,32.42,0,0,0,6.41-2c1.06-.45,2.11-1,3.14-1.52l.77-.44.69-.41a8.75,8.75,0,0,0,.75-.46,211,211,0,0,0,17.83-13.62c1.47-1.26,2.93-2.54,4.38-3.89.67-.61,1.86-1.71,2.87-2.7s2-2,3-3.06a116.36,116.36,0,0,0,11-13c6.59-9.12,11.4-19.06,13.57-29.26a62.44,62.44,0,0,0,1.45-15.41,61.56,61.56,0,0,0-2.5-15.19,67.34,67.34,0,0,0-15.45-26.41,59.1,59.1,0,0,0-11.91-9.77,63.17,63.17,0,0,0-14-6.54,71.47,71.47,0,0,0-31.53-2.66A101.81,101.81,0,0,0,173.1,103.08Z"/><path class="cls-11" d="M174.17,105.38q-.55.28-1.08.59l-.86.49-1.07.63a34.82,34.82,0,0,0-3,2.15,31.66,31.66,0,0,0-4.74,4.76,27.35,27.35,0,0,0-5.26,10.91,24.2,24.2,0,0,0,.15,11.16,25.71,25.71,0,0,0,5.08,10,33.22,33.22,0,0,0,18.3,11.06,31.46,31.46,0,0,0,9.54.8,23.24,23.24,0,0,0,4.34-.68c.67-.16,1.43-.42,1.91-.59.12,0,.3-.06.35-.06a.55.55,0,0,0,.18-.05c3-1.52,6.4-2.58,9.76-1.94a8.44,8.44,0,0,1,4.42,2.31,9.83,9.83,0,0,1,2.49,4.34,8.33,8.33,0,0,1-.38,5,15.38,15.38,0,0,1-2.61,4.32A25.2,25.2,0,0,1,210,172.4l-.46.44-.72.67c-.91.85-1.87,1.69-2.85,2.53a152.48,152.48,0,0,1-12.86,9.79h0a5.26,5.26,0,0,0-.49.38l-.87.72a23.74,23.74,0,0,0-1.81,1.72,25.83,25.83,0,0,0-3.08,3.92A29.34,29.34,0,0,0,183,202a30.85,30.85,0,0,0,2.77,21.29A25.94,25.94,0,0,0,203,236.49a27.65,27.65,0,0,0,11.48.16,29.74,29.74,0,0,0,5.84-1.78c1-.41,1.91-.86,2.85-1.38l1.26-.72c.23-.13.46-.26.68-.42a208.64,208.64,0,0,0,17.62-13.45c1.45-1.24,2.89-2.51,4.32-3.83.67-.6,1.8-1.66,2.77-2.61s2-1.95,2.93-2.94A114,114,0,0,0,263.35,197c6.38-8.77,11.09-18.34,13.27-28.19a60.19,60.19,0,0,0,1.51-14.91,58.62,58.62,0,0,0-2.36-14.72,64.71,64.71,0,0,0-15-25.59,59.19,59.19,0,0,0-25.16-15.68,69.39,69.39,0,0,0-30.5-2.39A99.41,99.41,0,0,0,174.17,105.38Z"/><path class="cls-12" d="M175.25,107.68c-.7.35-1,.54-2.52,1.44a25.67,25.67,0,0,0-2.76,2,27.42,27.42,0,0,0-4.27,4.27,24.63,24.63,0,0,0-4.82,9.83,22.34,22.34,0,0,0,0,10.13,23.64,23.64,0,0,0,4.5,9.17,27.9,27.9,0,0,0,7.67,6.67,31.55,31.55,0,0,0,8.86,3.6,28.91,28.91,0,0,0,8.75.77,23.24,23.24,0,0,0,4-.64c.62-.15,1.37-.43,1.69-.51a2.86,2.86,0,0,0,.57-.14,25.34,25.34,0,0,1,5.92-2.22,15.14,15.14,0,0,1,6.29-.21,10.57,10.57,0,0,1,5.53,2.89,12.23,12.23,0,0,1,3.11,5.43,10.43,10.43,0,0,1-.48,6.22,19.28,19.28,0,0,1-3.26,5.4c-.67.82-1.39,1.59-2.14,2.34l-.57.55-.82.76c-.93.87-1.92,1.73-2.92,2.59a154.83,154.83,0,0,1-13.07,10h0a25.4,25.4,0,0,0-2.86,2.55,23.77,23.77,0,0,0-2.83,3.6,26.67,26.67,0,0,0-3.54,8.59A27.83,27.83,0,0,0,188,222,23.76,23.76,0,0,0,203.72,234a25.16,25.16,0,0,0,10.4.11,26.58,26.58,0,0,0,5.27-1.62,31.33,31.33,0,0,0,4.25-2.23A205.94,205.94,0,0,0,241,217c1.42-1.22,2.84-2.47,4.25-3.77.66-.6,1.74-1.61,2.68-2.52s1.9-1.87,2.82-2.83a111.78,111.78,0,0,0,10.27-12,74.92,74.92,0,0,0,13-27.13,57.89,57.89,0,0,0,1.57-14.41A55.94,55.94,0,0,0,273.38,140a62.12,62.12,0,0,0-14.46-24.77,56.62,56.62,0,0,0-24.4-15.06,67.27,67.27,0,0,0-29.47-2.12A97,97,0,0,0,175.25,107.68Z"/><path class="cls-13" d="M176.32,110q-.42.21-.82.44l-1.24.74-.79.49-.62.44c-.42.3-.76.57-1.12.86-.72.58-1.41,1.18-2,1.81s-1.21,1.3-1.75,2a21.38,21.38,0,0,0-2.73,4.25,20.08,20.08,0,0,0-1.64,4.51,21.34,21.34,0,0,0-.58,4.59,20.43,20.43,0,0,0,.49,4.53,21.28,21.28,0,0,0,3.92,8.31,25.23,25.23,0,0,0,6.83,6.13,29,29,0,0,0,8,3.33,30.81,30.81,0,0,0,4,.69,27.49,27.49,0,0,0,3.91,0,16.63,16.63,0,0,0,1.88-.24,16.2,16.2,0,0,0,1.82-.37c.29-.07.61-.18.86-.25l.39-.13.24,0,.23-.06.13,0a.84.84,0,0,0,.22-.08,30.4,30.4,0,0,1,7.1-2.66,18.21,18.21,0,0,1,7.54-.25,12.67,12.67,0,0,1,6.64,3.47,14.63,14.63,0,0,1,3.74,6.52,12.52,12.52,0,0,1-.58,7.46,23.09,23.09,0,0,1-3.92,6.48c-.81,1-1.67,1.91-2.57,2.8l-.68.66c-.24.24-.38.36-.91.84-1,.89-2,1.77-3,2.65A157.17,157.17,0,0,1,196,190h0a4.51,4.51,0,0,0-.41.32l-.21.19-.4.34q-.8.69-1.52,1.44a21.92,21.92,0,0,0-2.57,3.27,24,24,0,0,0-3.19,7.79,24.87,24.87,0,0,0,2.52,17.45,21.57,21.57,0,0,0,14.24,10.65,22.68,22.68,0,0,0,9.33.08,23.85,23.85,0,0,0,4.71-1.45,23.11,23.11,0,0,0,2.3-1.12l.56-.32.31-.16a5.82,5.82,0,0,0,.55-.34A203.44,203.44,0,0,0,239.39,215c1.4-1.2,2.8-2.43,4.19-3.71.65-.59,1.69-1.56,2.59-2.44s1.83-1.79,2.71-2.71a109.55,109.55,0,0,0,9.9-11.56,73.12,73.12,0,0,0,12.66-26.06,55.4,55.4,0,0,0,1.63-13.9A53.09,53.09,0,0,0,271,140.87a59.55,59.55,0,0,0-14-23.95,54.14,54.14,0,0,0-23.65-14.44A65.19,65.19,0,0,0,205,100.64,94.6,94.6,0,0,0,176.32,110Z"/><path class="cls-14" d="M177.39,112.27c-.24.12-.47.25-.69.38l-.92.56c-.44.27-1,.58-1.3.83s-.7.52-1,.77a21.31,21.31,0,0,0-3.34,3.31,20,20,0,0,0-3.91,7.71,18.42,18.42,0,0,0,3.21,15.57,23.45,23.45,0,0,0,13.06,8.6,22.31,22.31,0,0,0,7.14.69,19.59,19.59,0,0,0,3.36-.55l.76-.22c.25-.08.35-.08.53-.13s.24-.05.32-.08a1,1,0,0,0,.22-.08,35.39,35.39,0,0,1,8.28-3.11,21.22,21.22,0,0,1,8.8-.3,14.79,14.79,0,0,1,7.75,4,17,17,0,0,1,4.36,7.6,14.61,14.61,0,0,1-.67,8.71,27,27,0,0,1-4.57,7.56c-.94,1.14-1.95,2.23-3,3.27l-.8.77c-.28.27-.46.44-1,.93-1,.91-2,1.81-3.05,2.7a159.51,159.51,0,0,1-13.5,10.29h0l-.37.28c-.12.11-.18.18-.48.42-.48.41-.93.85-1.37,1.3a19.34,19.34,0,0,0-2.31,2.94,21.1,21.1,0,0,0-2.85,7,22,22,0,0,0,2.35,15.52,19.32,19.32,0,0,0,12.74,9.39,20.31,20.31,0,0,0,8.27.05,21.43,21.43,0,0,0,4.16-1.29,21,21,0,0,0,2-1c.4-.23.51-.27.68-.37a4.6,4.6,0,0,0,.48-.3,200.64,200.64,0,0,0,17-13c1.38-1.18,2.76-2.39,4.12-3.65.65-.59,1.63-1.5,2.5-2.35s1.75-1.72,2.6-2.6a107.32,107.32,0,0,0,9.52-11.06,71.34,71.34,0,0,0,12.35-25,53.13,53.13,0,0,0,1.69-13.4,50.52,50.52,0,0,0-1.91-13.32,57,57,0,0,0-13.46-23.12,51.58,51.58,0,0,0-22.89-13.81,63.09,63.09,0,0,0-27.4-1.58A92.33,92.33,0,0,0,177.39,112.27Z"/><path class="cls-15" d="M178.46,114.57l-.58.32-.63.4q-.57.35-1.12.71c-.39.25-.62.45-.93.69a20.81,20.81,0,0,0-2.91,2.85,17.67,17.67,0,0,0-3.42,6.7,15.73,15.73,0,0,0-.24,7.09,16.83,16.83,0,0,0,2.85,6.59,19.37,19.37,0,0,0,5.18,5,21.79,21.79,0,0,0,6.18,2.76,19.26,19.26,0,0,0,6.32.62,14.65,14.65,0,0,0,3-.48c.21,0,.48-.15.63-.17l.48-.12a1.64,1.64,0,0,0,.49-.15,40.59,40.59,0,0,1,9.47-3.55,24.24,24.24,0,0,1,10.06-.34,16.92,16.92,0,0,1,8.85,4.62,19.36,19.36,0,0,1,5,8.69,16.69,16.69,0,0,1-.76,10,30.88,30.88,0,0,1-5.22,8.64c-1.08,1.3-2.23,2.54-3.42,3.74-.29.3-.6.59-.91.88s-.55.52-1.09,1c-1,.93-2.05,1.85-3.12,2.76a163,163,0,0,1-13.71,10.45h0a5.31,5.31,0,0,0-.67.57,16.15,16.15,0,0,0-1.21,1.15,17.06,17.06,0,0,0-2,2.6,18.51,18.51,0,0,0-2.49,6.16,19.11,19.11,0,0,0,2.16,13.6,17.06,17.06,0,0,0,11.23,8.15,17.83,17.83,0,0,0,7.21,0,18.78,18.78,0,0,0,3.62-1.12,19.07,19.07,0,0,0,1.76-.86,6.46,6.46,0,0,0,.91-.5,198.92,198.92,0,0,0,16.76-12.79c1.36-1.17,2.72-2.36,4.05-3.6.64-.58,1.58-1.45,2.4-2.26s1.68-1.64,2.5-2.48a105.67,105.67,0,0,0,9.14-10.57,69.67,69.67,0,0,0,12-23.93A50.91,50.91,0,0,0,268,155.45a47.83,47.83,0,0,0-1.77-12.85,54.33,54.33,0,0,0-13-22.3,49.14,49.14,0,0,0-22.13-13.19,61,61,0,0,0-26.37-1.3A90.09,90.09,0,0,0,178.46,114.57Z"/><path class="cls-16" d="M179.54,116.87a6.76,6.76,0,0,0-.93.56l-.83.54c-.29.19-.63.42-.85.6a17.69,17.69,0,0,0-2.48,2.43,15.44,15.44,0,0,0-3,5.67,14.16,14.16,0,0,0,2.08,11.78,17.18,17.18,0,0,0,9.67,6.77,16.08,16.08,0,0,0,5.49.58,13.35,13.35,0,0,0,2.6-.42c.22-.07.33-.07.5-.11s.35-.1.42-.1a1.36,1.36,0,0,0,.44-.14,45.57,45.57,0,0,1,10.65-4,27.28,27.28,0,0,1,11.32-.38,19,19,0,0,1,10,5.2,21.74,21.74,0,0,1,5.61,9.78,18.78,18.78,0,0,1-.86,11.2,34.78,34.78,0,0,1-5.88,9.71c-1.21,1.47-2.51,2.86-3.85,4.2q-.5.51-1,1c-.35.34-.63.61-1.18,1.11-1,1-2.1,1.89-3.18,2.82a165,165,0,0,1-13.93,10.62h0a3.52,3.52,0,0,0-.55.47l-.22.2-.27.25-.51.51A14.45,14.45,0,0,0,197,200a15.9,15.9,0,0,0-2.15,5.32A16.31,16.31,0,0,0,196.78,217a14.76,14.76,0,0,0,9.7,6.94,15.42,15.42,0,0,0,6.17,0,16.33,16.33,0,0,0,3.09-1l.75-.34.37-.19.31-.15a4.23,4.23,0,0,0,.73-.4,196.06,196.06,0,0,0,16.54-12.63c1.34-1.15,2.67-2.32,4-3.54.63-.57,1.52-1.4,2.31-2.17s1.6-1.57,2.39-2.37a103.9,103.9,0,0,0,8.77-10.08,68,68,0,0,0,11.74-22.86,48.61,48.61,0,0,0,1.81-12.39,45.15,45.15,0,0,0-1.62-12.38A51.8,51.8,0,0,0,251.36,122,46.6,46.6,0,0,0,230,109.43a58.87,58.87,0,0,0-25.34-1A87.83,87.83,0,0,0,179.54,116.87Z"/><path class="cls-17" d="M216.46,219.8a193.73,193.73,0,0,0,16.33-12.46c1.32-1.13,2.63-2.28,3.92-3.48.63-.57,1.46-1.35,2.22-2.09s1.53-1.49,2.28-2.26a101.45,101.45,0,0,0,8.4-9.59A66.29,66.29,0,0,0,261,168.13a46.27,46.27,0,0,0,1.87-11.88,42.54,42.54,0,0,0-1.48-11.91,49.25,49.25,0,0,0-12-20.66,44.17,44.17,0,0,0-20.62-11.94,56.74,56.74,0,0,0-24.31-.76,85.74,85.74,0,0,0-23.93,8.19,5.18,5.18,0,0,0-.74.45c-.11.11-.78.52-1.2.84a13.06,13.06,0,0,0-4.59,6.72,11.92,11.92,0,0,0,1.59,9.88,14.26,14.26,0,0,0,12.65,6.3,16,16,0,0,0,2.15-.33,5.12,5.12,0,0,0,1.14-.29,50.74,50.74,0,0,1,11.83-4.44,30.3,30.3,0,0,1,12.57-.42,21.14,21.14,0,0,1,11.07,5.78,24.14,24.14,0,0,1,6.23,10.86,20.86,20.86,0,0,1-1,12.44,38.57,38.57,0,0,1-6.53,10.79c-1.34,1.63-2.78,3.18-4.28,4.67-.37.38-.75.74-1.13,1.1s-.72.69-1.28,1.19c-1.05,1-2.14,1.93-3.25,2.88a167,167,0,0,1-14.14,10.78,13.91,13.91,0,0,0-2.7,3,13.27,13.27,0,0,0-1.8,4.48,13.55,13.55,0,0,0,1.7,9.78,12.44,12.44,0,0,0,8.15,5.74,12.85,12.85,0,0,0,5.14,0A15.12,15.12,0,0,0,216.46,219.8Z"/><path class="cls-18" d="M215.72,218.72a192.28,192.28,0,0,0,16.22-12.38c1.31-1.12,2.61-2.27,3.89-3.45.62-.57,1.43-1.32,2.17-2s1.49-1.45,2.22-2.2a101.06,101.06,0,0,0,8.2-9.33,65.48,65.48,0,0,0,11.28-21.24,45.1,45.1,0,0,0,1.9-11.63,41.2,41.2,0,0,0-1.4-11.67,47.91,47.91,0,0,0-11.72-20.23,42.89,42.89,0,0,0-20.23-11.62,55.66,55.66,0,0,0-23.78-.62,84.79,84.79,0,0,0-23.32,8,4.57,4.57,0,0,0-.65.4l-.32.25-.62.43a10.06,10.06,0,0,0-1.93,1.83,11.06,11.06,0,0,0-2.23,4.19,10.76,10.76,0,0,0,1.35,8.88,12.71,12.71,0,0,0,11.36,5.74c.68,0,1.41-.21,1.91-.28l.4-.09.23,0a1.4,1.4,0,0,0,.38-.13,53.3,53.3,0,0,1,12.45-4.67,31.92,31.92,0,0,1,13.22-.44,22.23,22.23,0,0,1,11.64,6.07,25.39,25.39,0,0,1,6.55,11.42,21.94,21.94,0,0,1-1,13.08A40.59,40.59,0,0,1,227,178.37c-1.41,1.71-2.92,3.34-4.5,4.91-.39.4-.79.78-1.19,1.16s-.76.73-1.32,1.24c-1.07,1-2.17,2-3.28,2.91a169,169,0,0,1-14.25,10.86,2.62,2.62,0,0,0-.42.36l-.2.23-.39.39a11.62,11.62,0,0,0-3,5.77,12.11,12.11,0,0,0,1.56,8.78,11.22,11.22,0,0,0,7.35,5.13,11.75,11.75,0,0,0,6.89-.73l.56-.25.31-.12A2.94,2.94,0,0,0,215.72,218.72Z"/><path class="cls-19" d="M213.47,215.44a187.88,187.88,0,0,0,15.89-12.12c1.28-1.09,2.54-2.21,3.78-3.35.61-.55,1.34-1.24,2-1.9s1.38-1.33,2-2a99.52,99.52,0,0,0,7.61-8.56,62.9,62.9,0,0,0,10.8-19.57,41.48,41.48,0,0,0,2-10.84,37.23,37.23,0,0,0-1.17-10.94,44,44,0,0,0-10.94-18.94,39.09,39.09,0,0,0-19-10.63,52.3,52.3,0,0,0-22.16-.19A81.6,81.6,0,0,0,182.84,124a2.74,2.74,0,0,0-.74.55l-.08.09-.18.14-.34.29c-.22.2-.44.41-.62.62a7.74,7.74,0,0,0-1.48,2.72,7.22,7.22,0,0,0,.74,5.87,8.21,8.21,0,0,0,4.65,3.61,7.82,7.82,0,0,0,2.8.33c.22,0,.42,0,.63,0l.31,0,.15,0h.09a1.29,1.29,0,0,0,.61-.13,61.24,61.24,0,0,1,14.3-5.37,36.64,36.64,0,0,1,15.19-.51,25.56,25.56,0,0,1,13.37,7,29.11,29.11,0,0,1,7.53,13.13,23.89,23.89,0,0,1,.58,7.6,27.64,27.64,0,0,1-1.74,7.43,46.63,46.63,0,0,1-7.89,13c-1.63,2-3.36,3.84-5.17,5.64-.45.45-.91.9-1.37,1.34s-.9.85-1.47,1.37c-1.1,1-2.24,2-3.39,3a172.5,172.5,0,0,1-14.59,11.12,1.88,1.88,0,0,0-.51.54l-.05.09-.12.14-.24.28q-.23.29-.42.6a7.7,7.7,0,0,0-1.07,2.7,7.89,7.89,0,0,0,1.1,5.79,7.49,7.49,0,0,0,4.89,3.32,7.69,7.69,0,0,0,3,0c.25-.05.5-.12.75-.19l.37-.13.19-.07.1,0A2,2,0,0,0,213.47,215.44Z"/><path class="cls-20" d="M213.09,214.89a187.36,187.36,0,0,0,15.83-12.08c1.27-1.09,2.53-2.2,3.77-3.34.61-.55,1.33-1.23,2-1.88s1.36-1.31,2-2a98.35,98.35,0,0,0,7.52-8.43A62.53,62.53,0,0,0,255,167.88a41,41,0,0,0,2-10.7,36.6,36.6,0,0,0-1.13-10.82A43.27,43.27,0,0,0,245,127.64a38.48,38.48,0,0,0-18.84-10.47,51.81,51.81,0,0,0-21.89-.12,81.19,81.19,0,0,0-21.17,7.51,2.42,2.42,0,0,0-.67.5l-.15.17-.31.26q-.3.27-.57.56a6.73,6.73,0,0,0-1.37,2.49,6.63,6.63,0,0,0,.65,5.36,7.49,7.49,0,0,0,4.24,3.33,7.61,7.61,0,0,0,2.54.31,5.48,5.48,0,0,0,.59,0l.29,0h.17a1.22,1.22,0,0,0,.57-.13,62.59,62.59,0,0,1,14.61-5.48,37.44,37.44,0,0,1,15.52-.52,26.1,26.1,0,0,1,13.66,7.13,29.77,29.77,0,0,1,7.69,13.41,24.39,24.39,0,0,1,.59,7.76,28.27,28.27,0,0,1-1.77,7.59,47.71,47.71,0,0,1-8.06,13.33c-1.66,2-3.44,3.93-5.28,5.76-.46.46-.93.92-1.4,1.37s-.92.88-1.49,1.4c-1.11,1-2.25,2-3.4,3a172.88,172.88,0,0,1-14.64,11.16,1.72,1.72,0,0,0-.47.49c0,.05,0,.09-.1.16l-.22.26c-.14.18-.27.36-.39.55a7.2,7.2,0,0,0,0,7.76,6.84,6.84,0,0,0,4.47,3,7,7,0,0,0,2.75,0,6.47,6.47,0,0,0,.69-.18l.34-.11.2,0A1.81,1.81,0,0,0,213.09,214.89Z"/><path class="cls-21" d="M212.69,214.31a187.11,187.11,0,0,0,15.77-12c1.26-1.09,2.52-2.19,3.75-3.33.61-.55,1.32-1.21,2-1.85s1.34-1.3,2-2a98.24,98.24,0,0,0,7.41-8.29,62,62,0,0,0,10.64-19,40.21,40.21,0,0,0,2-10.56,36,36,0,0,0-1.09-10.69,42.59,42.59,0,0,0-10.67-18.49,37.83,37.83,0,0,0-18.63-10.3,51.19,51.19,0,0,0-21.6,0,80.65,80.65,0,0,0-20.84,7.43,7.1,7.1,0,0,0-2.66,3.52,6,6,0,0,0,.56,4.83,6.66,6.66,0,0,0,3.8,3,7.63,7.63,0,0,0,2.27.3c.86-.08,1,0,1.4-.16a64.11,64.11,0,0,1,14.94-5.61,38.28,38.28,0,0,1,15.87-.53,26.66,26.66,0,0,1,14,7.29,30.37,30.37,0,0,1,7.86,13.72,24.88,24.88,0,0,1,.6,7.94,28.79,28.79,0,0,1-1.81,7.77A48.72,48.72,0,0,1,232,180.9c-1.7,2.05-3.51,4-5.4,5.9-.47.47-.95.94-1.43,1.39s-.94.9-1.52,1.42c-1.12,1-2.26,2-3.42,3a173.66,173.66,0,0,1-14.7,11.21,7.07,7.07,0,0,0-1.87,3.5,6.49,6.49,0,0,0,.93,4.76,6.17,6.17,0,0,0,4,2.71A7.14,7.14,0,0,0,212.69,214.31Z"/><path class="cls-22" d="M187.81,134.6a1,1,0,0,1-.75,0l-.11,0h-.18l-.36,0a4.24,4.24,0,0,1-.72-.18,4.18,4.18,0,0,1-2.36-1.94,3.86,3.86,0,0,1-.3-3.09,3.91,3.91,0,0,1,.34-.73c.07-.12.15-.23.23-.35l.13-.17.05-.12a1.38,1.38,0,0,1,.61-.67,79,79,0,0,1,19.76-7.17,49.24,49.24,0,0,1,20.66-.2,35.67,35.67,0,0,1,17.94,9.73A40.31,40.31,0,0,1,253,147.39a33.6,33.6,0,0,1,1,10.26,38.14,38.14,0,0,1-2.08,10.11,60.68,60.68,0,0,1-10.36,18,97.74,97.74,0,0,1-7.07,7.84q-.93.94-1.89,1.85c-.63.61-1.29,1.23-1.89,1.77-1.21,1.12-2.45,2.2-3.69,3.27a183.6,183.6,0,0,1-15.57,11.88,1.17,1.17,0,0,1-.82.18l-.12,0-.19,0-.39,0a4.27,4.27,0,0,1-.77-.07,3.94,3.94,0,0,1-2.57-1.7,4.09,4.09,0,0,1-.61-3,4,4,0,0,1,.21-.74c0-.12.1-.24.16-.35l.09-.17s0-.08,0-.12a1.13,1.13,0,0,1,.44-.68,176.57,176.57,0,0,0,14.9-11.36c1.18-1,2.35-2,3.48-3.09.58-.53,1.09-1,1.6-1.5s1-1,1.54-1.5c2-2,4-4.12,5.79-6.32A52.32,52.32,0,0,0,243,167.39a31,31,0,0,0,1.94-8.33,26.74,26.74,0,0,0-.65-8.51,32.57,32.57,0,0,0-8.43-14.71,28.59,28.59,0,0,0-15-7.82,41,41,0,0,0-17,.57A68.58,68.58,0,0,0,187.81,134.6Z"/><path class="cls-23" d="M255.33,195.06H182.09l-.11,0h-.3c-.66,0-1.3.08-1.95.15a38.34,38.34,0,0,0-3.81,75.7,37.44,37.44,0,0,0,3.81.58c.65.07,1.29.12,1.95.15h.3l.11,0h73.47l.11,0h.3c.66,0,1.3-.08,1.95-.15a37.46,37.46,0,0,0,3.81-.58,38,38,0,0,0,7.2-2.24,38.34,38.34,0,0,0-11-73.47c-.65-.06-1.29-.11-1.95-.15h-.3l-.11,0Z"/><path class="cls-24" d="M182.31,197.59h-.51q-.91,0-1.82.14-1.8.19-3.55.54a35.81,35.81,0,0,0,0,70.16q1.75.36,3.55.54.9.09,1.82.14H182l.11,0h73.44l.11,0h.19q.92,0,1.82-.14a35.81,35.81,0,0,0,0-71.25q-.9-.09-1.82-.14H182.31Z"/><path class="cls-9" d="M182.31,200.13a1.86,1.86,0,0,0-.4,0c-.53,0-1.12.07-1.67.13q-1.68.17-3.3.5a33.28,33.28,0,0,0,0,65.2c1.08.22,2.18.39,3.3.51.55.05,1.14.1,1.67.13a1.87,1.87,0,0,0,.4,0h73a1.86,1.86,0,0,0,.4,0c.54,0,1.12-.07,1.67-.13a33.19,33.19,0,0,0,9.55-2.44,33.3,33.3,0,0,0,0-61.32,33.11,33.11,0,0,0-9.55-2.45c-.55-.06-1.14-.1-1.67-.13a2.06,2.06,0,0,0-.4,0Z"/><path class="cls-10" d="M182.31,202.66a1.73,1.73,0,0,0-.37,0l-1.45.12a30.21,30.21,0,0,0-3.05.47,30.74,30.74,0,0,0,0,60.23q1.5.31,3.05.47l1.45.12a1.76,1.76,0,0,0,.37,0h73a1.59,1.59,0,0,0,.37,0l1.45-.12q1.55-.16,3.05-.47a30.75,30.75,0,0,0,0-60.23q-1.5-.31-3.05-.47l-1.45-.12a1.78,1.78,0,0,0-.37,0Z"/><path class="cls-11" d="M182.31,205.19a1.47,1.47,0,0,0-.34,0,.47.47,0,0,1-.14,0l-.36,0-.72.06a28,28,0,0,0-8.09,2.07,28.22,28.22,0,0,0,0,52,28,28,0,0,0,8.09,2.07l.72.06.36,0a.4.4,0,0,1,.14,0,1.63,1.63,0,0,0,.34,0h73a1.64,1.64,0,0,0,.34,0,.5.5,0,0,1,.14,0l.36,0,.72-.06a27.53,27.53,0,0,0,2.8-.43,28.21,28.21,0,0,0,0-55.26,27.58,27.58,0,0,0-2.8-.43l-.71-.06-.36,0a.4.4,0,0,1-.14,0,1.65,1.65,0,0,0-.34,0Z"/><path class="cls-12" d="M182.31,207.73c.19,0-2.34.18-3.84.52a25.4,25.4,0,0,0-4.82,1.49,25.68,25.68,0,0,0,4.82,48.8c1.5.34,4,.52,3.84.52h73c.26,0,.14,0,1.3-.13a25.67,25.67,0,0,0,2.55-50.68,25.09,25.09,0,0,0-2.55-.39c-1.16-.09-1-.13-1.29-.13Z"/><path class="cls-13" d="M182.31,210.26l-.27,0a1.53,1.53,0,0,1-.17,0l-.59.05a22.93,22.93,0,0,0-6.64,1.7,23.14,23.14,0,0,0,4.34,44,22.93,22.93,0,0,0,2.3.35l.59.05.17,0a1.22,1.22,0,0,0,.27,0h73a1.23,1.23,0,0,0,.27,0,1.07,1.07,0,0,1,.18,0l.59-.05a22.19,22.19,0,0,0,2.3-.35,22.87,22.87,0,0,0,4.34-1.35,23.13,23.13,0,0,0-6.64-44.33l-.59-.05a1.09,1.09,0,0,1-.17,0,1.23,1.23,0,0,0-.27,0Z"/><path class="cls-14" d="M182.31,212.8l-.25,0a1.89,1.89,0,0,1-.53.08,20.38,20.38,0,0,0-5.91,1.51,20.6,20.6,0,0,0,3.87,39.16,20.44,20.44,0,0,0,2,.31,1.89,1.89,0,0,1,.53.08l.25,0h73l.25,0,.12,0h.15l.26,0a20.33,20.33,0,0,0,2-.31,20.6,20.6,0,0,0-2-40.68,1.73,1.73,0,0,1-.53-.08l-.25,0Z"/><path class="cls-15" d="M182.31,215.33l-.21,0-.11,0-.05,0h-.14a18.06,18.06,0,0,0,0,35.94h.14l.05,0,.11,0,.21,0h73l.21,0,.11,0,.05,0h.14A18,18,0,0,0,261,250a18.07,18.07,0,0,0-3.39-34.35,17.87,17.87,0,0,0-1.79-.27h-.14l-.05,0-.11,0-.21,0Z"/><path class="cls-16" d="M182.31,217.87a.93.93,0,0,0-.37.08,1.12,1.12,0,0,1-.28,0l-.39.05-.76.13a15.54,15.54,0,0,0-7.85,26.2,15.47,15.47,0,0,0,7.85,4.23l.76.14.39.05a1.15,1.15,0,0,1,.28,0,.94.94,0,0,0,.37.08h73a.9.9,0,0,0,.37-.08,1.2,1.2,0,0,1,.28,0l.39-.05.76-.14a15.15,15.15,0,0,0,2.91-.9,15.53,15.53,0,0,0-2.92-29.53l-.76-.14L256,218a1.28,1.28,0,0,1-.28,0,.93.93,0,0,0-.37-.08Z"/><path class="cls-17" d="M255.33,220.4h-73a.77.77,0,0,0-.31.07l-.07,0a1.72,1.72,0,0,1-.26,0l-.64.11a13,13,0,0,0,0,25.47l.64.11a1.84,1.84,0,0,1,.26,0l.07,0a.77.77,0,0,0,.31.06h73a.77.77,0,0,0,.31-.06l.08,0a1.89,1.89,0,0,1,.26,0l.64-.11a12.9,12.9,0,0,0,2.44-.76,13,13,0,0,0,0-24,12.89,12.89,0,0,0-2.44-.76l-.64-.11a1.77,1.77,0,0,1-.26,0l-.08,0A.77.77,0,0,0,255.33,220.4Z"/><path class="cls-18" d="M255.33,221.71h-73a.66.66,0,0,0-.28.06.85.85,0,0,1-.17.08l-.58.1a11.69,11.69,0,0,0-5.91,19.71,11.75,11.75,0,0,0,3.71,2.5,11.59,11.59,0,0,0,2.19.68l.58.1a.85.85,0,0,1,.17.08.7.7,0,0,0,.28.06h73a.71.71,0,0,0,.28-.06.82.82,0,0,1,.17-.08l.58-.1a11.61,11.61,0,0,0,2.19-.68,11.8,11.8,0,0,0,3.71-2.5,11.69,11.69,0,0,0-5.91-19.71l-.58-.1a.82.82,0,0,1-.17-.08A.66.66,0,0,0,255.33,221.71Z"/><path class="cls-19" d="M255.33,225.69h-73a.55.55,0,0,0-.36.16l0,0-.19,0-.37.1a7.26,7.26,0,0,0-.71.26,7.71,7.71,0,0,0-2.45,12.56,7.74,7.74,0,0,0,2.45,1.65c.23.1.47.18.71.26l.37.1.19,0,0,0a.54.54,0,0,0,.36.16h73a.54.54,0,0,0,.36-.16l0,0,.19,0,.37-.1c.24-.07.48-.16.71-.26a7.71,7.71,0,0,0,2.45-12.56,7.66,7.66,0,0,0-2.45-1.65,7.31,7.31,0,0,0-.71-.26l-.37-.1-.19,0s0,0,0,0A.56.56,0,0,0,255.33,225.69Z"/><path class="cls-20" d="M255.33,226.35h-73a.5.5,0,0,0-.33.14s0,0-.1.08l-.33.1c-.22.07-.44.15-.65.24a7.05,7.05,0,0,0,0,13c.21.09.43.17.65.24l.33.09c.07,0,.06.06.1.08a.5.5,0,0,0,.33.14h73a.5.5,0,0,0,.33-.14s0,0,.1-.08l.33-.09a6.87,6.87,0,0,0,.65-.24,7.05,7.05,0,0,0,0-13,6.87,6.87,0,0,0-.65-.24l-.33-.1c-.07,0-.06-.05-.1-.08A.5.5,0,0,0,255.33,226.35Z"/><path class="cls-21" d="M255.33,227.06h-73a.44.44,0,0,0-.29.13l-.07.07,0,0-.15,0c-.2.06-.39.13-.58.21a6.34,6.34,0,0,0,0,11.68c.19.08.38.15.58.21l.15,0,0,0,.07.07a.45.45,0,0,0,.29.13h73a.45.45,0,0,0,.3-.13l.07-.07,0,0,.15,0c.2-.06.39-.13.58-.21a6.34,6.34,0,0,0,0-11.68c-.19-.08-.38-.15-.58-.21l-.15,0,0,0-.07-.07A.44.44,0,0,0,255.33,227.06Z"/><path class="cls-22" d="M182.31,237.42c-.13,0-.25-.11-.36-.32a.39.39,0,0,0,0-.08l-.17-.09-.33-.2a4,4,0,0,1,0-6.67l.33-.2.17-.09a.39.39,0,0,0,0-.08c.11-.2.23-.32.36-.32h73c.13,0,.25.11.36.32a.25.25,0,0,0,0,.08l.17.09.33.2a4.34,4.34,0,0,1,.6.49,4,4,0,0,1,0,5.69,4.36,4.36,0,0,1-.6.49l-.33.2-.17.09a.24.24,0,0,0,0,.08c-.11.2-.24.32-.36.32Z"/></svg>