<svg id="Layer_1" data-name="Layer 1" xmlns="http://www.w3.org/2000/svg" xmlns:xlink="http://www.w3.org/1999/xlink" viewBox="0 0 419.5 377.36"><defs><style>.cls-1{fill:#141414;}.cls-2{fill:#121212;}.cls-3{fill:url(#linear-gradient);}.cls-4{fill:url(#linear-gradient-2);}.cls-5{fill:url(#linear-gradient-3);}.cls-6{fill:url(#linear-gradient-4);}.cls-7{fill:url(#linear-gradient-5);}.cls-8{fill:url(#linear-gradient-6);}.cls-10,.cls-11,.cls-12,.cls-13,.cls-14,.cls-15,.cls-16,.cls-17,.cls-23,.cls-24,.cls-9{fill:#ff3657;}.cls-9{opacity:0.1;}.cls-10{opacity:0.14;}.cls-11{opacity:0.18;}.cls-12{opacity:0.21;}.cls-13{opacity:0.25;}.cls-14{opacity:0.29;}.cls-15{opacity:0.33;}.cls-16{opacity:0.36;}.cls-17,.cls-19{opacity:0.4;}.cls-18{fill:#ff3c26;}.cls-18,.cls-27{opacity:0.5;}.cls-19,.cls-20{fill:#ffa850;}.cls-20,.cls-21{opacity:0.7;}.cls-21{fill:#ffa759;}.cls-22{fill:#faffe7;}.cls-23{opacity:0.03;}.cls-24{opacity:0.07;}.cls-25{opacity:0.6;}.cls-26{opacity:0.3;}.cls-28{fill:#fff;}.cls-29{fill:#232323;}</style><linearGradient id="linear-gradient" x1="-3747.07" y1="-7684.59" x2="-3747.07" y2="-7709.56" gradientTransform="matrix(-0.95, 0, 0, 0.95, -3199.91, 7547.78)" gradientUnits="userSpaceOnUse"><stop offset="0" stop-color="#141414"/><stop offset="0.34" stop-color="#111"/><stop offset="0.55" stop-color="#090909"/><stop offset="0.67"/><stop offset="0.82" stop-color="#040404"/><stop offset="0.96" stop-color="#0f0f0f"/><stop offset="1" stop-color="#141414"/></linearGradient><linearGradient id="linear-gradient-2" x1="-3747.07" y1="-7684.59" x2="-3747.07" y2="-7709.56" gradientTransform="matrix(-0.95, 0, 0, 0.95, -3199.91, 7547.78)" gradientUnits="userSpaceOnUse"><stop offset="0" stop-color="#c2c1c1"/><stop offset="0.03" stop-color="#9f9e9e"/><stop offset="0.06" stop-color="#6f6f6f"/><stop offset="0.1" stop-color="#474747"/><stop offset="0.13" stop-color="#282828"/><stop offset="0.17" stop-color="#121212"/><stop offset="0.2" stop-color="#050505"/><stop offset="0.23"/><stop offset="0.27" stop-color="#060606"/><stop offset="0.32" stop-color="#161616"/><stop offset="0.38" stop-color="#303030"/><stop offset="0.44" stop-color="#555"/><stop offset="0.51" stop-color="#858585"/><stop offset="0.57" stop-color="#bebebe"/><stop offset="0.59" stop-color="#cecece"/><stop offset="0.63" stop-color="#c9c9c9"/><stop offset="0.67" stop-color="#bbb"/><stop offset="0.72" stop-color="#a3a3a3"/><stop offset="0.77" stop-color="#828282"/><stop offset="0.82" stop-color="#575757"/><stop offset="0.87" stop-color="#242424"/><stop offset="0.9"/><stop offset="1" stop-color="#969494"/></linearGradient><linearGradient id="linear-gradient-3" x1="-3777.31" y1="-7686.39" x2="-3777.31" y2="-7707.76" xlink:href="#linear-gradient"/><linearGradient id="linear-gradient-4" x1="60.24" y1="161.07" x2="60.24" y2="137.36" gradientTransform="matrix(1, 0, 0, 1, 0, 0)" xlink:href="#linear-gradient"/><linearGradient id="linear-gradient-5" x1="60.24" y1="161.07" x2="60.24" y2="137.36" gradientTransform="matrix(1, 0, 0, 1, 0, 0)" xlink:href="#linear-gradient-2"/><linearGradient id="linear-gradient-6" x1="31.51" y1="159.37" x2="31.51" y2="139.06" gradientTransform="matrix(1, 0, 0, 1, 0, 0)" xlink:href="#linear-gradient"/></defs><title>ico3</title><rect class="cls-1" x="53.4" y="141.33" width="312.86" height="14.84"/><rect class="cls-1" x="53.4" y="229.45" width="312.87" height="14.84"/><path class="cls-2" d="M359.3,295.69c-18.42,0-42.85-10-59.29-55.27a2.7,2.7,0,1,1,5.07-1.84c19.28,53.05,49.53,54.27,65.83,50.28,25.58-6.26,44.67-30.41,43.1-42.26-.88-6.64-8.29-7.88-14.34-7.73a2.67,2.67,0,0,1-2.72-3.16,2.79,2.79,0,0,1,2.76-2.24c15.6-.3,19,7.64,19.66,12.42,2.07,15.65-19.72,41.49-47.17,48.21A54.48,54.48,0,0,1,359.3,295.69Z"/><rect class="cls-3" x="345.78" y="224.47" width="27.31" height="23.71"/><rect class="cls-4" x="352.35" y="224.47" width="14.15" height="23.71"/><polygon class="cls-5" points="372.72 246.48 403.58 244.96 403.58 227.7 372.72 226.18 372.72 246.48"/><path class="cls-2" d="M60.37,208.58A54.25,54.25,0,0,1,47.47,207C20,200.27-1.77,174.43.3,158.78c.63-4.79,4-12.77,19.82-12.41a2.7,2.7,0,0,1,2.63,2.76A2.66,2.66,0,0,1,20,151.76c-6-.14-13.47,1.09-14.34,7.73-1.57,11.85,17.52,36,43.1,42.26,16.31,4,46.56,2.77,65.83-50.28a2.7,2.7,0,0,1,5.07,1.84C103.22,198.55,78.78,208.58,60.37,208.58Z"/><rect class="cls-6" x="46.58" y="137.36" width="27.31" height="23.71"/><rect class="cls-7" x="53.16" y="137.36" width="14.15" height="23.71"/><polygon class="cls-8" points="46.94 159.37 16.08 157.84 16.08 140.58 46.94 139.06 46.94 159.37"/><path class="cls-9" d="M362.41,210.95a.17.17,0,0,0,.11,0,.6.6,0,0,0,.19,0,1.93,1.93,0,0,0,.54-.07c.21-.05.47-.13.76-.23l.48-.16c0-.08.29.07.5.15l.64.27a28.56,28.56,0,0,0,37.19-37.19l-.27-.64a2,2,0,0,0-.43-.71q-.69-.85-1.44-1.7-1.49-1.7-3.18-3.38T394,164.07c-.61-.54-1.26-1.09-1.88-1.61-.39-.33-.78-.66-1.18-1L233.45,7.07l-6.93-5.42L224.78.29,224.35,0a1.52,1.52,0,0,0-.44-.13L223-.38a31.92,31.92,0,0,0-3.93-.57,30.25,30.25,0,0,0-8.23.44c-.61.12-1.19.27-1.78.4a.36.36,0,0,0-.22.11l-.22.17-.43.34-.87.68L203.88,3.9,190,14.73,176.16,25.57l-1.73,1.36-.86.68c-.13.11-.32.24-.4.32l-.23.23,1.4-1.4L56.53,144.56,45.21,155.87l128.6-128.6L56,145.07l-1.82,1.82-.23.23c-.08.08-.22.27-.32.4l-.68.87-1.35,1.73L44,160.76,33.15,174.62l-2.71,3.46-.68.87-.34.43-.17.22a.36.36,0,0,0-.11.22c-.13.6-.28,1.17-.4,1.78a30.39,30.39,0,0,0-.44,8.24,32.16,32.16,0,0,0,.57,3.92l.21.88a1.4,1.4,0,0,0,.13.44l.34.43,1.35,1.73,5.42,6.93L190.75,361.63h0c.32.4.64.8,1,1.18.52.63,1.07,1.27,1.61,1.89,1.09,1.24,2.2,2.42,3.31,3.55s2.25,2.19,3.38,3.18q.85.74,1.7,1.43a2,2,0,0,0,.71.42l.64.27a28.54,28.54,0,0,0,39.28-26.45c0-3.65-3.92-4.08-5.3-7.52l-.27-.64c-.09-.21-.23-.47-.15-.5l.16-.48c.1-.29.18-.55.23-.76a1.93,1.93,0,0,0,.07-.54.56.56,0,0,0,0-.19.17.17,0,0,0,0-.1L92.45,191.82l-.48-.48a1.11,1.11,0,0,1-.38-.55.85.85,0,0,1,.11-.65,5,5,0,0,1,.47-.49l1-1-7.55,7.55L214.72,67.08l1-1a5.29,5.29,0,0,1,.49-.46.85.85,0,0,1,.65-.11,1.08,1.08,0,0,1,.55.37l.48.48Z"/><path class="cls-10" d="M363.5,209a.37.37,0,0,0,.13.08,1.27,1.27,0,0,0,.24.09,1.86,1.86,0,0,0,.62.05,6,6,0,0,0,.81-.11l.49-.1.27-.06a.41.41,0,0,1,.39.05,26.39,26.39,0,0,0,34.36-34.36,2.61,2.61,0,0,0-.46-.71l-.6-.77q-.61-.77-1.28-1.54-1.32-1.54-2.83-3.06t-3.15-3l-1.62-1.4q-.51-.45-1.05-.88L232.87,9.13,226.2,3.85l-1.67-1.32-.42-.33a1.54,1.54,0,0,0-.43-.14l-.86-.22a27.32,27.32,0,0,0-3.8-.61,26.92,26.92,0,0,0-8,.46c-.59.13-1.15.29-1.72.43-.56.34-1.12.85-1.67,1.27L204.3,6,190.95,16.6,177.59,27.17l-1.67,1.32-.83.66c-.13.11-.31.24-.39.32l-.23.23,1.4-1.4L58.07,146.1,46.75,157.41,175.36,28.8,57.55,146.61l-1.82,1.82-.23.23c-.08.08-.21.26-.32.39l-.66.83-1.32,1.67-7.35,10.14L35.3,175l-2.64,3.34c-.42.56-.93,1.11-1.27,1.67-.14.57-.3,1.13-.43,1.72a26.91,26.91,0,0,0-.46,8,27.57,27.57,0,0,0,.61,3.8l.22.86a1.6,1.6,0,0,0,.14.42l.33.42,1.32,1.67,5.28,6.68L192.54,360.55h0c.28.36.58.71.88,1.05l1.4,1.62c1,1.1,2,2.16,3,3.16s2,1.95,3.06,2.83q.77.66,1.54,1.28l.77.6a2.65,2.65,0,0,0,.7.46,26.37,26.37,0,0,0,36.29-24.44c0-3.37-3.86-3.53-5.15-6.7a.41.41,0,0,1,0-.39l.06-.26.1-.49a6.58,6.58,0,0,0,.1-.81,1.93,1.93,0,0,0-.05-.62,1.43,1.43,0,0,0-.09-.24.37.37,0,0,0-.08-.13l-145-145-.72-.72a1.67,1.67,0,0,1-.56-.83,1.28,1.28,0,0,1,.16-1,7.66,7.66,0,0,1,.7-.74L91,187.73l-7,7L213.77,65l1.44-1.44a7.76,7.76,0,0,1,.74-.7,1.25,1.25,0,0,1,1-.16,1.67,1.67,0,0,1,.83.56l.72.72Z"/><path class="cls-11" d="M221,63.41c.13.13,144.2,144,144.68,144a8.47,8.47,0,0,0,1.87-.12l.29,0s.15,0,.23.06l.27.1,1.12.36a23,23,0,0,0,2.27.56,24.44,24.44,0,0,0,4.62.44,24.21,24.21,0,0,0,23.75-28.81q-.22-1.15-.55-2.27-.16-.56-.36-1.11A2.4,2.4,0,0,0,399,176l-.49-.69a48.29,48.29,0,0,0-4.65-5.53c-.88-.91-1.81-1.81-2.78-2.69l-1.37-1.21c-.3-.27-.61-.53-.93-.78L232.3,11.19,225.87,6l-1.61-1.29-.4-.32a1.53,1.53,0,0,0-.41-.14l-.83-.24a24.28,24.28,0,0,0-11.41-.15c-.57.14-1.11.31-1.66.46-.54.33-1.07.83-1.61,1.24l-3.21,2.57L191.87,18.47,179,28.76l-1.61,1.29-.8.64c-.12.1-.29.23-.37.31l-.23.23,1.4-1.4L59.6,147.63,48.29,158.95l128.6-128.6L59.09,148.15,57.27,150l-.23.23c-.08.08-.21.25-.31.38l-.64.8L54.81,153l-7.08,9.64-10.3,12.86-2.57,3.21c-.41.54-.91,1.07-1.24,1.61-.15.56-.32,1.09-.46,1.66a24.2,24.2,0,0,0,.15,11.41l.24.83a1.56,1.56,0,0,0,.14.41l.32.4,1.29,1.61L40.45,203,194.33,359.48h0q.38.48.78.93l1.21,1.37q1.32,1.45,2.69,2.78a49,49,0,0,0,5.53,4.66l.7.48a2.45,2.45,0,0,0,.57.25l1.12.36a22.94,22.94,0,0,0,2.27.56,24.57,24.57,0,0,0,4.62.44A24.19,24.19,0,0,0,238,347.11a24.57,24.57,0,0,0-.44-4.62q-.22-1.15-.55-2.27c-.11-.37-.23-.75-.36-1.11l-.1-.28c0-.09-.08-.2-.06-.23l0-.29c.11-.75-3,1.85-3.09,1.34S89.58,195.11,89.46,195l-1.92-1.92-1-1a2.22,2.22,0,0,1-.75-1.11,1.69,1.69,0,0,1,.21-1.31,10.19,10.19,0,0,1,.93-1l1.92-1.92-6.39,6.38L212.82,62.84l1.92-1.92a10.35,10.35,0,0,1,1-.93,1.68,1.68,0,0,1,1.3-.21,2.23,2.23,0,0,1,1.11.75l1,1Z"/><path class="cls-12" d="M222.11,61.43c.15.15,144.24,144,144.74,144.11a7.06,7.06,0,0,0,1.87.06l.57-.05.3,0,.5.15c.68.2,1.37.37,2.06.5A22,22,0,0,0,398,180.35a21.25,21.25,0,0,0-.5-2.06c-.06-.17-.09-.33-.17-.52l-.38-.62q-.4-.62-.83-1.24A42.12,42.12,0,0,0,392,171a56.05,56.05,0,0,0-4.37-4.11L231.73,13.25l-6.17-5L224,7l-.38-.32a1.57,1.57,0,0,0-.4-.15l-.8-.25a21,21,0,0,0-3.55-.69,21.27,21.27,0,0,0-7.48.52c-.55.15-1.07.33-1.6.5-.52.33-1,.81-1.55,1.21l-3.09,2.51-12.35,10-12.35,10-1.54,1.25-.77.63c-.12.1-.28.22-.36.3l-.23.23,1.4-1.4L61.14,149.17,49.83,160.48l128.6-128.6L60.62,149.69l-1.82,1.82-.23.23c-.08.08-.2.24-.3.36l-.63.77-1.25,1.54-6.8,9.13-10,12.36L37.07,179c-.4.52-.88,1-1.21,1.55-.16.53-.34,1.05-.49,1.61a21.23,21.23,0,0,0-.52,7.48,20.71,20.71,0,0,0,.69,3.55l.25.8a1.67,1.67,0,0,0,.15.4l.31.38,1.25,1.55,5,6.18,153.6,155.94h0a55.71,55.71,0,0,0,4.11,4.37,42.13,42.13,0,0,0,4.94,4.06c.42.29.83.57,1.25.82l.62.39c.18.07.34.11.52.17.68.2,1.37.37,2.06.5a22,22,0,0,0,25.82-25.82q-.2-1-.5-2.07c0-.17-.11-.35-.15-.5l0-.3.05-.57a6.92,6.92,0,0,0-.06-1.87c-.09-.5-144-144.59-144.11-144.75l-2.4-2.4-1.2-1.2a2.78,2.78,0,0,1-.93-1.38c-.14-.55-3.26,2.07-2.95,1.59a12.73,12.73,0,0,1,1.16-1.24l2.4-2.4-5.8,5.8L211.86,60.73l2.4-2.4a12.34,12.34,0,0,1,1.23-1.17,2.11,2.11,0,0,1,1.63-.27,2.82,2.82,0,0,1,1.39.93l1.2,1.2Z"/><path class="cls-13" d="M223.21,59.45a1.08,1.08,0,0,0,.19.15l.27.17a3.42,3.42,0,0,0,.73.31c.53.15,144.72,143.79,145.42,143.78,1.05-.37,4.13.65,6.55.54a19.84,19.84,0,0,0,19.84-19.84c-.12-2.6,0-4.84-2.41-8a36.76,36.76,0,0,0-3.51-4.37c-.66-.71-1.36-1.42-2.1-2.1l-.91-.85q-.34-.31-.7-.61L231.16,15.31l-5.93-4.88-1.48-1.22-.37-.31a1.71,1.71,0,0,0-.38-.16l-.77-.26a18.14,18.14,0,0,0-3.43-.72,18.89,18.89,0,0,0-7.23.55c-.53.17-1,.35-1.54.52-.5.33-1,.79-1.49,1.18l-3,2.44-11.85,9.75L181.88,32l-1.48,1.22-.74.61c-.11.1-.27.21-.35.29l-.23.23,1.4-1.4L62.68,150.71,51.36,162,180,33.42,62.16,151.22,60.34,153l-.23.23c-.08.08-.2.24-.29.35l-.61.74L58,155.84l-6.53,8.63-9.75,11.85-2.44,3c-.39.5-.86,1-1.18,1.48s-.36,1-.52,1.54a19,19,0,0,0-.55,7.23,18.38,18.38,0,0,0,.73,3.43l.27.77a1.51,1.51,0,0,0,.16.38l.31.37L39.7,196l4.88,5.92L197.9,357.33h0c.2.24.4.48.61.7l.84.91c.69.73,1.39,1.43,2.1,2.1a37,37,0,0,0,4.37,3.51c3.15,2.37,5.38,2.29,8,2.4a19.84,19.84,0,0,0,19.84-19.84c.11-2.43-.9-5.5-.54-6.56,0-.7-143.63-144.89-143.78-145.42a3.21,3.21,0,0,0-.3-.73l-.17-.27a1,1,0,0,0-.15-.19l-2.88-2.88-1.44-1.44A3.33,3.33,0,0,1,83.27,188a2.55,2.55,0,0,1,.32-2c.39-.55-2.29,2.23-1.82,1.74l2.88-2.88-5.22,5.22L210.91,58.6l2.88-2.88a15.12,15.12,0,0,1,1.48-1.39,2.54,2.54,0,0,1,2-.32,3.34,3.34,0,0,1,1.66,1.12l1.44,1.44Z"/><path class="cls-14" d="M224.3,57.47a1.15,1.15,0,0,0,.19.16l.25.16c.23.14,144.05,143.84,144.31,143.93a6.15,6.15,0,0,0,1.77.31,15.54,15.54,0,0,0,2.22-.09h.16l.21,0,.42.06.84.1c.56.06,1.13.08,1.69.08A17.67,17.67,0,0,0,394,184.55c0-.57,0-1.13-.08-1.69,0-.28-.06-.56-.1-.84l-.06-.42,0-.21-.09-.24a23,23,0,0,0-2.08-3.87,30.83,30.83,0,0,0-3-3.81c-.56-.62-1.16-1.23-1.78-1.83l-.7-.67c-.19-.18-.39-.36-.6-.53L230.59,17.37l-5.68-4.74-1.42-1.18-.35-.3a1.67,1.67,0,0,0-.37-.16l-.74-.28a16,16,0,0,0-3.31-.76,16.84,16.84,0,0,0-7,.58c-.51.17-1,.37-1.48.55s-.95.77-1.42,1.15L206,14.6l-11.35,9.48-11.35,9.48-1.42,1.18-.71.59-.34.29-.23.23,1.4-1.4L64.21,152.24,52.9,163.56,181.5,35,63.7,152.76l-1.82,1.82-.23.23c-.08.08-.19.22-.29.34l-.59.71-1.18,1.42-6.26,8.13-9.48,11.35-2.37,2.84c-.38.47-.83.94-1.15,1.42s-.38,1-.55,1.49a16.84,16.84,0,0,0-.58,7,16.11,16.11,0,0,0,.76,3.31l.28.74a1.69,1.69,0,0,0,.16.37l.3.36,1.18,1.42,4.74,5.67L199.69,356.26h0c.17.2.35.4.53.6l.67.71c.6.62,1.21,1.22,1.83,1.78a31.31,31.31,0,0,0,3.81,3,22.92,22.92,0,0,0,3.87,2.08,1.25,1.25,0,0,0,.45.13l.42.07.84.1c.56.05,1.13.08,1.7.08a17.67,17.67,0,0,0,17.67-17.67c0-.56,0-1.13-.08-1.69,0-.28-.06-.56-.1-.84l-.06-.42,0-.21a1.26,1.26,0,0,1,0-.16,15.5,15.5,0,0,0,.09-2.22c0-.66-143.71-144.83-143.89-145.35a4,4,0,0,0-.35-.73l-.16-.26a1.14,1.14,0,0,0-.16-.19l-3.36-3.36L81.69,190a3.89,3.89,0,0,1-1.31-1.93,3,3,0,0,1,.38-2.28,6.24,6.24,0,0,1,.79-.89l.84-.84.14-.14-4.64,4.64L210,56.49l3.36-3.36.84-.84a6.22,6.22,0,0,1,.89-.79,2.94,2.94,0,0,1,2.28-.38,3.89,3.89,0,0,1,1.94,1.31l1.68,1.68Z"/><path class="cls-15" d="M369,199.07a1.76,1.76,0,0,0,.42.3,4.32,4.32,0,0,0,.71.38,5.79,5.79,0,0,0,1.67.39,11.58,11.58,0,0,0,2,0c.36,0,.74-.07,1.14-.12a2.85,2.85,0,0,1,.69,0l.74,0a15.5,15.5,0,0,0,15.5-15.5c0-.25,0-.5,0-.74a2.71,2.71,0,0,0-.1-.77,15.25,15.25,0,0,0-.56-1.66,20,20,0,0,0-1.74-3.35,26.27,26.27,0,0,0-2.49-3.28c-.47-.53-1-1.05-1.49-1.56s-.65-.65-1-1L230,19.43l-5.42-4.6-1.36-1.15-.34-.29a1.83,1.83,0,0,0-.35-.17l-.71-.3a14.37,14.37,0,0,0-3.18-.8,15,15,0,0,0-6.72.61c-.49.18-.95.39-1.42.58s-.91.75-1.36,1.12l-2.71,2.3-10.85,9.21-10.84,9.2-1.36,1.15-.68.58c-.1.09-.24.2-.32.28l-.23.23,1.4-1.4L65.75,153.78,54.44,165.1,183,36.49,65.24,154.3l-1.82,1.82-.23.23c-.08.08-.19.22-.28.32l-.58.68-1.15,1.36-6,7.63L46,177.17l-2.3,2.71c-.37.45-.8.9-1.12,1.36s-.4.93-.58,1.42a14.92,14.92,0,0,0-.61,6.72,14.17,14.17,0,0,0,.8,3.18l.3.71a1.83,1.83,0,0,0,.17.35l.29.34,1.15,1.36,4.6,5.42L201.48,355.18h0c.31.36.57.62,1,1s1,1,1.56,1.49a26.23,26.23,0,0,0,3.28,2.49,19.92,19.92,0,0,0,3.35,1.74,15.76,15.76,0,0,0,1.66.56,2.7,2.7,0,0,0,.77.1l.74,0a15.5,15.5,0,0,0,15.49-15.49c0-.25,0-.5,0-.74a3,3,0,0,1,0-.7c.05-.39.09-.77.12-1.14a11.59,11.59,0,0,0,0-2,5.72,5.72,0,0,0-.39-1.67,3.87,3.87,0,0,0-.38-.71,1.75,1.75,0,0,0-.3-.42l-3.84-3.84L222.57,334a4.45,4.45,0,0,1-1.5-2.21c-.21-.88-143.64-145.43-143.15-146.19a7,7,0,0,1,.9-1l1-1,.62-.62L76.35,187,209,54.36l3.84-3.84,1-1a7.31,7.31,0,0,1,1-.9c.76-.49,145.31,142.94,146.19,143.15a4.45,4.45,0,0,1,2.21,1.5l1.92,1.92Z"/><path class="cls-16" d="M370.07,197.09a1.52,1.52,0,0,0,.38.28,5.33,5.33,0,0,0,.65.36,5.43,5.43,0,0,0,1.53.44,12.42,12.42,0,0,0,3.86-.18c.68-.17,1.59-.2,2.42-.37a13.3,13.3,0,0,0,10.53-10.53,6.75,6.75,0,0,0,.11-2.62,15,15,0,0,0-2.19-5.67,21.56,21.56,0,0,0-2-2.76l-.59-.66-.58-.61a10.28,10.28,0,0,0-.8-.77L229.44,21.49,224.27,17,223,15.91l-.32-.28a2.27,2.27,0,0,0-.34-.17l-.68-.31a12.61,12.61,0,0,0-3.06-.84,13.31,13.31,0,0,0-6.47.64c-.47.19-.91.41-1.37.61s-.86.73-1.3,1.09l-2.59,2.23-10.34,8.93-10.35,8.94-1.29,1.12-.65.56-.31.27-.23.23,1.4-1.4L67.29,155.32,56,166.63,184.58,38,66.77,155.84,65,157.65l-.23.23c-.08.08-.18.21-.27.31l-.56.65-1.12,1.29-5.72,7.13L48.14,177.6l-2.23,2.59c-.36.43-.77.86-1.09,1.3s-.42.9-.61,1.37a13.36,13.36,0,0,0-.64,6.47,12.84,12.84,0,0,0,.84,3.06l.31.68a2.28,2.28,0,0,0,.17.34l.28.32L46.29,195l4.46,5.17L203.27,354.11h0a9.25,9.25,0,0,0,.78.8l.6.58.66.59a21.7,21.7,0,0,0,2.76,2,15.08,15.08,0,0,0,5.67,2.18,6.74,6.74,0,0,0,2.62-.11,13.34,13.34,0,0,0,9.8-8.06,13.25,13.25,0,0,0,.73-2.47c.17-.83.2-1.74.37-2.42a12.43,12.43,0,0,0,.18-3.86,5.49,5.49,0,0,0-.44-1.54,5.38,5.38,0,0,0-.36-.65,1.51,1.51,0,0,0-.28-.38L222,336.49l-2.16-2.16a11,11,0,0,1-1-1.12c-.31-.4-144.1-144.46-144.22-145a3.8,3.8,0,0,1,.49-2.93,8.08,8.08,0,0,1,1-1.14l1.08-1.08L78.29,182l-3.47,3.47L208,52.25l4.32-4.32,1.08-1.08a8.08,8.08,0,0,1,1.14-1,3.8,3.8,0,0,1,2.93-.49c.49.12,144.55,143.91,145,144.22a10.9,10.9,0,0,1,1.12,1l2.16,2.16Z"/><path class="cls-17" d="M224.38,341.91l-4.8-4.8-2.4-2.4c-.4-.4-144.4-144.37-144.74-144.82a4.14,4.14,0,0,1-.71-1.53,4.23,4.23,0,0,1,.54-3.26c.16-.23.35-.44.53-.66s.4-.4.6-.6l1.2-1.2L76.17,181l-2.89,2.89L207.09,50.12l4.8-4.8,1.2-1.2c.2-.2.39-.4.6-.6s.43-.37.66-.53a4.23,4.23,0,0,1,3.26-.54,4.15,4.15,0,0,1,1.53.71c.45.34,144.42,144.34,144.82,144.74l2.4,2.4,4.8,4.8a5,5,0,0,0,2.27,1,9.35,9.35,0,0,0,3.3-.08,18.69,18.69,0,0,0,3.83-1.18,11.2,11.2,0,0,0,6.14-6.14,8.57,8.57,0,0,0,.43-4.4,12.93,12.93,0,0,0-1.75-4.7,19.4,19.4,0,0,0-3.09-3.85L228.87,23.55,224,19.22l-1.23-1.08-.31-.27a1.77,1.77,0,0,0-.32-.18l-.65-.33a11.13,11.13,0,0,0-2.94-.88,11.85,11.85,0,0,0-6.22.67c-.45.2-.87.43-1.31.64s-.82.71-1.23,1.06L207.28,21l-9.84,8.66-9.84,8.66-1.23,1.08c-.39.35-.88.76-1.14,1l1.4-1.4L68.83,156.86,57.51,168.17l128.6-128.6L68.31,157.37l-1.82,1.82c-.28.25-.68.75-1,1.14l-1.08,1.23-5.44,6.62L50.28,178l-2.17,2.46c-.35.41-.75.82-1.06,1.23s-.44.86-.64,1.31a11.85,11.85,0,0,0-.67,6.22,11.18,11.18,0,0,0,.88,2.94l.33.65a1.79,1.79,0,0,0,.18.32l.27.31,1.08,1.23,4.33,4.92L205.05,353a19.4,19.4,0,0,0,3.85,3.09,12.93,12.93,0,0,0,4.7,1.75,8.57,8.57,0,0,0,4.4-.43,11.2,11.2,0,0,0,6.14-6.14,18.82,18.82,0,0,0,1.18-3.83,9.31,9.31,0,0,0,.07-3.3A5,5,0,0,0,224.38,341.91Z"/><path class="cls-18" d="M223.35,342.48l-5.05-5.05L72.19,191.32A13.24,13.24,0,0,1,71,190a4.39,4.39,0,0,1-.75-1.6,4.44,4.44,0,0,1,.57-3.43c.17-.24.37-.46.55-.7s.42-.42.63-.63l1.26-1.26,1.83-1.83-2.59,2.59L206.6,49l5-5,1.26-1.26c.21-.21.42-.42.63-.63s.45-.38.7-.55a4.44,4.44,0,0,1,3.43-.57,4.39,4.39,0,0,1,1.6.75,13.25,13.25,0,0,1,1.31,1.21L366.69,189l5.05,5.05c1.93,1.93,7.72,1.38,11.72-2.45a8.35,8.35,0,0,0,2.46-7.34,11.73,11.73,0,0,0-1.54-4.21,14.68,14.68,0,0,0-1.42-2l-.68-.8a6.64,6.64,0,0,0-.55-.56L228.57,24.62l-4.79-4.26-1.2-1.06-.3-.27a2.17,2.17,0,0,0-.31-.18l-.64-.33a10.52,10.52,0,0,0-2.87-.9,11.15,11.15,0,0,0-6.09.68c-.44.21-.85.44-1.28.66s-.8.7-1.2,1l-2.4,2.13-9.58,8.52-9.58,8.52-1.2,1.06c-.38.34-.85.74-1.11,1l1.4-1.4L69.62,157.65,58.31,169l128.6-128.6L69.11,158.17,67.29,160c-.28.26-.68.74-1,1.11l-1.06,1.2-5.31,6.36-8.52,9.58-2.13,2.4c-.35.4-.73.79-1,1.2s-.46.84-.66,1.28a11.19,11.19,0,0,0-.68,6.09,10.61,10.61,0,0,0,.9,2.87l.33.63a2.14,2.14,0,0,0,.18.31l.26.3,1.07,1.2,4.26,4.79L206,352.48a6.67,6.67,0,0,0,.56.55l.8.68a14.67,14.67,0,0,0,2,1.41,11.75,11.75,0,0,0,4.21,1.54,8.35,8.35,0,0,0,7.34-2.46C224.73,350.2,225.28,344.41,223.35,342.48Z"/><path class="cls-19" d="M220.24,344.19l-5.8-5.8L68,191.9a15,15,0,0,1-1.4-1.5,5,5,0,0,1-.87-1.84,5.13,5.13,0,0,1,.65-3.94c.19-.28.43-.53.64-.8s.48-.49.72-.73l1.45-1.45L75,175.84l-4.89,4.89,135-135,5.8-5.8,1.45-1.45c.24-.24.48-.49.73-.72s.52-.44.8-.64a5.13,5.13,0,0,1,3.94-.65,5,5,0,0,1,1.84.87,15,15,0,0,1,1.5,1.4L367.65,185.18l5.8,5.8a1.4,1.4,0,0,0,.53.34,5.17,5.17,0,0,0,.88.34,4.77,4.77,0,0,0,2,0,7,7,0,0,0,4.14-2.47,6.19,6.19,0,0,0,1.37-5,8.24,8.24,0,0,0-.94-2.74c-.12-.22-.26-.44-.4-.65l-.22-.32-.11-.16-.07-.11a3.75,3.75,0,0,0-.62-.75L227.68,27.85l-4.4-4A10.83,10.83,0,0,0,221,22a8.7,8.7,0,0,0-2.68-1,9.26,9.26,0,0,0-5.7.73c-.41.22-.79.47-1.18.71s-.74.67-1.1,1l-2.19,2-8.79,8.09-8.79,8.09-1.1,1c-.35.33-.77.69-1,1l1.4-1.4L72,160.06,60.72,171.38l128.6-128.6L71.52,160.58,69.7,162.4c-.29.27-.65.69-1,1l-1,1.1-4.88,5.58-8.09,8.79-2,2.19c-.33.37-.69.73-1,1.1s-.49.77-.71,1.18a9.26,9.26,0,0,0-.73,5.7,8.7,8.7,0,0,0,1,2.68A10.83,10.83,0,0,0,53.07,194l4,4.4L208.78,350.79a3.77,3.77,0,0,0,.75.62l.11.07.16.11.32.22.65.4a8.24,8.24,0,0,0,2.74.94,6.19,6.19,0,0,0,5-1.37,7.06,7.06,0,0,0,2.48-4.14,4.77,4.77,0,0,0,0-2.05,5.09,5.09,0,0,0-.34-.88A1.4,1.4,0,0,0,220.24,344.19Z"/><path class="cls-20" d="M219.73,344.48l-5.93-5.93L67.25,192a15.66,15.66,0,0,1-1.43-1.53,5.15,5.15,0,0,1-.88-1.88,5.22,5.22,0,0,1,.67-4c.2-.28.44-.55.65-.82s.49-.5.74-.75l1.48-1.48,5.93-5.93-4.74,4.74L204.85,45.15l5.93-5.93,1.48-1.48c.25-.24.49-.5.75-.74s.53-.45.82-.65a5.22,5.22,0,0,1,4-.67,5.15,5.15,0,0,1,1.88.88A15.65,15.65,0,0,1,221.26,38L367.81,184.54l5.93,5.93a1.36,1.36,0,0,0,.49.32l.15,0,.21.1a3.08,3.08,0,0,0,.44.15,4.27,4.27,0,0,0,1.88.05,6.26,6.26,0,0,0,3.74-2.3,5.76,5.76,0,0,0,1.21-4.57,7.44,7.44,0,0,0-.85-2.5,6.92,6.92,0,0,0-.36-.59l-.2-.29-.12-.2a3.44,3.44,0,0,0-.56-.68L227.53,28.39l-4.33-4A11.27,11.27,0,0,0,221,22.57a8.49,8.49,0,0,0-2.65-1,9,9,0,0,0-5.63.73c-.41.22-.78.48-1.17.72s-.72.66-1.09,1l-2.17,2-8.66,8-8.66,8-1.08,1c-.35.32-.76.69-1,1l1.4-1.4L72.43,160.46,61.12,171.78l128.6-128.6L71.92,161,70.1,162.8c-.29.27-.65.69-1,1l-1,1.08-4.8,5.45-8,8.66-2,2.16c-.33.36-.69.72-1,1.09s-.5.76-.72,1.17a9,9,0,0,0-.74,5.63,8.59,8.59,0,0,0,1,2.65,11.29,11.29,0,0,0,1.81,2.22l4,4.33,151.6,152.24a3.44,3.44,0,0,0,.68.56l.2.12.29.2a6.9,6.9,0,0,0,.6.36,7.43,7.43,0,0,0,2.5.85,5.76,5.76,0,0,0,4.57-1.21,6.26,6.26,0,0,0,2.3-3.74,4.27,4.27,0,0,0-.05-1.88,2.93,2.93,0,0,0-.15-.44l-.1-.21,0-.15A1.36,1.36,0,0,0,219.73,344.48Z"/><path class="cls-21" d="M219.18,344.78l-6.06-6.06L66.5,192.11A14.93,14.93,0,0,1,65,190.54a5.13,5.13,0,0,1-.9-1.92,5.32,5.32,0,0,1,.68-4.11c.2-.29.44-.56.67-.84s.5-.51.75-.76l1.52-1.52,6.06-6.06-4.58,4.58L204.58,44.56l6.06-6.06L212.16,37c.25-.25.5-.51.76-.75s.55-.46.84-.67a5.32,5.32,0,0,1,4.11-.68,5.2,5.2,0,0,1,1.92.9,15,15,0,0,1,1.57,1.46L368,183.85l6.06,6.06a3.67,3.67,0,0,0,2.84.58,5.46,5.46,0,0,0,3.33-2.11,5.31,5.31,0,0,0,1.06-4.14,7.69,7.69,0,0,0-1.8-3.77L227.37,29l-4.26-4a11.54,11.54,0,0,0-2.19-1.8,8.18,8.18,0,0,0-2.61-1,8.67,8.67,0,0,0-5.56.74c-.4.22-.77.48-1.15.72s-.71.65-1.07,1l-2.13,2-8.52,7.95-8.52,7.95c-.69.65-1.47,1.35-2.09,2l1.4-1.4L72.86,160.9,61.55,172.21,190.16,43.6,72.35,161.41l-1.82,1.82c-.61.62-1.31,1.39-2,2.09l-4.73,5.3-7.95,8.52-2,2.13c-.33.36-.68.71-1,1.07s-.5.75-.72,1.15a8.67,8.67,0,0,0-.74,5.56,8.21,8.21,0,0,0,1,2.61,11.75,11.75,0,0,0,1.8,2.19l4,4.26,151.53,152.1a7.7,7.7,0,0,0,3.77,1.8,5.32,5.32,0,0,0,4.14-1.06,5.47,5.47,0,0,0,2.1-3.33A3.67,3.67,0,0,0,219.18,344.78Z"/><path class="cls-22" d="M378.49,182.13a1.92,1.92,0,0,1,.5.83,1.89,1.89,0,0,0,.12.3c0,.12.09.24.13.35a4.52,4.52,0,0,1,.17.72,3.64,3.64,0,0,1-.59,2.66,3.18,3.18,0,0,1-2,1.41,3.23,3.23,0,0,1-1.07,0,.91.91,0,0,1-.66-.27L225,38l-3.25-3.25A15.83,15.83,0,0,0,220,33.21a5.61,5.61,0,0,0-2.06-1,5.74,5.74,0,0,0-4.41.73c-.31.22-.6.48-.9.71s-.55.54-.82.81l-1.62,1.62-6.5,6.5L67.84,178.49l4-4-6.5,6.5-1.62,1.62c-.27.27-.55.54-.81.82s-.5.59-.71.9a5.74,5.74,0,0,0-.73,4.41,5.61,5.61,0,0,0,1,2.06A15.77,15.77,0,0,0,64,192.45l3.25,3.25L217.37,345.78a.91.91,0,0,1,.27.66,2.91,2.91,0,0,1-1.39,3.11,3.65,3.65,0,0,1-2.66.59,4.53,4.53,0,0,1-.72-.17l-.35-.13-.3-.12a1.92,1.92,0,0,1-.83-.5L60.11,197.58l-3.85-4a13,13,0,0,1-1.78-2.08,7.45,7.45,0,0,1-1-2.5,7.78,7.78,0,0,1,.77-5.33c.23-.38.5-.73.75-1.1s.64-.67,1-1l1.92-2,7.7-8.06L70,166.62l1.91-2,1.82-1.82L191.56,45,63,173.61,74.27,162.3,192.08,44.49l-1.4,1.4,2-1.91,8.06-7.7,8.06-7.7,2-1.92c.34-.32.67-.65,1-1s.72-.52,1.1-.75a7.78,7.78,0,0,1,5.33-.77,7.45,7.45,0,0,1,2.5,1A13,13,0,0,1,222.81,27l4,3.85Z"/><path class="cls-23" d="M345.19,177h0L208.7,313.47h0l-.15.17-.07.08,0,0-.14.15q-.56.63-1.09,1.27a32.89,32.89,0,0,0,43.6,48.22,32.26,32.26,0,0,0,2.66-2c.43-.35.86-.71,1.27-1.09l.16-.14,0,0,.08-.07.17-.15h0L391.7,223.5h0l.15-.16.07-.09,0,0,.14-.16c.38-.41.74-.84,1.09-1.27a32.26,32.26,0,0,0,2-2.66,32.89,32.89,0,0,0-27.47-51,32.77,32.77,0,0,0-20.76,7.37q-.65.53-1.27,1.09l-.15.14,0,0-.09.07Z"/><path class="cls-24" d="M210.24,315l-.14.15-.06.08,0,0v0l-.07.07c-.35.39-.69.78-1,1.19q-1,1.21-1.83,2.49a30.72,30.72,0,0,0,42.55,42.55q1.28-.84,2.49-1.83c.4-.33.8-.67,1.19-1l.07-.06h0l0,0,.08-.06.15-.14L390.16,222h0l.14-.15.06-.08,0,0v0l.07-.07q.53-.58,1-1.19a30.71,30.71,0,0,0-43.21-43.21q-.6.49-1.19,1l-.07.07h0l0,0-.08.06-.15.14Z"/><path class="cls-9" d="M211.78,316.55a2,2,0,0,0-.25.3c-.31.34-.63.72-.94,1.09q-.91,1.12-1.7,2.31a28.54,28.54,0,0,0,39.54,39.54c.79-.52,1.56-1.09,2.31-1.7.37-.3.75-.63,1.09-.94a2,2,0,0,0,.3-.24L388.63,220.43h0a2,2,0,0,0,.25-.3c.3-.34.63-.72.94-1.09a28.4,28.4,0,0,0,4.31-7.27A28.54,28.54,0,0,0,352,177.19a28.21,28.21,0,0,0-2.31,1.7c-.37.3-.75.63-1.09.94a2.22,2.22,0,0,0-.3.24Z"/><path class="cls-10" d="M213.31,318.09a1.84,1.84,0,0,0-.22.27l-.81,1a26.37,26.37,0,0,0,20.45,43A26.32,26.32,0,0,0,247.24,358q1.1-.72,2.13-1.57l1-.81a1.84,1.84,0,0,0,.27-.22L387.09,218.89h0a1.7,1.7,0,0,0,.22-.27l.81-1q.84-1,1.57-2.13A26.37,26.37,0,0,0,353.16,179q-1.1.72-2.13,1.57l-1,.81a1.84,1.84,0,0,0-.27.22Z"/><path class="cls-11" d="M214.85,319.63a1.63,1.63,0,0,0-.21.25.5.5,0,0,1-.08.1l-.2.23-.39.47a24.12,24.12,0,0,0-3.65,6.16,24.21,24.21,0,0,0,31.52,31.52,23.93,23.93,0,0,0,4.21-2.21,23.61,23.61,0,0,0,2-1.44l.47-.39.23-.2a.43.43,0,0,1,.1-.08,1.78,1.78,0,0,0,.25-.21L385.55,217.35h0a1.78,1.78,0,0,0,.21-.25.52.52,0,0,1,.08-.1l.2-.23.39-.47a24,24,0,0,0,3.65-6.16,24.21,24.21,0,0,0-31.52-31.52,24,24,0,0,0-6.17,3.65l-.47.39-.23.2a.43.43,0,0,1-.1.08,1.78,1.78,0,0,0-.25.21Z"/><path class="cls-12" d="M216.39,321.16a32.23,32.23,0,0,0-2,2.67,21.73,21.73,0,0,0-2,3.83,22,22,0,0,0,32.52,26.68,32.08,32.08,0,0,0,2.67-2L384,215.81h0c.17-.17.09-.15.73-.89a22,22,0,0,0-29.19-32.29,32.4,32.4,0,0,0-2.68,2Z"/><path class="cls-13" d="M217.93,322.7a1.51,1.51,0,0,0-.17.21s0,.05-.09.14l-.32.39a19.65,19.65,0,0,0-3,5.06,19.85,19.85,0,0,0,25.86,25.86,19.77,19.77,0,0,0,5.06-3l.39-.32.14-.09a1.36,1.36,0,0,0,.21-.17L382.48,214.28h0a1.36,1.36,0,0,0,.17-.21,1.19,1.19,0,0,1,.09-.14l.32-.39a19.06,19.06,0,0,0,1.18-1.6,19.84,19.84,0,0,0-29.1-26.31l-.39.32a1.05,1.05,0,0,1-.14.09,1.36,1.36,0,0,0-.21.17Z"/><path class="cls-14" d="M219.46,324.24a1.18,1.18,0,0,0-.15.18,2,2,0,0,1-.28.38q-.56.69-1.05,1.43a17.67,17.67,0,0,0,24.48,24.48c.49-.33,1-.68,1.43-1.05a2,2,0,0,1,.38-.28,1.15,1.15,0,0,0,.18-.15L380.94,212.74h0a1.18,1.18,0,0,0,.15-.18l.06-.1,0,0,.07-.08.14-.17a17.36,17.36,0,0,0,1.05-1.43,17.67,17.67,0,0,0-14.76-27.39,17.6,17.6,0,0,0-9.72,2.91c-.49.33-1,.68-1.43,1.05a1.92,1.92,0,0,1-.38.28l-.18.15Z"/><path class="cls-15" d="M221,325.78a1,1,0,0,0-.13.16l-.06.09,0,0v0l-.06.08a15.43,15.43,0,0,0-.92,1.25,15.22,15.22,0,0,0-1.42,2.69,15.5,15.5,0,0,0,20.19,20.19,15.23,15.23,0,0,0,2.69-1.42,15.42,15.42,0,0,0,1.25-.92l.08-.06h0l0,0,.09-.06.16-.13L379.4,211.2h0a1.12,1.12,0,0,0,.13-.16l.06-.09,0,0v0l.06-.08a15.23,15.23,0,0,0,.92-1.25,15.5,15.5,0,0,0-21.47-21.47c-.43.29-.85.59-1.25.92l-.08.06h0l0,0-.09.06-.16.13Z"/><path class="cls-16" d="M222.54,327.31a1,1,0,0,0-.2.3s-.07.11-.14.2l-.2.27c-.13.18-.26.36-.38.54a13,13,0,0,0-1.22,2.32,13.32,13.32,0,0,0,19.68,16.14l.55-.38.27-.2a1.07,1.07,0,0,1,.2-.14,1,1,0,0,0,.3-.2L377.86,209.67h0a1,1,0,0,0,.2-.3,1.13,1.13,0,0,1,.14-.2l.2-.27c.13-.18.26-.36.38-.55A13,13,0,0,0,380,206a13.33,13.33,0,0,0-17.36-17.36,13,13,0,0,0-2.32,1.22l-.55.38-.27.2a1.23,1.23,0,0,1-.2.14,1,1,0,0,0-.3.2Z"/><path class="cls-17" d="M360.56,192.36,224.08,328.85a.79.79,0,0,0-.17.25l0,.08s-.09.13-.13.19l-.32.46a11.15,11.15,0,0,0,15.45,15.45l.46-.32a1.5,1.5,0,0,1,.19-.13l.08,0a.79.79,0,0,0,.25-.17L376.33,208.13a.79.79,0,0,0,.17-.25l0-.08a1.63,1.63,0,0,1,.13-.19l.32-.46a11.15,11.15,0,0,0-15.45-15.45l-.46.32c-.06,0-.18.14-.19.13l-.08,0A.79.79,0,0,0,360.56,192.36Z"/><path class="cls-18" d="M359,190.82,222.54,327.31a.71.71,0,0,0-.15.22,1.16,1.16,0,0,1-.07.16l-.29.41a10,10,0,0,0,8.37,15.54,10.06,10.06,0,0,0,3.77-.73,9.93,9.93,0,0,0,1.74-.92l.41-.29a1.12,1.12,0,0,1,.16-.07.75.75,0,0,0,.22-.15L373.2,205a.75.75,0,0,0,.15-.22,1.12,1.12,0,0,1,.07-.16l.29-.41a9.93,9.93,0,0,0,.92-1.74,10,10,0,0,0-13.06-13.06,10,10,0,0,0-1.74.92l-.41.29a1.16,1.16,0,0,1-.16.07A.71.71,0,0,0,359,190.82Z"/><path class="cls-19" d="M361.43,193.23,224.95,329.72a.56.56,0,0,0-.15.34.19.19,0,0,1,0,.06l-.08.14-.16.29a6.35,6.35,0,0,0-.27.58,6.5,6.5,0,0,0-.48,2.49,6.62,6.62,0,0,0,9.1,6.13c.2-.08.39-.17.58-.27l.29-.16.14-.09H234a.55.55,0,0,0,.34-.15L370.78,202.59a.55.55,0,0,0,.15-.34.27.27,0,0,1,0-.06L371,202l.16-.29c.1-.19.19-.39.27-.58a6.61,6.61,0,0,0-6.13-9.1,6.55,6.55,0,0,0-2.49.48,6.35,6.35,0,0,0-.58.27L362,193l-.14.08h-.06A.56.56,0,0,0,361.43,193.23Z"/><path class="cls-20" d="M361.84,193.64,225.35,330.12a.51.51,0,0,0-.14.31s0,.05,0,.11l-.15.26c-.09.17-.17.35-.25.54a6,6,0,0,0,7.88,7.88c.18-.07.36-.16.54-.25l.26-.15c.06,0,.08,0,.11,0a.51.51,0,0,0,.31-.14L370.38,202.18a.51.51,0,0,0,.14-.31s0-.05,0-.11l.15-.26c.09-.17.17-.35.25-.54a6,6,0,0,0-7.88-7.88c-.18.07-.36.16-.54.25l-.26.15c-.06,0-.07,0-.11,0A.51.51,0,0,0,361.84,193.64Z"/><path class="cls-22" d="M232.06,336.84a.45.45,0,0,1-.44.05l-.08,0-.16.05-.32.08a3.61,3.61,0,0,1-.66.06,3.44,3.44,0,0,1-3.45-3.45A3.59,3.59,0,0,1,227,333c0-.11,0-.22.08-.32l.05-.16a.55.55,0,0,0,0-.08.46.46,0,0,1,.05-.44L363.67,195.47a.46.46,0,0,1,.44-.05h.08l.16,0,.32-.08a3.36,3.36,0,0,1,.66-.06,3.44,3.44,0,0,1,3.45,3.45,3.37,3.37,0,0,1-.06.66,3,3,0,0,1-.08.32l-.05.16a.41.41,0,0,0,0,.08.45.45,0,0,1-.05.44Z"/><path class="cls-2" d="M194.28,273.49c-12.58,0-23.18-8.62-26.4-21.93a2.24,2.24,0,0,1,4.35-1.05c3,12.2,13.18,19.73,24.87,18.34,13.48-1.61,29.23-15.94,29.23-51a2.24,2.24,0,1,1,4.47,0c0,38-17.87,53.63-33.17,55.46A28.16,28.16,0,0,1,194.28,273.49Z"/><path class="cls-2" d="M195.71,203.15a8.77,8.77,0,0,1-1.59-.15c-12.56-2.33-21.74-32.86-19.66-65.33a2.24,2.24,0,1,1,4.46.29c-2.19,34.27,8.19,59.2,16,60.65,4,.75,8.11-4.78,11.34-15.13a2.23,2.23,0,0,1,4.27,1.33C205.94,199.58,200.19,203.15,195.71,203.15Z"/><path class="cls-25" d="M207.6,103.78h7.64a2.83,2.83,0,0,1,2.82,2.82V138c1.66,3.06,4.65,8.16,4.65,12.4a8.86,8.86,0,0,1-9.08,9c-5.56,0-8.83-3.39-8.83-9,0-2.51,0-6.27,0-9.53,0,0,0-.07,0-.1V106.6A2.83,2.83,0,0,1,207.6,103.78Z"/><g class="cls-26"><g class="cls-27"><path class="cls-28" d="M205.78,106.83a2.31,2.31,0,0,0,2.4,2.19h6.5a2.2,2.2,0,1,0,0-4.38h-6.5A2.31,2.31,0,0,0,205.78,106.83Z"/></g><g class="cls-27"><path class="cls-28" d="M205.78,140.56a2.31,2.31,0,0,0,2.4,2.19h6.5a2.2,2.2,0,1,0,0-4.38h-6.5A2.31,2.31,0,0,0,205.78,140.56Z"/></g></g><g class="cls-25"><rect x="205.78" y="110.33" width="11.29" height="26.72" rx="2.4" ry="2.4"/></g><circle class="cls-25" cx="213.63" cy="150.41" r="5.85"/><circle class="cls-29" cx="213.63" cy="150.41" r="5.32"/><polygon class="cls-25" points="210.13 149.59 212.81 149.59 212.81 146.91 214.45 146.91 214.45 149.59 217.13 149.59 217.13 151.23 214.45 151.23 214.45 153.91 212.81 153.91 212.81 151.23 210.13 151.23 210.13 149.59"/><path class="cls-25" d="M276,212.63v7.64a2.83,2.83,0,0,1-2.82,2.82H241.78c-3.06,1.66-8.16,4.65-12.4,4.65a8.86,8.86,0,0,1-9-9.07c0-5.56,3.39-8.83,9-8.83l9.53,0h34.28A2.83,2.83,0,0,1,276,212.63Z"/><g class="cls-26"><g class="cls-27"><path class="cls-28" d="M273,210.8a2.31,2.31,0,0,0-2.19,2.4v6.5a2.2,2.2,0,1,0,4.38,0v-6.5A2.31,2.31,0,0,0,273,210.8Z"/></g><g class="cls-27"><path class="cls-28" d="M239.24,210.8a2.31,2.31,0,0,0-2.19,2.4v6.5a2.2,2.2,0,1,0,4.38,0v-6.5A2.31,2.31,0,0,0,239.24,210.8Z"/></g></g><g class="cls-25"><rect x="242.74" y="210.8" width="26.72" height="11.29" rx="2.4" ry="2.4"/></g><circle class="cls-25" cx="229.38" cy="218.65" r="5.85"/><circle class="cls-29" cx="229.38" cy="218.65" r="5.32"/><polygon class="cls-25" points="230.2 215.16 230.2 217.83 232.88 217.83 232.88 219.47 230.2 219.47 230.2 222.15 228.56 222.15 228.56 219.47 225.89 219.47 225.89 217.83 228.56 217.83 228.56 215.16 230.2 215.16"/><path class="cls-2" d="M171.1,251.78a11.18,11.18,0,0,1-9.36-17.28c4.72-7.25,16.77-11.22,24.79-8.16a11.18,11.18,0,0,1-6.38,21.36,4.74,4.74,0,0,0-.55.17A11.18,11.18,0,0,1,171.1,251.78Z"/><path class="cls-2" d="M182.33,146.1a11.29,11.29,0,0,1-2.12-.2,11.18,11.18,0,0,1-8.88-13.08c1.63-8.5,11.28-16.73,19.85-16.94a11.18,11.18,0,0,1,2.18,22.19,5.05,5.05,0,0,0-.44.36A11.19,11.19,0,0,1,182.33,146.1Z"/><path class="cls-2" d="M203.39,190.76a11.18,11.18,0,0,1-11.15-10.56c-.25-4.47,1.29-12.61,14.42-17a118.23,118.23,0,0,1,16.18-3.59,86.76,86.76,0,0,0,9.79-2,11.18,11.18,0,0,1,11.84,19c-3.94,2.6-9.33,3.63-17.8,5.1-3.68.64-10,1.74-13.24,2.85a11.17,11.17,0,0,1-9.42,6.23Z"/><path class="cls-23" d="M175.57,278.28h0a194.09,194.09,0,0,0,24,4.35,137.42,137.42,0,0,0,27.51.51c2.58-.29,5.06-.51,7.78-1,1.35-.24,2.63-.42,4-.74l4.18-1a83.41,83.41,0,0,0,18-6.93A68.17,68.17,0,0,0,279.78,259,64.36,64.36,0,0,0,293,236.46l.52-1.54.42-1.51q.41-1.52.78-3l.36-1.53c.06-.23.12-.55.17-.87l.17-.95q.32-1.89.56-3.8l.21-1.91.09-1,0-.3.07-1.2,0-.6,0-.3.09-2.16,0-2.87-.12-2.87-.09-1.44-.17-1.52c-.26-2-.53-4-.93-6.06s-1-4.15-1.58-6.2-1.43-4.11-2.24-6.13A66.47,66.47,0,0,0,277.44,168,75.37,75.37,0,0,0,261.1,155.5a98.92,98.92,0,0,0-15.07-7,127.28,127.28,0,0,0-13.6-4.1c-1.1-.28-2.18-.53-3.23-.75L226,143c-2.05-.37-4.18-.81-6.18-1.1l-3-.48-3-.4c-2-.28-3.93-.47-5.89-.69h0l-.59,0-.75,0q-1.25-.06-2.48-.07a43.29,43.29,0,0,0-4.82.25,42.44,42.44,0,0,0-8.95,1.91,39.13,39.13,0,0,0-14.47,8.5,37.54,37.54,0,0,0-11.84,29,45.34,45.34,0,0,0,23.47,37.53,38.53,38.53,0,0,0,6.33,2.71c1.07.35,2.17.62,3.24.87.54.12,1.09.22,1.64.31l.2,0,.09,0,.19,0,.37.05h0c1.24.14,2.51.26,3.69.43l1.8.24,1.72.27c1.18.16,2.2.4,3.31.59l1.53.33c.52.1,1,.22,1.47.34a46,46,0,0,1,4.86,1.43,18.7,18.7,0,0,1,2.44,1.07l.06,0h.06l0-.06c.06-.08.13-.18.17-.25a33.92,33.92,0,0,1,2.45-3.56c.51-.62.8-1.05,1.16-1.53s.74-.93,1.15-1.38c.93-1,1.39-1.58,2.09-2.26.33-.32.72-.67,1.05-1s.47-.45.73-.67.54-.44.83-.64a2.89,2.89,0,0,0,.3-.23l.24-.18a6.29,6.29,0,0,1,.54-.35l.25-.14.08-.05.21-.11.13-.05-.06,0-.17.07-.07,0-.14,0a5.66,5.66,0,0,1-1.13.28s-.3.07-.45.1l-.51.1c-.34.06-.67.09-1,.12l-.48,0-.72.08c-.48,0-1,.07-1.43.07s-.94,0-1.39,0c-.15-.63.28,1.41-.35-1.41l0,0,.08.08.16.16.33.32.65.64,1.31,1.29.32.32.26-.14.54-.26a8.41,8.41,0,0,1,1.16-.4,2,2,0,0,1,.56-.1l.38.07c.26.05.52.12.79.2l.4.13.23.06c1.52.51,1.35.78.18-.28-.18-.16-.35-.32-.5-.48s-.23-.28-.52-.56-.45-.49-.66-.74l-.29-.38a4.74,4.74,0,0,0-.32-.42,15,15,0,0,1-1.42-2.07,20.05,20.05,0,0,1-1.56-2.65,57,57,0,0,1-3-6.72l0,0-.12,0c-.11,0-.13.07-.3.1a3.26,3.26,0,0,0-.52.12c-.16.06-.48.07-.71.12-.43.12-1.17.13-1.78.24a57.42,57.42,0,0,1-11-.32,112.66,112.66,0,0,1-13.91-2.56h0l-.37-.08-.18,0h-.09l-.2,0c-.54-.1-1.07-.15-1.62-.24a25.3,25.3,0,0,0-3.29-.26,35.24,35.24,0,0,0-6.73.45,44.15,44.15,0,0,0-13.52,4.52,45.57,45.57,0,0,0-6.4,4,46.43,46.43,0,0,0-5.85,5.09,43.91,43.91,0,0,0-9,13.46,37.86,37.86,0,0,0-3.07,15.89,36.53,36.53,0,0,0,1.11,7.93,37.94,37.94,0,0,0,2.89,7.57,39.53,39.53,0,0,0,10.94,13.07,44.67,44.67,0,0,0,7.92,4.86q2.19,1,4.51,1.88c.77.29,1.59.52,2.4.77l.72.22Z"/><path class="cls-24" d="M207.65,143l-.54,0-.61,0q-1.16-.05-2.3-.06a41.19,41.19,0,0,0-12.77,2,36.45,36.45,0,0,0-13.51,7.87,35.11,35.11,0,0,0-11.2,27.06A42.14,42.14,0,0,0,188.49,215a36.6,36.6,0,0,0,6,2.56c1,.32,2,.59,3.07.82q.77.16,1.55.29c.34.06.5.1.76.13,2.54.27,5,.58,7.37,1,1.21.17,2.27.41,3.41.6s2.17.44,3.11.7a48.06,48.06,0,0,1,5.15,1.52,21.57,21.57,0,0,1,2.85,1.27.83.83,0,0,0,.26.14h0l.55-.77.66-.87c.51-.62.8-1.05,1.16-1.53s.74-.93,1.15-1.38c.93-1,1.39-1.58,2.09-2.26.33-.32.72-.67,1.05-1s.47-.45.73-.67.54-.44.83-.64a3,3,0,0,0,.3-.23l.24-.18c.17-.12.35-.24.54-.35l.25-.14.08-.05.21-.11.13-.05-.06,0-.17.07-.07,0-.14,0a5.64,5.64,0,0,1-1.13.28s-.3.07-.45.1l-.51.1c-.33.06-.66.09-1,.12l-.48,0-.72.08c-.48,0-1,.07-1.43.07s-.94,0-1.39,0c-.15-.63.28,1.41-.35-1.41l0,0,.08.08.17.16.32.32.65.64,1.31,1.29.32.32.26-.14.54-.26a8.54,8.54,0,0,1,1.16-.4,2,2,0,0,1,.56-.1l.38.07c.26.05.52.12.79.2l.4.13.23.06c1.52.51,1.35.78.18-.28-.18-.16-.35-.32-.5-.48s-.23-.28-.52-.56-.45-.49-.66-.74l-.29-.38a4.74,4.74,0,0,0-.32-.42,15.32,15.32,0,0,1-1.42-2.07,20.47,20.47,0,0,1-1.56-2.65l-.16-.34-.22-.4-.42-.81c-.28-.54-.53-1.09-.76-1.63l-.33-.82-.08-.2s0,0,0,0h-.09l-.06,0-.19,0c-.15,0-.22.1-.43.14a5.39,5.39,0,0,0-.64.14c-.2.07-.55.08-.82.14-.51.13-1.3.15-2,.26a60.18,60.18,0,0,1-11.54-.33,115.55,115.55,0,0,1-14.24-2.62h0a6.84,6.84,0,0,0-.76-.13c-.51-.09-1-.16-1.53-.22a25.83,25.83,0,0,0-3.13-.26,33.74,33.74,0,0,0-6.35.43,34.9,34.9,0,0,0-6.4,1.59,38.89,38.89,0,0,0-6.28,2.68A42.66,42.66,0,0,0,150.08,227a34.4,34.4,0,0,0,1.06,29.33,38.6,38.6,0,0,0,4.33,6.49,39,39,0,0,0,13.24,10.13q2,1,4.17,1.74c.72.25,1.47.48,2.22.7l.59.18.53.14s2.78.73,7.87,1.77a175,175,0,0,0,22.17,3.12,128.47,128.47,0,0,0,16.43.2,98.52,98.52,0,0,0,20.78-3.2l3-.89c1-.32,2-.58,3-1,2.11-.8,4.13-1.5,6.35-2.57q1.63-.76,3.25-1.56c1.11-.59,2.24-1.24,3.35-1.88a69.94,69.94,0,0,0,6.72-4.49,64.17,64.17,0,0,0,12.61-12.82c1-1.23,1.8-2.6,2.65-3.94a45.18,45.18,0,0,0,2.36-4.14c.72-1.42,1.41-2.85,2-4.3s1.13-2.9,1.64-4.37.91-2.92,1.29-4.38l.54-2.19.25-1.12.24-1.35c.31-1.81.55-3.63.74-5.44.12-1.18.1-1.16.13-1.52l.06-.9.05-.9v-.28c.13-3.42,0-1,.07-1.82v-1.29c0-1.37-.07-2.75-.14-4.11s-.24-2.82-.42-4.25-.4-2.86-.67-4.3-.68-2.94-1.07-4.39l-.61-2.17-.76-2.16c-.53-1.43-1.08-2.86-1.67-4.26s-1.31-2.73-2-4.07a63.6,63.6,0,0,0-4.68-7.5c-.84-1.16-1.71-2.2-2.59-3.28s-1.79-2.15-2.69-3a66.18,66.18,0,0,0-5.49-5.17c-.91-.77-1.84-1.53-2.76-2.26l-2.68-1.92c-1.82-1.32-3.52-2.33-5.23-3.35s-3.33-1.84-5-2.7a105.54,105.54,0,0,0-17.06-6.67A155.45,155.45,0,0,0,215.67,144c-2.57-.34-4.6-.61-5.94-.75Z"/><path class="cls-9" d="M207.37,145.7a8.56,8.56,0,0,0-1-.06c-.68,0-1.4-.05-2.1-.05a35.3,35.3,0,0,0-4.12.2,37.12,37.12,0,0,0-7.67,1.61A34.29,34.29,0,0,0,180,154.65a32.71,32.71,0,0,0-10.55,25.08,38.4,38.4,0,0,0,10.17,24.94,37.63,37.63,0,0,0,9.94,7.84,32.7,32.7,0,0,0,5.58,2.4c1,.3,1.92.56,2.89.77.48.1,1,.19,1.46.27.23,0,.45.09.67.12a107.47,107.47,0,0,1,14.25,2.33,52,52,0,0,1,5.44,1.61,23.87,23.87,0,0,1,3.27,1.46,1.9,1.9,0,0,0,.39.21.17.17,0,0,0,.12.1h0l.08-.1.13-.18.52-.71q.54-.7,1.15-1.38c.93-1,1.39-1.58,2.09-2.26.33-.32.72-.67,1.05-1s.47-.45.73-.67.54-.44.83-.64a2.89,2.89,0,0,0,.3-.23l.24-.18a6.29,6.29,0,0,1,.54-.35l.25-.14.08-.05.21-.11.13-.05-.06,0-.17.07-.07,0-.14,0a5.66,5.66,0,0,1-1.13.28s-.3.07-.45.1l-.51.1c-.34.06-.67.09-1,.12l-.48,0-.72.08c-.48,0-1,.07-1.43.07s-.94,0-1.39,0c-.15-.63.28,1.41-.35-1.41l0,0,.08.08.16.16.33.32.65.64,1.31,1.29.32.32.26-.14.54-.26a8.41,8.41,0,0,1,1.16-.4,2,2,0,0,1,.56-.1l.38.07c.26.05.52.12.79.2l.4.13.23.06c1.52.51,1.35.78.18-.28-.18-.16-.35-.32-.5-.48s-.23-.28-.52-.56-.45-.49-.66-.74l-.29-.38a4.74,4.74,0,0,0-.32-.42,15,15,0,0,1-1.42-2.07,20.05,20.05,0,0,1-1.56-2.65l-.16-.34-.22-.4-.42-.81-.1-.2v0h0s-.13,0-.2.07l-.13.07-.26.06c-.2,0-.31.12-.56.17a29.86,29.86,0,0,1-3.86.62,63,63,0,0,1-12.08-.34,118.54,118.54,0,0,1-14.57-2.67h0a4.63,4.63,0,0,0-.67-.12c-.46-.08-1-.15-1.44-.21a25.7,25.7,0,0,0-2.94-.25,33.25,33.25,0,0,0-6,.4,38.31,38.31,0,0,0-11.82,4A39.52,39.52,0,0,0,152.57,228a32,32,0,0,0,1.19,27.22,34.15,34.15,0,0,0,9.49,11.19,36.77,36.77,0,0,0,6.78,4.14c1.24.58,2.51,1.12,3.83,1.6.67.23,1.37.44,2,.64q.47.16,1,.28a188.45,188.45,0,0,0,23.35,4.23,132,132,0,0,0,26.42.5c2.45-.28,4.81-.49,7.39-1,1.28-.23,2.49-.4,3.82-.7l3.94-.91a78.16,78.16,0,0,0,16.83-6.47,62.75,62.75,0,0,0,17.2-13.33,58.93,58.93,0,0,0,12.1-20.67l.48-1.41.39-1.39q.38-1.39.72-2.79l.33-1.4c.11-.45.21-1.11.31-1.66q.29-1.72.51-3.46l.2-1.73.09-.87,0-.3.07-1.2,0-.6,0-.3.08-1.91,0-2.65-.1-2.65-.08-1.32-.16-1.4c-.24-1.87-.48-3.71-.85-5.58s-.91-3.81-1.45-5.69-1.31-3.77-2.05-5.62a61,61,0,0,0-12.78-19,69.89,69.89,0,0,0-15.19-11.62,93.69,93.69,0,0,0-14.23-6.58,121.47,121.47,0,0,0-13-3.92c-2.12-.55-4.12-.93-6.19-1.38s-4-.78-6-1.07C215,146.57,211.17,146.11,207.37,145.7Z"/><path class="cls-10" d="M207.1,148.38a8.36,8.36,0,0,0-.91-.05l-.87,0h-1a33.2,33.2,0,0,0-3.77.18,33.88,33.88,0,0,0-7,1.47A31.54,31.54,0,0,0,182,156.59a30.27,30.27,0,0,0-9.88,23.1,35.39,35.39,0,0,0,9.26,23.11,34.91,34.91,0,0,0,9.2,7.29,30.6,30.6,0,0,0,5.2,2.23c.9.27,1.78.53,2.7.72l.69.14.62.11a6.18,6.18,0,0,0,.63.11A109.73,109.73,0,0,1,215,215.79a53.9,53.9,0,0,1,5.73,1.7,26.79,26.79,0,0,1,3.69,1.66,3.64,3.64,0,0,0,.51.29.77.77,0,0,0,.26.2c.07,0,0,0,0,0h0l.23-.26c.93-1,1.39-1.58,2.09-2.26.33-.32.72-.67,1.05-1s.47-.45.73-.67.54-.44.83-.64a2.89,2.89,0,0,0,.3-.23l.24-.18a6.29,6.29,0,0,1,.54-.35l.25-.14.08-.05.21-.11.13-.05-.06,0-.17.07-.07,0-.14,0a5.66,5.66,0,0,1-1.13.28s-.3.07-.45.1l-.51.1c-.34.06-.67.09-1,.12l-.48,0-.72.08c-.48,0-1,.07-1.43.07s-.94,0-1.39,0c-.15-.63.28,1.41-.35-1.41l0,0,.08.08.16.16.33.32.65.64,1.31,1.29.32.32.26-.14.54-.26a8.41,8.41,0,0,1,1.16-.4,2,2,0,0,1,.56-.1l.38.07c.26.05.52.12.79.2l.4.13.23.06c1.52.51,1.35.78.18-.28-.18-.16-.35-.32-.5-.48s-.23-.28-.52-.56-.45-.49-.66-.74l-.29-.38a4.74,4.74,0,0,0-.32-.42,15,15,0,0,1-1.42-2.07c-.3-.43-.58-.87-.84-1.32l-.37-.67c0-.07,0,0,0,0a15.42,15.42,0,0,1-1.76.6,32,32,0,0,1-4.29.7,65.29,65.29,0,0,1-12.63-.34,121,121,0,0,1-14.91-2.74h0a5.36,5.36,0,0,0-.63-.11l-.61-.09-.68-.09c-.91-.11-1.84-.21-2.76-.23a32.19,32.19,0,0,0-5.57.37,36.5,36.5,0,0,0-5.55,1.39,39.4,39.4,0,0,0-5.41,2.37A36.24,36.24,0,0,0,155.07,229a29.74,29.74,0,0,0,1.28,25.13,29.08,29.08,0,0,0,3.74,5.49,30.59,30.59,0,0,0,5,4.76,32.78,32.78,0,0,0,6.21,3.78,36.45,36.45,0,0,0,3.51,1.46l.93.3.84.26c.29.1.58.19.87.26a185.67,185.67,0,0,0,23,4.18,129.28,129.28,0,0,0,25.87.49,96.41,96.41,0,0,0,14.71-2.5,75.36,75.36,0,0,0,16.23-6.24,60,60,0,0,0,16.47-12.76,56.18,56.18,0,0,0,11.55-19.73l.46-1.34.37-1.33c.24-.89.47-1.78.69-2.67l.32-1.34c.1-.43.2-1.05.29-1.58q.27-1.64.48-3.29l.19-1.65.08-.82,0-.3.07-1.2,0-.6,0-.3.07-1.79,0-2.54-.1-2.54-.07-1.27-.15-1.34c-.23-1.78-.46-3.55-.81-5.33s-.87-3.64-1.38-5.43-1.26-3.59-2-5.36a58.34,58.34,0,0,0-12.22-18.16,67.25,67.25,0,0,0-14.62-11.18,91,91,0,0,0-13.81-6.39,119.54,119.54,0,0,0-12.74-3.83c-2.08-.54-4-.91-6.08-1.35s-4-.77-5.89-1.05C214.63,149.24,210.85,148.78,207.1,148.38Z"/><path class="cls-11" d="M206.82,151.06a7.43,7.43,0,0,0-.82,0l-1.56,0a32.63,32.63,0,0,0-3.43.16,31.33,31.33,0,0,0-6.41,1.33,29.1,29.1,0,0,0-10.6,6,27.89,27.89,0,0,0-9.19,21.15,32.34,32.34,0,0,0,8.37,21.25,31.75,31.75,0,0,0,8.45,6.74,27.92,27.92,0,0,0,4.82,2.07c.83.26,1.65.5,2.5.67l1.15.22a5.37,5.37,0,0,0,.59.1,112.75,112.75,0,0,1,15,2.45,56.75,56.75,0,0,1,6,1.79,28.93,28.93,0,0,1,4.11,1.85,6.27,6.27,0,0,0,.64.37,1.89,1.89,0,0,0,.4.29c.15.08.12.14.21.18s.1,0,.06,0,0,0,0,0l.49-.5c.33-.32.72-.67,1.05-1s.47-.45.73-.67.54-.44.83-.64a3,3,0,0,0,.3-.23l.24-.18c.17-.12.35-.24.54-.35l.25-.14.08-.05.21-.11.13-.05-.06,0-.17.07-.07,0-.14,0a5.64,5.64,0,0,1-1.13.28s-.3.07-.45.1l-.51.1c-.33.06-.66.09-1,.12l-.48,0-.72.08c-.48,0-1,.07-1.43.07-.12,0,0,0,0,0,0-.59,0,1.32.05-1.33v.26l0,.3,0,.6,0,.3a.33.33,0,0,0,0,.07l.08.08.16.16.65.64.32.32.26-.14.54-.26a8.54,8.54,0,0,1,1.16-.4,2,2,0,0,1,.56-.1l.38.07c.26.05.52.12.79.2l.4.13.23.06c1.52.51,1.35.78.18-.28-.18-.16-.35-.32-.5-.48s-.23-.28-.52-.56-.45-.49-.66-.74l-.29-.38a4.74,4.74,0,0,0-.32-.42q-.41-.51-.77-1l-.34-.52-.14-.23h0a.15.15,0,0,0-.14.07,15.07,15.07,0,0,1-2.35.83,34.33,34.33,0,0,1-4.72.77,67.87,67.87,0,0,1-13.18-.35,123.75,123.75,0,0,1-15.24-2.79h0a4.68,4.68,0,0,0-.59-.1l-1.14-.16c-.85-.09-1.71-.2-2.56-.21a29.89,29.89,0,0,0-5.16.34,31.55,31.55,0,0,0-10.1,3.51,33.29,33.29,0,0,0-8.88,6.94,31.58,31.58,0,0,0-6.27,10.09,28.38,28.38,0,0,0-1.87,11.78A27.66,27.66,0,0,0,158.93,253a29.36,29.36,0,0,0,8,9.33,29.81,29.81,0,0,0,5.66,3.44,29.4,29.4,0,0,0,3.19,1.32l1.51.49c.26.09.52.17.79.23a183.37,183.37,0,0,0,22.69,4.11,126.68,126.68,0,0,0,25.32.48A93.23,93.23,0,0,0,240.41,270,72.53,72.53,0,0,0,256,264a57.33,57.33,0,0,0,15.74-12.19,53.53,53.53,0,0,0,11-18.78l.44-1.28.35-1.27.65-2.55.3-1.28c.1-.41.19-1,.28-1.49q.26-1.55.46-3.11l.18-1.56.08-.78,0-.3.07-1.2,0-.6,0-.3.07-1.66,0-2.43-.09-2.43-.07-1.21-.15-1.28c-.22-1.7-.44-3.39-.77-5.09s-.83-3.46-1.32-5.18-1.2-3.42-1.87-5.11a55.62,55.62,0,0,0-11.66-17.32,64.59,64.59,0,0,0-14-10.73,98.44,98.44,0,0,0-25.84-9.94A171.36,171.36,0,0,0,206.82,151.06Z"/><path class="cls-12" d="M206.54,153.74a35.16,35.16,0,0,0-5.14.08,29.07,29.07,0,0,0-5.79,1.2,26.36,26.36,0,0,0-9.63,5.45,25.42,25.42,0,0,0-8.49,19.19,29.36,29.36,0,0,0,7.49,19.4,29,29,0,0,0,7.7,6.17,24.89,24.89,0,0,0,4.43,1.89,26,26,0,0,0,3.83.91,115.69,115.69,0,0,1,15.34,2.52,59.55,59.55,0,0,1,6.31,1.88,31.35,31.35,0,0,1,4.52,2,7.67,7.67,0,0,1,1.85,1.31l.07,0h0l.35-.31c.26-.22.54-.44.83-.64a3,3,0,0,0,.3-.23l.24-.18c.17-.12.35-.24.54-.35l.25-.14.08-.05.21-.11.13-.05-.06,0-.17.07-.07,0-.14,0a5.64,5.64,0,0,1-1.13.28s-.3.07-.45.1l-.51.1c-.33.06-.67.09-1,.12l0,0,0,0a.16.16,0,0,0,0,.09.21.21,0,0,0,0,.09c0-.54,0,1.21,0-1.21v.26l0,.3,0,.6-.07,1.2,0,.3V216c0-.09,0-.19,0-.28s0-.19,0-.28a4.49,4.49,0,0,1,.57-.18,2,2,0,0,1,.56-.1l.38.07c.26.05.52.12.79.2l.4.13.23.06c1.52.51,1.35.78.18-.28-.18-.16-.35-.32-.5-.48s-.23-.28-.52-.56-.45-.49-.66-.74l-.29-.38s0,0,0,0a.1.1,0,0,0-.1.08.83.83,0,0,0-.31.17,16.93,16.93,0,0,1-2.95,1.06,37.57,37.57,0,0,1-5.15.85,70.64,70.64,0,0,1-13.72-.36,126.51,126.51,0,0,1-15.58-2.86h0a30.49,30.49,0,0,0-3.89-.42,26,26,0,0,0-4.75.32,25.14,25.14,0,0,0-4.7,1.2,27.56,27.56,0,0,0-4.54,2,29.88,29.88,0,0,0-13.68,15.64,25.08,25.08,0,0,0,1.4,20.94,27.53,27.53,0,0,0,3.13,4.55,29.33,29.33,0,0,0,4.17,3.9,28,28,0,0,0,5.11,3.09,31.23,31.23,0,0,0,4.84,1.81,180.15,180.15,0,0,0,22.35,4.06,124.22,124.22,0,0,0,24.78.48,91.45,91.45,0,0,0,13.85-2.35,70.23,70.23,0,0,0,15-5.77,54.62,54.62,0,0,0,15-11.62,50.78,50.78,0,0,0,10.44-17.84,23.26,23.26,0,0,0,.75-2.42l.62-2.42.29-1.21c.09-.39.18-.95.26-1.41.17-1,.31-2,.43-2.94l.17-1.47.08-.74,0-.3.07-1.2,0-.6,0-.3.06-1.54,0-2.32a56.32,56.32,0,0,0-1-9.54c-.37-1.65-.79-3.29-1.25-4.92s-1.14-3.25-1.78-4.85a52.87,52.87,0,0,0-11.09-16.47,61.77,61.77,0,0,0-13.47-10.29,95.81,95.81,0,0,0-25.14-9.66A168.42,168.42,0,0,0,206.54,153.74Z"/><path class="cls-13" d="M206.27,156.42a5.89,5.89,0,0,0-.66,0h-1.05c-.93,0-1.85,0-2.75.13a26.53,26.53,0,0,0-5.19,1.06,24.18,24.18,0,0,0-8.66,4.87,23.06,23.06,0,0,0-7.77,17.24,26.29,26.29,0,0,0,6.64,17.53,25.36,25.36,0,0,0,7,5.6,21.92,21.92,0,0,0,4,1.74,19.33,19.33,0,0,0,2.11.56l.54.1.27.07a3.78,3.78,0,0,0,.5.09,117.9,117.9,0,0,1,15.7,2.58,61.84,61.84,0,0,1,6.6,2,34.24,34.24,0,0,1,4.94,2.24,10.27,10.27,0,0,1,2.43,1.76l.15.12a.17.17,0,0,0,0,.09.19.19,0,0,0,.08.06s0,0,0,0h0l.13-.07.25-.14.08-.05.21-.11.13-.05-.06,0-.17.07-.07,0-.14,0-.42.13h0c0,.1.05.17,0,.5a.82.82,0,0,0,0,.2c0-.48,0,1.09,0-1.08v.26l0,.3,0,.6-.07,1.2,0,.3,0-.1a1.16,1.16,0,0,1,0-.2,1.48,1.48,0,0,1,0-.39s.06-.16,0-.15l0,0a0,0,0,0,0,0,0l0,0,.2.05c1.52.51,1.35.78.18-.28l-.19-.16s0,0,0,0-.07.07-.14.12a.77.77,0,0,0-.29.21,2.33,2.33,0,0,0-.49.27,19.22,19.22,0,0,1-3.55,1.29,39.79,39.79,0,0,1-5.58.92,73.42,73.42,0,0,1-14.27-.36A129.34,129.34,0,0,1,191,214.78h0l-.5-.09-.28,0-.54-.07q-1.08-.12-2.16-.18a20.79,20.79,0,0,0-4.33.3,25.54,25.54,0,0,0-8.36,2.92,26.75,26.75,0,0,0-12.22,14.19A22.71,22.71,0,0,0,164,250.69a24.2,24.2,0,0,0,6.57,7.56,27.89,27.89,0,0,0,4.58,2.75,20.7,20.7,0,0,0,2.56,1l.67.22.34.12c.21.07.42.13.63.19a177.36,177.36,0,0,0,22,4,121.48,121.48,0,0,0,24.23.47,88.31,88.31,0,0,0,13.42-2.28,67.49,67.49,0,0,0,14.44-5.54,52,52,0,0,0,14.28-11,48.06,48.06,0,0,0,9.89-16.89,44.07,44.07,0,0,0,1.3-4.6l.28-1.15c.09-.37.17-.89.24-1.33.15-.92.29-1.84.41-2.77l.17-1.39.07-.69,0-.3.07-1.2,0-.6,0-.3.06-1.42,0-2.21a53.4,53.4,0,0,0-1-9.08c-.36-1.56-.76-3.12-1.19-4.67s-1.09-3.08-1.68-4.59a50.19,50.19,0,0,0-10.53-15.63,59.16,59.16,0,0,0-12.9-9.85,93.28,93.28,0,0,0-24.43-9.37A166.57,166.57,0,0,0,206.27,156.42Z"/><path class="cls-14" d="M206,159.1l-.58,0c-.2,0-.31,0-.81,0-.82,0-1.63,0-2.42.11a22.42,22.42,0,0,0-4.59.93,21.31,21.31,0,0,0-7.69,4.3,20.55,20.55,0,0,0-7,15.29,23.34,23.34,0,0,0,5.8,15.66,22.87,22.87,0,0,0,6.21,5,21.07,21.07,0,0,0,3.61,1.56,17.79,17.79,0,0,0,1.91.51c.4.07.48.1.64.14l.45.08a120.45,120.45,0,0,1,16.07,2.64,64.47,64.47,0,0,1,6.89,2.05,37,37,0,0,1,5.36,2.44,12.93,12.93,0,0,1,3,2.2,3.83,3.83,0,0,1,.8,1.06,3,3,0,0,1,.21,1.42,2.45,2.45,0,0,0,0,.31c0-.43,0,1,0-1v.26l0,.3,0,.6-.07,1.2,0,.3,0-.05a.52.52,0,0,1,0-.11.5.5,0,0,1,0-.21s0-.1,0-.06l0,.08c-.06.08,0,.26-.08.29a1.42,1.42,0,0,1-.33.58,5.59,5.59,0,0,1-1.68,1.2,21.69,21.69,0,0,1-4.14,1.53,42.16,42.16,0,0,1-6,1,75.53,75.53,0,0,1-14.81-.37,132,132,0,0,1-16.24-3h0a3.62,3.62,0,0,0-.45-.08c-.16,0-.24,0-.64-.07-.65-.09-1.3-.11-1.95-.15a18.31,18.31,0,0,0-3.9.25A22.25,22.25,0,0,0,176,220a23.55,23.55,0,0,0-10.78,12.72,20.41,20.41,0,0,0,1.38,16.79,21.93,21.93,0,0,0,5.85,6.66,25.34,25.34,0,0,0,4,2.43,19.38,19.38,0,0,0,2.26.91c.48.16.58.21.77.28l.55.17a175,175,0,0,0,21.68,3.94,118.84,118.84,0,0,0,23.69.47,85.76,85.76,0,0,0,13-2.2,64.69,64.69,0,0,0,13.85-5.31,49.24,49.24,0,0,0,13.55-10.48,45.38,45.38,0,0,0,9.33-15.94,41,41,0,0,0,1.23-4.35l.26-1.09c.09-.35.16-.84.23-1.25.14-.86.27-1.73.38-2.6l.16-1.3.07-.65,0-.3.07-1.2,0-.6,0-.3.06-1.3,0-2.1a50.75,50.75,0,0,0-.93-8.61q-.51-2.22-1.12-4.41c-.46-1.46-1-2.91-1.59-4.34a47.49,47.49,0,0,0-10-14.79,56.61,56.61,0,0,0-12.33-9.4A90.42,90.42,0,0,0,228,162.76,163.16,163.16,0,0,0,206,159.1Z"/><path class="cls-15" d="M205.71,161.78l-.5,0h-.57c-.71,0-1.41,0-2.1.1a18.67,18.67,0,0,0-4,.8,18.88,18.88,0,0,0-6.73,3.72,18.14,18.14,0,0,0-6.25,13.37,20.3,20.3,0,0,0,5,13.77A19.9,19.9,0,0,0,196,198a19.57,19.57,0,0,0,3.2,1.38,15.3,15.3,0,0,0,1.69.44,5.25,5.25,0,0,0,.86.19,123.33,123.33,0,0,1,16.43,2.7,50.7,50.7,0,0,1,13,4.77,15.66,15.66,0,0,1,3.57,2.65,6.39,6.39,0,0,1,1.36,1.9,5.53,5.53,0,0,1,.42,2.4c0,.14,0,.28,0,.42,0-.37,0,.86,0-.84v.26l0,.3,0,.6-.07,1.2,0,.3h0l0,0s0,0,0,0,0,0,0,0l-.05.14c-.08.17,0,.42-.15.54a4.08,4.08,0,0,1-.89,1.52,8.23,8.23,0,0,1-2.41,1.77,24.23,24.23,0,0,1-4.74,1.76,45.05,45.05,0,0,1-6.44,1.07,78.43,78.43,0,0,1-15.36-.37,134.88,134.88,0,0,1-16.58-3h0a4.52,4.52,0,0,0-.87-.11,19.62,19.62,0,0,0-5.19.09,20.14,20.14,0,0,0-6.6,2.35,20.55,20.55,0,0,0-9.36,11.24,18,18,0,0,0,1.34,14.7,18.65,18.65,0,0,0,5.12,5.79,21.55,21.55,0,0,0,3.49,2.12,21,21,0,0,0,2,.78l.53.21a4.33,4.33,0,0,0,.48.14A172.38,172.38,0,0,0,202,261.22a116,116,0,0,0,23.14.46,82.68,82.68,0,0,0,12.56-2.13A61.9,61.9,0,0,0,251,254.48a46.55,46.55,0,0,0,12.82-9.91,42.72,42.72,0,0,0,8.78-15,38.79,38.79,0,0,0,1.16-4.1,39.19,39.19,0,0,0,.82-4.62l.15-1.21.07-.61,0-.3.07-1.2,0-.6,0-.3,0-1.17,0-2a48.26,48.26,0,0,0-.88-8.14q-.49-2.09-1.06-4.16c-.43-1.37-1-2.74-1.5-4.08a44.84,44.84,0,0,0-9.4-13.94,53.85,53.85,0,0,0-11.75-9,87.92,87.92,0,0,0-23-8.81A161.16,161.16,0,0,0,205.71,161.78Z"/><path class="cls-16" d="M205.44,164.46a3.77,3.77,0,0,0-.85,0h-.36l-.45,0-.89.07a16.56,16.56,0,0,0-3.4.68,16.14,16.14,0,0,0-5.77,3.17,15.66,15.66,0,0,0-5.46,11.44,17.4,17.4,0,0,0,4.2,11.88,17.14,17.14,0,0,0,4.71,3.85,16.42,16.42,0,0,0,2.78,1.2l.73.21.37.09.3.07a3.23,3.23,0,0,0,.7.16,125.75,125.75,0,0,1,16.79,2.77,53.29,53.29,0,0,1,13.66,5.05,18.28,18.28,0,0,1,4.15,3.09,9.09,9.09,0,0,1,1.93,2.75,8.18,8.18,0,0,1,.63,3.38l0,.53c0-.32,0,.74,0-.71v.26l0,.3,0,.6-.07,1.2,0,.3,0,0,0,.06c-.07.12,0,.08-.1.43a5.08,5.08,0,0,1-.22.79,6.74,6.74,0,0,1-1.44,2.47,10.83,10.83,0,0,1-3.14,2.34,26.72,26.72,0,0,1-5.34,2,47.81,47.81,0,0,1-6.87,1.14,81.06,81.06,0,0,1-15.91-.38,137,137,0,0,1-16.91-3.09h0a3.24,3.24,0,0,0-.71-.09,2,2,0,0,1-.31,0l-.38,0-.76,0a15.65,15.65,0,0,0-3,.18,17.54,17.54,0,0,0-13.67,11.79,15.5,15.5,0,0,0,1.26,12.62,15.76,15.76,0,0,0,4.39,4.94,17,17,0,0,0,3,1.8l.82.35.42.16c.14.05.31.11.34.13a4.1,4.1,0,0,0,.8.28,170,170,0,0,0,21,3.82,113.6,113.6,0,0,0,22.6.45A80.45,80.45,0,0,0,237,256.94a59.36,59.36,0,0,0,12.65-4.84,43.82,43.82,0,0,0,12.09-9.34A39.92,39.92,0,0,0,270,228.71a41.78,41.78,0,0,0,1.86-8.15l.14-1.13.07-.56,0-.3.07-1.2,0-.6,0-.3,0-1.05,0-1.88a45.64,45.64,0,0,0-.82-7.66q-.46-2-1-3.9c-.4-1.29-.91-2.56-1.4-3.83a42.1,42.1,0,0,0-8.84-13.1A51.17,51.17,0,0,0,249,176.52,85.28,85.28,0,0,0,226.67,168,158.34,158.34,0,0,0,205.44,164.46Z"/><path class="cls-17" d="M181.94,252.1a166.63,166.63,0,0,0,20.68,3.76,110.93,110.93,0,0,0,22,.45,77.27,77.27,0,0,0,11.71-2,56.66,56.66,0,0,0,12.05-4.61A41.15,41.15,0,0,0,259.78,241a37.25,37.25,0,0,0,7.68-13.11,34.26,34.26,0,0,0,1-3.6,33,33,0,0,0,.71-4l.13-1,.06-.52,0-.3.07-1.2,0-.6,0-.3,0-.93,0-1.77a42.64,42.64,0,0,0-.77-7.2q-.43-1.83-.93-3.65c-.38-1.2-.86-2.39-1.31-3.57a39.37,39.37,0,0,0-8.28-12.25,48.35,48.35,0,0,0-10.6-8.08,82.71,82.71,0,0,0-21.6-8.24,155.46,155.46,0,0,0-20.88-3.47,16.51,16.51,0,0,0-4.75.65,13.92,13.92,0,0,0-4.81,2.63A13.19,13.19,0,0,0,191,180a14.42,14.42,0,0,0,3.44,10,13.77,13.77,0,0,0,4,3.25,14.8,14.8,0,0,0,4,1.46,128.22,128.22,0,0,1,17.15,2.83,56,56,0,0,1,14.36,5.34,20.82,20.82,0,0,1,4.72,3.53,11.68,11.68,0,0,1,2.49,3.59,10.78,10.78,0,0,1,.85,4.36l0,.64c0-.26,0,.62,0-.59v.26l0,.3,0,.6-.07,1.2,0,.3,0,.08,0,.15a7.56,7.56,0,0,1-.16.75,7.1,7.1,0,0,1-.29,1,9.44,9.44,0,0,1-2,3.41,13.51,13.51,0,0,1-3.87,2.91,29.32,29.32,0,0,1-5.93,2.23,50.2,50.2,0,0,1-7.3,1.21,83.63,83.63,0,0,1-16.45-.39,139.82,139.82,0,0,1-17.25-3.15,15.75,15.75,0,0,0-4.22,0,14,14,0,0,0-4.8,1.75,14.44,14.44,0,0,0-6.6,8.21A13.17,13.17,0,0,0,174,245.8a13.77,13.77,0,0,0,3.67,4.09,12.85,12.85,0,0,0,2.47,1.48A13.64,13.64,0,0,0,181.94,252.1Z"/><path class="cls-18" d="M182.27,250.75a165.63,165.63,0,0,0,20.5,3.73,109.42,109.42,0,0,0,21.77.44A75.88,75.88,0,0,0,236,253a55.34,55.34,0,0,0,11.75-4.49,39.73,39.73,0,0,0,11-8.47,35.84,35.84,0,0,0,7.39-12.62,38.27,38.27,0,0,0,1.67-7.3l.13-1,.06-.5,0-.3.07-1.2,0-.6,0-.3,0-.87,0-1.71a36.94,36.94,0,0,0-2.9-13.91,38,38,0,0,0-8-11.82,47.07,47.07,0,0,0-10.31-7.85A81.24,81.24,0,0,0,225.7,172,154.29,154.29,0,0,0,205,168.53a2.93,2.93,0,0,0-.62,0l-.34,0-.66.05a13.58,13.58,0,0,0-2.52.5,12.36,12.36,0,0,0-4.32,2.35,11.9,11.9,0,0,0-4.21,8.55,12.92,12.92,0,0,0,3.05,9,12.61,12.61,0,0,0,3.56,2.94,11.07,11.07,0,0,0,2.12.92l.56.16.28.11a2.56,2.56,0,0,0,.53.12,129.7,129.7,0,0,1,17.34,2.86,57.19,57.19,0,0,1,14.73,5.49,22.33,22.33,0,0,1,5,3.76,13.16,13.16,0,0,1,2.78,4,12.17,12.17,0,0,1,1,4.86l0,.7c0-.24,0,.56,0-.53v.26l0,.3,0,.6-.07,1.2,0,.3,0,.1-.05.2a14.24,14.24,0,0,1-.51,2.08,10.91,10.91,0,0,1-2.28,3.91,14.94,14.94,0,0,1-4.25,3.21,30.84,30.84,0,0,1-6.24,2.34,52,52,0,0,1-7.52,1.26,85.07,85.07,0,0,1-16.73-.39,140.73,140.73,0,0,1-17.42-3.18,2.6,2.6,0,0,0-.55-.07h-.3l-.58,0a14.54,14.54,0,0,0-2.3.15,12.23,12.23,0,0,0-4.33,1.58,13,13,0,0,0-5.9,7.41,11.9,11.9,0,0,0,1.07,9.49,12.75,12.75,0,0,0,3.29,3.66,11.23,11.23,0,0,0,2.21,1.32l.61.26.3.16A3,3,0,0,0,182.27,250.75Z"/><path class="cls-19" d="M183.27,246.64a160.77,160.77,0,0,0,20,3.64,105.21,105.21,0,0,0,20.91.44A71.7,71.7,0,0,0,235,248.89a51,51,0,0,0,10.81-4.13,35.53,35.53,0,0,0,9.84-7.57,31.63,31.63,0,0,0,6.52-11.14,33.06,33.06,0,0,0,1.47-6.41l.12-.86.05-.43,0-.3.07-1.2.09-1.58,0-1.54a32.71,32.71,0,0,0-2.57-12.37,33.77,33.77,0,0,0-7.1-10.49,42.76,42.76,0,0,0-9.41-7.15,77.1,77.1,0,0,0-20.13-7.65,149.81,149.81,0,0,0-20.12-3.34,1.9,1.9,0,0,0-.8.08l-.1,0-.21,0-.41.07a8,8,0,0,0-.8.21,8.15,8.15,0,0,0-2.83,1.51,8,8,0,0,0-2.85,5.61,8.39,8.39,0,0,0,1.94,5.95,8.25,8.25,0,0,0,2.36,2,7.48,7.48,0,0,0,.7.34l.36.14.18.07.09.05a1.81,1.81,0,0,0,.71.24,134,134,0,0,1,17.91,3,61.31,61.31,0,0,1,15.84,5.93c4.62,2.63,8,6,9.59,9.81a16.39,16.39,0,0,1,1.28,6.4l0,.87c0-.15,0,.38,0-.34v.26l0,.3,0,.6-.07,1.2,0,.3,0,.17-.07.33a17.38,17.38,0,0,1-.71,3c-1.34,4-4.21,7.19-8.54,9.49a34.89,34.89,0,0,1-7.18,2.71,55.71,55.71,0,0,1-8.2,1.37,89,89,0,0,1-17.59-.4,145.2,145.2,0,0,1-17.95-3.27,1.7,1.7,0,0,0-.75,0l-.1,0h-.2l-.39,0a7.12,7.12,0,0,0-.77.1,8.4,8.4,0,0,0-6.71,6,8,8,0,0,0,3,8.62,8.29,8.29,0,0,0,.69.45l.37.2.19.09.09.07A2,2,0,0,0,183.27,246.64Z"/><path class="cls-20" d="M183.44,246a160.71,160.71,0,0,0,19.89,3.62,104.66,104.66,0,0,0,20.77.43,71.41,71.41,0,0,0,10.7-1.8,50.41,50.41,0,0,0,10.65-4.06,34.82,34.82,0,0,0,9.65-7.43,30.86,30.86,0,0,0,6.37-10.89,32.23,32.23,0,0,0,1.44-6.26l.11-.84.05-.42,0-.3.07-1.2.08-1.54,0-1.51a32,32,0,0,0-2.51-12.11,33.09,33.09,0,0,0-7-10.27,42.08,42.08,0,0,0-9.26-7,76.59,76.59,0,0,0-19.95-7.58,149.78,149.78,0,0,0-20-3.33,1.8,1.8,0,0,0-.74.07l-.2.07-.38.07c-.25,0-.49.11-.73.18a7.59,7.59,0,0,0-2.58,1.38,7.29,7.29,0,0,0-2.62,5.12,7.67,7.67,0,0,0,1.76,5.44,7.5,7.5,0,0,0,2.16,1.81c.21.11.42.21.64.31l.33.13.17.1a1.59,1.59,0,0,0,.65.22,134.63,134.63,0,0,1,18,3,62,62,0,0,1,16,6c4.7,2.67,8.18,6.13,9.88,10.15a17.08,17.08,0,0,1,1.34,6.66l0,.9c0-.14,0,.35,0-.3V215l0,.3,0,.6-.07,1.2,0,.3,0,.18-.07.35a17.78,17.78,0,0,1-.74,3.11,17.45,17.45,0,0,1-8.88,9.89,35.54,35.54,0,0,1-7.33,2.77,56.36,56.36,0,0,1-8.31,1.39,89.65,89.65,0,0,1-17.73-.4,145.7,145.7,0,0,1-18-3.29,1.55,1.55,0,0,0-.69,0l-.19,0-.36,0c-.24,0-.47,0-.71.09a7.93,7.93,0,0,0-2.64,1,7.69,7.69,0,0,0-3.49,4.54,7.27,7.27,0,0,0,.75,5.7,7.14,7.14,0,0,0,2,2.18c.2.15.42.29.63.42l.33.18c.08.05.11.09.17.13A1.85,1.85,0,0,0,183.44,246Z"/><path class="cls-21" d="M183.61,245.22a160.37,160.37,0,0,0,19.8,3.61,104,104,0,0,0,20.62.43,70.55,70.55,0,0,0,10.57-1.78,49.55,49.55,0,0,0,10.49-4,34.12,34.12,0,0,0,9.44-7.27,30.15,30.15,0,0,0,6.22-10.63,31.5,31.5,0,0,0,1.4-6.1l.11-.81.05-.41,0-.3.07-1.2.08-1.51,0-1.48A31.26,31.26,0,0,0,260,201.94a32.26,32.26,0,0,0-6.79-10,41.4,41.4,0,0,0-9.1-6.91,75.78,75.78,0,0,0-19.75-7.5,148.21,148.21,0,0,0-19.92-3.31,7.69,7.69,0,0,0-4,1.61,6.54,6.54,0,0,0-2.37,4.59,6.91,6.91,0,0,0,1.57,4.9,7.67,7.67,0,0,0,3.46,2.3,135.58,135.58,0,0,1,18.11,3,62.82,62.82,0,0,1,16.22,6.08c4.78,2.72,8.42,6.29,10.2,10.51a17.78,17.78,0,0,1,1.4,6.93l0,.93c0-.12,0,.32,0-.27V215l0,.3,0,.6-.07,1.2,0,.3,0,.19-.07.38a18.59,18.59,0,0,1-.78,3.27,18.19,18.19,0,0,1-9.24,10.31,36.24,36.24,0,0,1-7.5,2.84,57.34,57.34,0,0,1-8.43,1.41c-11.67,1-24-.8-36-3.71a7.86,7.86,0,0,0-4,1,6.86,6.86,0,0,0-3.12,4.09,6.59,6.59,0,0,0,.69,5.13A7.53,7.53,0,0,0,183.61,245.22Z"/><path class="cls-22" d="M203.3,185.14a1.13,1.13,0,0,1-.71-.42l-.08-.09-.17-.11-.32-.25a4.34,4.34,0,0,1-1.54-3.7,4.19,4.19,0,0,1,1.53-2.9,4.32,4.32,0,0,1,.69-.46l.38-.18.2-.08.1-.08a1.12,1.12,0,0,1,.81-.25,146.36,146.36,0,0,1,19.59,3.25,73.46,73.46,0,0,1,19.11,7.24,38.84,38.84,0,0,1,8.57,6.51,29.78,29.78,0,0,1,6.28,9.26A28.8,28.8,0,0,1,260,213.84l0,1.38-.08,1.4-.07,1.2,0,.3,0,.37-.1.74a29.06,29.06,0,0,1-1.29,5.58,27.65,27.65,0,0,1-5.71,9.76,31.63,31.63,0,0,1-8.77,6.74,47.18,47.18,0,0,1-9.94,3.78,68.06,68.06,0,0,1-10.18,1.72,101.43,101.43,0,0,1-20.12-.43,157.25,157.25,0,0,1-19.49-3.55,1.15,1.15,0,0,1-.68-.51l-.07-.1-.16-.13c-.1-.09-.2-.19-.3-.29a4.23,4.23,0,0,1-.5-.66,4.16,4.16,0,0,1-.47-3.24,4.38,4.38,0,0,1,2-2.62,4.2,4.2,0,0,1,.73-.36l.39-.13.2,0,.11-.06a1.1,1.1,0,0,1,.81-.15c12.17,2.94,24.72,4.77,36.82,3.77a59.5,59.5,0,0,0,8.82-1.48,38.78,38.78,0,0,0,8-3,20.7,20.7,0,0,0,10.41-11.69,21.16,21.16,0,0,0,.89-3.79l.08-.46,0-.23,0-.3.07-1.2.06-1,0-1a20.25,20.25,0,0,0-1.59-7.83c-2.05-4.85-6.17-8.81-11.24-11.68a65.18,65.18,0,0,0-16.86-6.34A137.64,137.64,0,0,0,203.3,185.14Z"/><path class="cls-23" d="M264.55,196.76h0a82.54,82.54,0,0,0,9.27-8.38,67.11,67.11,0,0,0,9.31-12.48A59.46,59.46,0,0,0,290,157.84a57.65,57.65,0,0,0,.31-20.84c-.14-.83-.29-1.67-.46-2.47s-.37-1.57-.56-2.35-.4-1.57-.63-2.32l-.71-2.18-.76-2.16q-.52-1.3-1.07-2.59c-.37-.86-.77-1.71-1.17-2.55l-.45-.9-.35-.68-.09-.17-.73-1.37-.13-.23-.54-.93q-1.1-1.85-2.27-3.65a65.49,65.49,0,0,0-5.37-6.81A66.44,66.44,0,0,0,249.12,88.1,85,85,0,0,0,225.92,83a115.47,115.47,0,0,0-19.07.12,152.29,152.29,0,0,0-16.57,2.4q-7.85,1.56-15.07,3.63h0l-.36.11-.18.07-.09,0-.3.1c-.82.26-1.6.56-2.37.86a44.65,44.65,0,0,0-12.23,7.17,39.3,39.3,0,0,0-10.45,13.45,36.73,36.73,0,0,0,.17,31.41,45.83,45.83,0,0,0,22,21.8,44.46,44.46,0,0,0,13.69,4,36.12,36.12,0,0,0,6.73.22c1.11-.09,2.18-.17,3.26-.36.54-.09,1.08-.21,1.6-.31l.2,0H197l.12,0,.23,0h0c3.05-.88,6-1.57,8.79-2.13a72.2,72.2,0,0,1,7.72-1.15,35.57,35.57,0,0,1,5.46-.09c.24.05.55.06.74.09l.24,0h.12l0,0h.08a2.7,2.7,0,0,0,.12-.47l.15-.67c.11-.44.23-.89.35-1.33s.26-.89.41-1.33l.23-.66.17-.58q.35-1.15.81-2.29l.24-.57.18-.49c.12-.32.25-.64.39-1s.29-.64.45-1l.24-.48.18-.39a16,16,0,0,1,.82-1.54c.18-.28.27-.46.38-.66s.23-.39.36-.58l.71-1a8.88,8.88,0,0,1,.64-.8,7.32,7.32,0,0,1,.69-.75c.26-.22,0,0,0,0a3.93,3.93,0,0,1-.42.27l-.1,0h0l-3.29.81h.09l.36,0,1.42.14.71.07.36,0,.18,0a.64.64,0,0,0,.09-.1,9.33,9.33,0,0,1,.74-.77,10.48,10.48,0,0,1,.84-.71c.26-.11.51-.21.78-.31s.55-.18.83-.25.42-.14.65-.2l.67-.15.49-.1c1.33-.23,1.67,0,1-.18a16.47,16.47,0,0,1-4.69-2,46.34,46.34,0,0,1-8.31-6.43c-.77-.73-1.68-1.57-2.45-2.39l-2.5-2.68-.63-.71-.1-.13h0s0,0,0,0l-.12.1h0l-1.24,1.82c-.72,1-1.5,2.41-2.45,4a73.69,73.69,0,0,0-5.4,11.63c-3.19,9-4.81,19.9-1.76,30.77s10.28,19.51,21,23.57a36.65,36.65,0,0,0,18.57,1.8,44,44,0,0,0,11.05-3.21c1-.44,1.95-.89,2.93-1.38s2-1.1,3-1.69,2.05-1.32,3.07-2l.38-.26.12-.07.23-.15C264.24,197,264.4,196.88,264.55,196.76Z"/><path class="cls-24" d="M175.94,91.74l-.33.11-.16.06-.08,0,0,0-.13,0c-.76.24-1.48.51-2.2.8a43.61,43.61,0,0,0-4.14,1.87q-2,1-3.78,2.22c-1.2.8-2.32,1.65-3.41,2.54a36.59,36.59,0,0,0-9.77,12.47,34.43,34.43,0,0,0,0,29.33,42.61,42.61,0,0,0,20.43,20.49,41.52,41.52,0,0,0,12.83,3.82,30.67,30.67,0,0,0,3.2.24,27.28,27.28,0,0,0,3.15,0,30.17,30.17,0,0,0,3.09-.34l1.52-.29a3.88,3.88,0,0,0,.51-.09c3.11-.9,6.13-1.61,9-2.18a74,74,0,0,1,8-1.19,37.69,37.69,0,0,1,5.91-.1c.29.06.64.07.9.1l.32.06h.17l.09,0,.17,0c.05,0,0,0,0,0,.14-.57.6-1.78.77-2.43s.5-1.53.81-2.29l.24-.57.18-.49c.12-.32.25-.64.39-1s.29-.64.45-1l.24-.48.18-.39a16,16,0,0,1,.82-1.54c.18-.28.27-.46.38-.66s.23-.39.36-.58l.71-1a8.88,8.88,0,0,1,.64-.8,7.32,7.32,0,0,1,.69-.75c.26-.22,0,0,0,0a3.93,3.93,0,0,1-.42.27l-.1,0h0l-3.29.81h.09l.36,0,1.42.14.71.07.36,0,.18,0a.64.64,0,0,0,.09-.1,9.33,9.33,0,0,1,.74-.77,10.48,10.48,0,0,1,.84-.71c.26-.11.51-.21.78-.31s.55-.18.83-.25.42-.14.65-.2l.67-.15.49-.1c1.33-.23,1.67,0,1-.18a16.42,16.42,0,0,1-4.69-2,46.27,46.27,0,0,1-8.31-6.42c-.76-.73-1.68-1.57-2.45-2.39l-1.19-1.28c-.32-.33-.21-.21-.24-.23h0s-.15.12-.28.23h0s0,0-.09.13a2.28,2.28,0,0,0-.33.43c-.31.34-.55.77-.92,1.27s-.75,1.08-1.09,1.72-.79,1.34-1.25,2.08a63.4,63.4,0,0,0-5,10.94c-2.9,8.38-4.25,18.66-1.28,28.75s9.84,18.08,19.9,21.77a34.73,34.73,0,0,0,17.31,1.5,43.39,43.39,0,0,0,5-1.12,44.33,44.33,0,0,0,5.23-1.94,48,48,0,0,0,5.42-2.83c.94-.59,1.87-1.21,2.8-1.85l.54-.35.42-.31,1.58-1.27c1-.8,2.58-2.15,4.53-4a69.31,69.31,0,0,0,7.19-8,60.1,60.1,0,0,0,8.42-14.84c.31-.82.62-1.65.92-2.49s.56-1.79.82-2.7a53,53,0,0,0,1.29-5.76,58,58,0,0,0,.69-6.19,55.54,55.54,0,0,0-.05-6.39,56.52,56.52,0,0,0-2.21-12.39q-.44-1.41-.93-2.83l-.51-1.43-.7-1.7q-.72-1.7-1.53-3.37l-.5-1-.24-.48-.71-1.33-.18-.31-.37-.63c-.49-.84-1-1.67-1.53-2.5a58.54,58.54,0,0,0-3.47-4.85c-1.23-1.58-2.6-3.05-4-4.53s-2.88-2.77-4.38-4.09a65.5,65.5,0,0,0-18.86-11A77.81,77.81,0,0,0,231,86.27a103.36,103.36,0,0,0-14.39-.92,136.07,136.07,0,0,0-21.88,2.08c-5.92,1-10.6,2.14-13.79,3-1.62.4-2.85.74-3.69,1Z"/><path class="cls-9" d="M176.67,94.33a4.23,4.23,0,0,0-.6.22c-.65.21-1.35.46-2,.72-1.31.52-2.59,1.09-3.81,1.72a38,38,0,0,0-6.63,4.39,34.15,34.15,0,0,0-9.09,11.5,32.17,32.17,0,0,0-.23,27.24,39.33,39.33,0,0,0,18.86,19.19,38.19,38.19,0,0,0,12,3.6,31.39,31.39,0,0,0,6,.18,24,24,0,0,0,2.91-.32l1.42-.27a2,2,0,0,0,.42-.07c3.17-.91,6.25-1.64,9.2-2.23a76.77,76.77,0,0,1,8.31-1.23,40.66,40.66,0,0,1,6.36-.1c.34.06.74.08,1,.12l.41.07.21,0,.13,0,.27.05c.09,0,.08,0,.13,0s.12,0,.07,0h0l0-.14.09-.29.2-.58c.13-.38.28-.76.43-1.15l.24-.57.18-.49c.12-.32.25-.64.39-1s.29-.64.45-1l.24-.48.18-.39a16,16,0,0,1,.82-1.54c.18-.28.27-.46.38-.66s.23-.39.36-.58l.71-1a8.88,8.88,0,0,1,.64-.8,7.32,7.32,0,0,1,.69-.75c.26-.22,0,0,0,0a3.93,3.93,0,0,1-.42.27l-.1,0h0l-3.29.81h.09l.36,0,1.42.14.71.07.36,0,.18,0a.64.64,0,0,0,.09-.1,9.33,9.33,0,0,1,.74-.77,10.48,10.48,0,0,1,.84-.71c.26-.11.51-.21.78-.31s.55-.18.83-.25.42-.14.65-.2l.67-.15.49-.1c1.33-.23,1.67,0,1-.18a16.47,16.47,0,0,1-4.69-2,46.34,46.34,0,0,1-8.31-6.43c-.33-.34-.84-.77-1.23-1.16l-.62-.61-.15-.15,0,0h0s0,0-.07.06-.25.2-.42.36h0l-.09.12a2.82,2.82,0,0,0-.37.44c-.13.17-.31.36-.45.57s-.29.43-.49.68c-.63,1-1.47,2.19-2.23,3.6a59.1,59.1,0,0,0-4.54,10.25c-2.57,7.85-3.72,17.38-.82,26.73s9.38,16.69,18.76,20a32,32,0,0,0,16,1.22,38.49,38.49,0,0,0,9.36-2.88c.8-.35,1.62-.74,2.45-1.2s1.64-.89,2.48-1.41,1.71-1.11,2.5-1.66a6.42,6.42,0,0,0,.76-.53,76.66,76.66,0,0,0,8.65-7.82,61.67,61.67,0,0,0,8.57-11.47,54.08,54.08,0,0,0,6.23-16.43,52.25,52.25,0,0,0,.28-18.89c-.13-.75-.26-1.51-.41-2.24l-.51-2.14c-.18-.71-.37-1.43-.57-2.11l-.65-2-.7-2c-.31-.78-.63-1.56-1-2.34s-.69-1.54-1.05-2.31l-.44-.88-.35-.68-.09-.17-.64-1.2-.12-.21-.5-.85q-1-1.69-2.08-3.34a60.24,60.24,0,0,0-10.51-11.69,61.61,61.61,0,0,0-6-4.45,63.56,63.56,0,0,0-12.16-6.18,79.72,79.72,0,0,0-21.72-4.78,110.4,110.4,0,0,0-18.17.12,146.85,146.85,0,0,0-16,2.31Q183.72,92.31,176.67,94.33Z"/><path class="cls-10" d="M177.4,96.92a4.17,4.17,0,0,0-.55.2l-.34.12-.47.16c-.31.1-.61.23-.91.34q-1.8.71-3.48,1.57a34.71,34.71,0,0,0-6.09,4,31.83,31.83,0,0,0-4.85,4.94,29.46,29.46,0,0,0-3.54,5.63,29.76,29.76,0,0,0-.4,25.16,36.19,36.19,0,0,0,17.3,17.86,38.86,38.86,0,0,0,5.49,2.17,34.61,34.61,0,0,0,5.6,1.19,29.65,29.65,0,0,0,5.56.17,23.31,23.31,0,0,0,2.73-.31l1.26-.23a1.89,1.89,0,0,0,.4-.07c3.23-.93,6.38-1.67,9.41-2.28a79.68,79.68,0,0,1,8.6-1.27,43.64,43.64,0,0,1,6.81-.1,14.35,14.35,0,0,1,3,.51,4.16,4.16,0,0,0,.27-.67c.12-.32.25-.64.39-1s.29-.64.45-1l.24-.48.18-.39a16,16,0,0,1,.82-1.54c.18-.28.27-.46.38-.66s.23-.39.36-.58l.71-1a8.88,8.88,0,0,1,.64-.8,7.32,7.32,0,0,1,.69-.75c.26-.22,0,0,0,0a3.93,3.93,0,0,1-.42.27l-.1,0h0l-3.29.81h.09l.36,0,1.42.14.71.07.36,0,.18,0a.64.64,0,0,0,.09-.1,9.33,9.33,0,0,1,.74-.77,10.48,10.48,0,0,1,.84-.71c.26-.11.51-.21.78-.31s.55-.18.83-.25.42-.14.65-.2l.67-.15.49-.1c1.33-.23,1.67,0,1-.18a16.47,16.47,0,0,1-4.69-2,46.34,46.34,0,0,1-8.31-6.43c-.14-.13-.06-.06-.07-.08h0l0,0s-.08.07-.15.14-.35.29-.57.48h0a.8.8,0,0,0-.1.13,5.44,5.44,0,0,0-.39.44c-.11.17-.31.36-.45.56s-.28.42-.47.66a39.3,39.3,0,0,0-2.14,3.4,50.15,50.15,0,0,0-4.11,9.56c-2.31,7.28-3.21,16.11-.41,24.7a27.74,27.74,0,0,0,17.59,18.2,30.07,30.07,0,0,0,14.78.93,30.89,30.89,0,0,0,4.18-1,36.93,36.93,0,0,0,4.33-1.65c.72-.31,1.48-.72,2.22-1.11s1.47-.79,2.24-1.29l1.13-.74.56-.38.28-.19.13-.08a5.58,5.58,0,0,0,.68-.47,74,74,0,0,0,8.34-7.54,59.08,59.08,0,0,0,8.2-11,51.43,51.43,0,0,0,5.92-15.61,49.57,49.57,0,0,0,.26-17.92c-.12-.71-.25-1.44-.39-2.13l-.49-2c-.17-.67-.35-1.35-.54-2l-.62-1.89-.66-1.88c-.29-.74-.6-1.48-.92-2.22s-.65-1.46-1-2.18l-.43-.86-.35-.68-.09-.17-.6-1.12-.12-.2-.48-.81q-1-1.61-2-3.18a57.48,57.48,0,0,0-10-11.15,59.23,59.23,0,0,0-5.74-4.25,60.76,60.76,0,0,0-11.65-5.92,77,77,0,0,0-21-4.61,107.79,107.79,0,0,0-17.72.12,144.16,144.16,0,0,0-15.69,2.27Q184.36,94.93,177.4,96.92Z"/><path class="cls-11" d="M178.13,99.52a3.62,3.62,0,0,0-.5.18,1.26,1.26,0,0,1-.18.07l-.42.15c-.28.1-.56.2-.83.31-1.09.43-2.14.91-3.16,1.43a32.45,32.45,0,0,0-5.56,3.63,29.42,29.42,0,0,0-7.7,9.63,27.49,27.49,0,0,0-.53,23.07A32.94,32.94,0,0,0,175,154.49a31.41,31.41,0,0,0,10.22,3.13,26.51,26.51,0,0,0,5.16.17,20.84,20.84,0,0,0,2.54-.29l.63-.11.31-.06a.53.53,0,0,1,.14,0,1.92,1.92,0,0,0,.37-.06,103.1,103.1,0,0,1,18.51-3.64,45.57,45.57,0,0,1,7.26-.1,16,16,0,0,1,3.7.68c.09,0,0,0,.07,0h0l.06-.11.24-.48.18-.39a16,16,0,0,1,.82-1.54c.18-.28.27-.46.38-.66s.23-.39.36-.58l.71-1a8.88,8.88,0,0,1,.64-.8,7.32,7.32,0,0,1,.69-.75c.26-.22,0,0,0,0a3.93,3.93,0,0,1-.42.27l-.1,0h0l-3.29.81h.09l.36,0,1.42.14.71.07.36,0,.18,0a.64.64,0,0,0,.09-.1,9.33,9.33,0,0,1,.74-.77,10.48,10.48,0,0,1,.84-.71c.26-.11.51-.21.78-.31s.55-.18.83-.25.42-.14.65-.2l.67-.15.49-.1c1.33-.23,1.67,0,1-.18a16.42,16.42,0,0,1-4.69-2c-.29-.17-.57-.34-.84-.52l-1-.62c-.33-.22-.66-.45-1-.68l-.48-.36-.57-.4c-.77-.56-1.4-1.11-2.15-1.75-.58-.48-.37-.3-.42-.33v0a13.7,13.7,0,0,1-1.09,1h0a.72.72,0,0,0-.11.13s-.08.09-.16.17l-.22.24c-.24.34-.65.74-.91,1.18a16,16,0,0,0-1,1.48c-.37.53-.68,1.12-1,1.73a45.8,45.8,0,0,0-3.73,8.85c-2,6.72-2.71,14.84,0,22.68a25.46,25.46,0,0,0,16.4,16.43,27.4,27.4,0,0,0,13.5.72,36.82,36.82,0,0,0,3.78-1A39.37,39.37,0,0,0,251.6,192a36,36,0,0,0,4-2.18l1-.65.5-.34.15-.1.08,0a5.1,5.1,0,0,0,.61-.42,71.49,71.49,0,0,0,8-7.25,56.34,56.34,0,0,0,7.82-10.47,48.79,48.79,0,0,0,5.61-14.8,46.78,46.78,0,0,0,.25-16.94c-.11-.67-.23-1.36-.37-2l-.47-1.93c-.16-.64-.33-1.28-.51-1.9l-.59-1.8-.63-1.78q-.42-1.05-.87-2.09c-.3-.69-.61-1.38-.94-2.06l-.42-.85-.35-.68-.09-.17-.55-1-.11-.19-.45-.77q-.91-1.53-1.88-3a55.18,55.18,0,0,0-4.45-5.65,54.6,54.6,0,0,0-5.09-5,56.78,56.78,0,0,0-5.47-4,58.06,58.06,0,0,0-11.14-5.66A74.25,74.25,0,0,0,225,93.74a105,105,0,0,0-17.27.12,142,142,0,0,0-15.4,2.23Q185,97.55,178.13,99.52Z"/><path class="cls-12" d="M178.86,102.11c-.37.1-.3.13-1.61.6q-1.46.59-2.84,1.29a28.19,28.19,0,0,0-5,3.27,26.51,26.51,0,0,0-7,8.69,25.1,25.1,0,0,0-.65,21A29.84,29.84,0,0,0,176,152.09a28.85,28.85,0,0,0,9.34,2.89,25.6,25.6,0,0,0,4.74.15,20.43,20.43,0,0,0,2.35-.28c1-.18,1-.13,1.25-.2a106,106,0,0,1,19-3.73,48.13,48.13,0,0,1,7.71-.1,18.22,18.22,0,0,1,4.44.85c.13,0,.13.07.2.09s.15,0,.13,0v0h0s0,.07.08-.12.27-.46.38-.66.23-.39.36-.58l.71-1a8.88,8.88,0,0,1,.64-.8,7.32,7.32,0,0,1,.69-.75c.26-.22,0,0,0,0a3.93,3.93,0,0,1-.42.27l-.1,0h0l-3.29.81h.09l.36,0,1.42.14.71.07.36,0,.18,0a.64.64,0,0,0,.09-.1,9.33,9.33,0,0,1,.74-.77,10.48,10.48,0,0,1,.84-.71c.26-.11.51-.21.78-.31s.55-.18.83-.25.42-.14.65-.2l.67-.15.49-.1c1.33-.23,1.67,0,1-.18a16.42,16.42,0,0,1-4.69-2c-.29-.17-.57-.34-.84-.52l-1-.62c-.33-.22-.66-.45-1-.68l-.48-.36-.57-.4-.49-.37h0s0,0,0,0a.53.53,0,0,0-.12.14,15.44,15.44,0,0,1-1.4,1.23h0c-.09.09-.06.11-.47.52s-.61.71-.91,1.14a28,28,0,0,0-1.9,3,39,39,0,0,0-3.33,8.14,33.63,33.63,0,0,0,.33,20.64,23.24,23.24,0,0,0,15.17,14.7,25.2,25.2,0,0,0,12.23.49,29.69,29.69,0,0,0,6.88-2.29,30.59,30.59,0,0,0,3.54-1.95l.89-.57.22-.15.11-.07,0,0,.14-.08a3.8,3.8,0,0,0,.53-.37,68.64,68.64,0,0,0,7.71-7,53.65,53.65,0,0,0,7.45-10,46.08,46.08,0,0,0,5.31-14,44.16,44.16,0,0,0,.23-16c-.11-.64-.22-1.28-.35-1.9l-.44-1.82c-.15-.6-.31-1.21-.48-1.8l-.56-1.7-.6-1.69q-.39-1-.82-2t-.88-1.94l-.42-.83-.35-.68-.09-.17-.5-.94-.11-.18-.43-.73q-.87-1.45-1.79-2.87a52.15,52.15,0,0,0-9-10.06,53.92,53.92,0,0,0-5.2-3.85,55.5,55.5,0,0,0-10.63-5.4,71.65,71.65,0,0,0-19.49-4.27,102.05,102.05,0,0,0-16.82.12,138.65,138.65,0,0,0-15.11,2.19Q185.65,100.17,178.86,102.11Z"/><path class="cls-13" d="M179.59,104.71a2.74,2.74,0,0,0-.4.14l-.23.1-.67.24a27.16,27.16,0,0,0-2.53,1.15,24.65,24.65,0,0,0-4.48,2.92,23.2,23.2,0,0,0-3.62,3.62A22.43,22.43,0,0,0,165,117a22.73,22.73,0,0,0-.74,18.9A26.71,26.71,0,0,0,177,149.69a28.42,28.42,0,0,0,4.16,1.7,27.32,27.32,0,0,0,4.29.94,24.5,24.5,0,0,0,4.32.14c.72,0,1.43-.14,2.15-.26l.53-.09h.19a1.74,1.74,0,0,0,.32-.05,108.36,108.36,0,0,1,19.51-3.82,51.17,51.17,0,0,1,8.16-.1,20.8,20.8,0,0,1,5.19,1,3.7,3.7,0,0,1,.81.39h0s0,0,0,0h0l.07-.1a8.88,8.88,0,0,1,.64-.8,7.32,7.32,0,0,1,.69-.75c.26-.22,0,0,0,0a3.93,3.93,0,0,1-.42.27l-.1,0h0l-1.76,0,0,0,.09.17.35.68s0,.06.06.08l.18,0,.35,0,.36,0,.18,0a.64.64,0,0,0,.09-.1,9.33,9.33,0,0,1,.74-.77,10.48,10.48,0,0,1,.84-.71c.26-.11.51-.21.78-.31s.55-.18.83-.25.42-.14.65-.2l.67-.15.49-.1c1.33-.23,1.67,0,1-.18a16.42,16.42,0,0,1-4.69-2c-.29-.17-.57-.34-.84-.52l-1-.62-.33-.22s0,0,0,0,0,.08-.1.14a1.54,1.54,0,0,0-.21.23,17.87,17.87,0,0,1-1.72,1.52h0a.83.83,0,0,0-.12.14s0,0-.07.1l-.23.24c-.29.32-.57.69-.9,1.08s-.58.83-.9,1.29-.56,1-.88,1.48a34.09,34.09,0,0,0-2.95,7.42,30.1,30.1,0,0,0,.62,18.6,21,21,0,0,0,13.9,13,22.74,22.74,0,0,0,11,.3,23.08,23.08,0,0,0,3-.83A23.52,23.52,0,0,0,250,186.7a26.09,26.09,0,0,0,3.1-1.72l.77-.5.28-.16a3.59,3.59,0,0,0,.47-.32,66.22,66.22,0,0,0,7.4-6.69,51,51,0,0,0,7.08-9.47,43.37,43.37,0,0,0,5-13.16,41.45,41.45,0,0,0,.22-15,34.43,34.43,0,0,0-.74-3.5c-.15-.56-.29-1.14-.45-1.69l-.53-1.6-.56-1.59c-.25-.62-.5-1.23-.77-1.85s-.54-1.22-.82-1.82l-.41-.82-.35-.68-.09-.17-.46-.86-.1-.17-.41-.69q-.82-1.37-1.69-2.72a49.77,49.77,0,0,0-8.56-9.52,51.52,51.52,0,0,0-4.93-3.65,52.89,52.89,0,0,0-10.12-5.14,69,69,0,0,0-18.74-4.1,99.49,99.49,0,0,0-16.37.12,136.37,136.37,0,0,0-14.81,2.15Q186.29,102.79,179.59,104.71Z"/><path class="cls-14" d="M180.32,107.3a2.53,2.53,0,0,0-.35.13,3.71,3.71,0,0,1-.63.26,20.79,20.79,0,0,0-2.23,1,21.88,21.88,0,0,0-4,2.57,21.43,21.43,0,0,0-5.62,6.86,20.39,20.39,0,0,0-.79,16.83A23.59,23.59,0,0,0,178,147.29a22.85,22.85,0,0,0,7.57,2.39,21.73,21.73,0,0,0,3.89.13c.65,0,1.3-.14,1.94-.23a2.34,2.34,0,0,1,.53-.06l.29,0a111,111,0,0,1,20-3.91,53.44,53.44,0,0,1,8.61-.1,23.29,23.29,0,0,1,5.93,1.19,6.44,6.44,0,0,1,1.32.65c.18.06.17.16.28.18s.09.06.07.09,0,0,.05,0,0,0,0,.05h0l-.34-.65,0,0,.09.17.35.68.17.34.09.17,0,.09,0,0a2.5,2.5,0,0,1-.17-.28l-.06-.15s0-.08.12-.13l.22-.17c.26-.11.51-.21.78-.31s.55-.18.83-.25.42-.14.65-.2l.67-.15.49-.1c1.33-.23,1.67,0,1-.18l-.26-.06-.44-.11-.43-.15-.61-.21-.58-.25c-.26-.1-.51-.22-.76-.34l-1.5-.79a4.62,4.62,0,0,1-.66.82,20.26,20.26,0,0,1-2,1.8h0a.79.79,0,0,0-.12.13,1.25,1.25,0,0,1-.23.27c-.32.31-.54.65-.86,1a13.51,13.51,0,0,0-.83,1.2,12.63,12.63,0,0,0-.8,1.36,28.59,28.59,0,0,0-2.6,6.69,26.65,26.65,0,0,0,.88,16.55,18.77,18.77,0,0,0,12.6,11.33,20.45,20.45,0,0,0,9.69.15c.87-.2,1.75-.45,2.63-.75a26.34,26.34,0,0,0,2.67-1.12,24.93,24.93,0,0,0,2.68-1.51l.33-.21.15-.1.05,0,.21-.11a3.08,3.08,0,0,0,.4-.28,63.2,63.2,0,0,0,7.09-6.4,48.32,48.32,0,0,0,6.71-9,40.74,40.74,0,0,0,4.69-12.34,38.75,38.75,0,0,0,.2-14,32.17,32.17,0,0,0-.7-3.29c-.14-.53-.28-1.07-.43-1.59l-.5-1.51-.52-1.5-.72-1.72-.77-1.7-.4-.8-.35-.68-.09-.17-.41-.77-.09-.16-.39-.65q-.78-1.3-1.59-2.56a47,47,0,0,0-8.07-9A48.65,48.65,0,0,0,252,110.6a50.15,50.15,0,0,0-9.61-4.88,66.31,66.31,0,0,0-18-3.93,97.05,97.05,0,0,0-15.92.11A133.4,133.4,0,0,0,193.94,104Q186.93,105.4,180.32,107.3Z"/><path class="cls-15" d="M181.05,109.89l-.3.11-.15.07-.07,0,0,0-.13,0a16.65,16.65,0,0,0-1.94.87,20.59,20.59,0,0,0-3.44,2.22,18.83,18.83,0,0,0-4.91,6,18,18,0,0,0-.82,14.74A20.59,20.59,0,0,0,179,144.91a20,20,0,0,0,6.67,2.11,17.46,17.46,0,0,0,3.45.12c.58,0,1.15-.12,1.72-.2l.11,0h.23l.25,0a113.71,113.71,0,0,1,20.51-4,56.08,56.08,0,0,1,9.06-.1,25.78,25.78,0,0,1,6.67,1.36,9.21,9.21,0,0,1,1.83.91c.26.12.35.29.55.38s.27.22.33.35.15.24.28.32a.63.63,0,0,0,.11.21l0,0h0l-.3-.57,0,0,.09.17.35.68.17.34.09.17,0,.09h0a.79.79,0,0,1-.11-.16.82.82,0,0,1-.06-.18.07.07,0,0,0,0,0,.08.08,0,0,0,0,0h0l.12,0,.67-.15.49-.1c1.33-.23,1.67,0,1-.18l-.26-.06-.44-.11-.43-.15-.61-.21-.29-.12-.13-.06h0l0,0a.05.05,0,0,0,0,0l-.06.08a7.34,7.34,0,0,1-1,1.32,23.11,23.11,0,0,1-2.34,2.08h0a2.19,2.19,0,0,0-.26.32,7.66,7.66,0,0,0-.8.95,16.16,16.16,0,0,0-1.51,2.31,24.58,24.58,0,0,0-2.23,6,23.08,23.08,0,0,0,1.07,14.5,16.59,16.59,0,0,0,11.25,9.7,18,18,0,0,0,8.43,0,21.39,21.39,0,0,0,4.54-1.61c.76-.39,1.53-.83,2.28-1.3l.14-.09,0,0,.09,0L251,180l.34-.24a60.52,60.52,0,0,0,6.78-6.12,45.55,45.55,0,0,0,6.34-8.47,38,38,0,0,0,4.38-11.53,36,36,0,0,0,.19-13,38.16,38.16,0,0,0-1.51-6L267,133.2l-.67-1.59-.71-1.58-.39-.79-.35-.68-.09-.17-.37-.69-.09-.15-.36-.61q-.73-1.22-1.5-2.41a43.68,43.68,0,0,0-3.54-4.48,44.55,44.55,0,0,0-4-3.95,45.83,45.83,0,0,0-4.4-3.24,47.36,47.36,0,0,0-9.1-4.62,63.75,63.75,0,0,0-17.26-3.76,94.09,94.09,0,0,0-15.47.12A151.28,151.28,0,0,0,181.05,109.89Z"/><path class="cls-16" d="M181.78,112.49a1.8,1.8,0,0,0-.5.23,1.81,1.81,0,0,1-.31.14l-.42.18c-.28.12-.54.25-.81.39a18.29,18.29,0,0,0-2.93,1.89,16.55,16.55,0,0,0-4.22,5.09,15.58,15.58,0,0,0-.81,12.66,17.49,17.49,0,0,0,8.31,9.45,16.71,16.71,0,0,0,5.76,1.85,14.23,14.23,0,0,0,3,.1l1.41-.14a1.26,1.26,0,0,0,.45,0,116.27,116.27,0,0,1,21-4.09,58.75,58.75,0,0,1,9.51-.1,28.42,28.42,0,0,1,7.41,1.53,11.85,11.85,0,0,1,2.34,1.17c.35.18.54.42.82.58s.45.38.59.6.31.43.51.61a2.41,2.41,0,0,0,.21.36l.06.09,0,0h0l-.26-.49,0,0,.09.17.35.68.18.34.09.17,0,.09h0l-.05,0a.08.08,0,0,1,0-.06,1,1,0,0,0,0,.14.68.68,0,0,1,.07.24c0,.07,0,.13,0,.16s0,.08,0,.13a2.75,2.75,0,0,1-.31.69,10.15,10.15,0,0,1-1.4,1.82,25.27,25.27,0,0,1-2.65,2.37h0a.87.87,0,0,0-.2.26s-.08.09-.14.16l-.19.21c-.13.15-.25.29-.36.45a13.47,13.47,0,0,0-1.33,2.06,19.24,19.24,0,0,0-1.9,5.2,19.55,19.55,0,0,0,1.2,12.45,14.39,14.39,0,0,0,9.85,8.12,15.84,15.84,0,0,0,7.17-.09,18.69,18.69,0,0,0,3.81-1.41l.95-.51.47-.28a3.28,3.28,0,0,1,.36-.2,2.1,2.1,0,0,0,.58-.34,58,58,0,0,0,6.47-5.84,43,43,0,0,0,6-8,35.21,35.21,0,0,0,4.08-10.71,33.27,33.27,0,0,0,.17-12.07,35.44,35.44,0,0,0-1.41-5.54l-.46-1.31-.61-1.47-.65-1.45-.39-.77-.35-.68-.09-.17-.32-.61-.09-.14-.34-.57q-.68-1.14-1.4-2.26a40.79,40.79,0,0,0-3.31-4.19,41.3,41.3,0,0,0-3.78-3.7,42.93,42.93,0,0,0-4.12-3,44.75,44.75,0,0,0-8.59-4.36,61.06,61.06,0,0,0-16.52-3.59,91.35,91.35,0,0,0-15,.11A148.63,148.63,0,0,0,181.78,112.49Z"/><path class="cls-17" d="M248,175.47a55.56,55.56,0,0,0,6.16-5.56,40.41,40.41,0,0,0,5.59-7.46,32.66,32.66,0,0,0,3.77-9.89,30.7,30.7,0,0,0,.16-11.1,24.5,24.5,0,0,0-.56-2.62,24.11,24.11,0,0,0-.74-2.5l-.42-1.21-.56-1.35-.59-1.33-.38-.76-.35-.68-.09-.17-.28-.52-.08-.13-.32-.53-1.3-2.1a38.63,38.63,0,0,0-6.6-7.34,40.4,40.4,0,0,0-3.86-2.85,41.94,41.94,0,0,0-8.08-4.1,58.33,58.33,0,0,0-15.77-3.42,88.7,88.7,0,0,0-14.57.11,145.94,145.94,0,0,0-26.64,5.12,1.35,1.35,0,0,0-.41.19l-.1.07a2,2,0,0,1-.28.13l-.67.31a15.19,15.19,0,0,0-2.42,1.58,13.41,13.41,0,0,0-3.52,4.22,13.07,13.07,0,0,0-.78,10.58,14.56,14.56,0,0,0,11.74,9.55,12.26,12.26,0,0,0,2.54.07c1.1-.12,1.1,0,1.39-.09a118.72,118.72,0,0,1,21.51-4.19,61.4,61.4,0,0,1,10-.1,31,31,0,0,1,8.16,1.69,14.46,14.46,0,0,1,2.85,1.43,12.73,12.73,0,0,1,1.09.79,11.7,11.7,0,0,1,.85.85c.29.27.47.62.74.91a5.89,5.89,0,0,0,.31.51l.08.12,0,0h0l-.21-.4,0,0,.09.17.35.68.18.34.09.17,0,.09s0,0,0,0a.28.28,0,0,0,0,.08.2.2,0,0,0,0,.07l.07.24a1.94,1.94,0,0,1,.13.44,1.33,1.33,0,0,1,.08.37,2.84,2.84,0,0,1,0,1.1,5,5,0,0,1-.62,1.51,12.76,12.76,0,0,1-1.77,2.32,28.27,28.27,0,0,1-3,2.65c-.17.15-.1.2-.7.87a13.62,13.62,0,0,0-1.17,1.79,17.08,17.08,0,0,0-.92,2.09,20.49,20.49,0,0,0-.64,2.34,16.2,16.2,0,0,0,1.28,10.41,12.11,12.11,0,0,0,8.4,6.57,11.56,11.56,0,0,0,2.88.26,13,13,0,0,0,3-.42,14.19,14.19,0,0,0,3.09-1.17l.77-.41.19-.11.13-.07.13,0A1.68,1.68,0,0,0,248,175.47Z"/><path class="cls-18" d="M247.18,174.37a53.8,53.8,0,0,0,6-5.41,38.82,38.82,0,0,0,5.4-7.2,31.16,31.16,0,0,0,3.61-9.47,29.22,29.22,0,0,0,.15-10.59,23.34,23.34,0,0,0-.53-2.51,24,24,0,0,0-.71-2.39l-.4-1.17-.54-1.28-.56-1.27-.12-.24-.09-.17-.17-.34-.35-.68-.09-.17-.26-.48-.07-.13-.31-.51-1.25-2a37.4,37.4,0,0,0-6.35-7.06,39.07,39.07,0,0,0-3.72-2.74,40.71,40.71,0,0,0-7.82-4,57.06,57.06,0,0,0-15.39-3.34,87.82,87.82,0,0,0-14.34.11,144.73,144.73,0,0,0-26.38,5.07,1.31,1.31,0,0,0-.37.17,2.19,2.19,0,0,1-.2.14l-.6.28a12.41,12.41,0,0,0-2.17,1.4,11.93,11.93,0,0,0-3.16,3.78,11.78,11.78,0,0,0-.74,9.5,13,13,0,0,0,10.53,8.63,11.86,11.86,0,0,0,2.3.07l.58,0a1.53,1.53,0,0,1,.22,0,1,1,0,0,0,.35,0,120.31,120.31,0,0,1,21.77-4.23,63,63,0,0,1,10.19-.1,32.49,32.49,0,0,1,8.54,1.78,15.89,15.89,0,0,1,3.11,1.56,14.66,14.66,0,0,1,1.23.89,13,13,0,0,1,1,1,12.64,12.64,0,0,1,.85,1.05q.16.31.36.6l.1.15,0,0h0l-.19-.36,0,0,.09.17.35.68.18.34.09.17a.4.4,0,0,1,0,.11.61.61,0,0,0,0,.15.76.76,0,0,0,.07.13l.09.29a2.76,2.76,0,0,1,.16.55,2.09,2.09,0,0,1,.1.49,4.25,4.25,0,0,1,0,1.61,6.3,6.3,0,0,1-.78,1.93,14.12,14.12,0,0,1-2,2.58,29.26,29.26,0,0,1-3.12,2.8.79.79,0,0,0-.18.22,1.08,1.08,0,0,1-.09.16l-.31.36a13.22,13.22,0,0,0-1.07,1.64,14,14,0,0,0-1.39,4,14.34,14.34,0,0,0,1.26,9.33,11,11,0,0,0,7.63,5.82,12,12,0,0,0,5.29-.19,12.31,12.31,0,0,0,2.74-1l.67-.36a2.46,2.46,0,0,1,.26-.1A1.42,1.42,0,0,0,247.18,174.37Z"/><path class="cls-19" d="M244.59,171a40,40,0,0,0,10.32-11.38,26.94,26.94,0,0,0,3.13-8.19,25,25,0,0,0,.13-9.06,18.84,18.84,0,0,0-.46-2.17,19.43,19.43,0,0,0-.62-2.08l-.35-1-.46-1.09L255.8,135c-.15-.32-.24-.48-.36-.73l-.35-.68-.09-.17-.18-.34-.07-.11-.27-.45-1.1-1.78a33.19,33.19,0,0,0-5.59-6.21,34.71,34.71,0,0,0-3.29-2.43,36.47,36.47,0,0,0-7-3.55,52.7,52.7,0,0,0-14.23-3.07,83.28,83.28,0,0,0-13.63.11A140.25,140.25,0,0,0,184,120.49a.9.9,0,0,0-.44.3l-.05.06-.18.1-.36.21a7.12,7.12,0,0,0-.68.48,8.37,8.37,0,0,0-2.07,2.46,7.87,7.87,0,0,0-.59,6.26,8.51,8.51,0,0,0,4,4.82,8.15,8.15,0,0,0,2.91,1l.77.06h.58l.07,0a.8.8,0,0,0,.49,0A124.55,124.55,0,0,1,211,131.89a67.21,67.21,0,0,1,10.9-.1,36.53,36.53,0,0,1,9.71,2,20,20,0,0,1,3.91,2,18.2,18.2,0,0,1,1.65,1.2,16.41,16.41,0,0,1,1.4,1.38,16.82,16.82,0,0,1,1.21,1.51l.51.84.13.21,0,.05h0l-.12-.23,0,0,.09.17.35.68c.1.21.26.5.32.64l.13.34.14.33.14.44a5.4,5.4,0,0,1,.26.86,5,5,0,0,1,.18.83,9.13,9.13,0,0,1-1.3,6.35,24,24,0,0,1-6.16,6.61.72.72,0,0,0-.22.38.33.33,0,0,1,0,.07l-.11.14-.2.28a6.7,6.7,0,0,0-.35.6,8.86,8.86,0,0,0-.91,2.75,9.15,9.15,0,0,0,1.12,6.13,7.44,7.44,0,0,0,5.2,3.59,7.9,7.9,0,0,0,3.4-.2c.29-.08.57-.18.86-.29l.43-.18.21-.1H244A1,1,0,0,0,244.59,171Z"/><path class="cls-20" d="M244.16,170.47A39.26,39.26,0,0,0,254.3,159.3a26.27,26.27,0,0,0,3-8,24.3,24.3,0,0,0,.12-8.81,18.1,18.1,0,0,0-.45-2.11,19,19,0,0,0-.6-2l-.34-1-.44-1.05-.46-1c-.14-.31-.24-.48-.36-.73l-.35-.68-.09-.17-.17-.32-.07-.11-.26-.44-1.07-1.74a32.53,32.53,0,0,0-5.46-6.06,34.65,34.65,0,0,0-3.22-2.37,35.71,35.71,0,0,0-6.89-3.48,52,52,0,0,0-14-3,82.48,82.48,0,0,0-13.51.11,139.61,139.61,0,0,0-25.46,4.9.84.84,0,0,0-.4.27s0,.07-.1.12l-.33.2a7.48,7.48,0,0,0-.62.43,7.71,7.71,0,0,0-1.9,2.25,7.2,7.2,0,0,0-.55,5.71,7.76,7.76,0,0,0,3.64,4.42,7.37,7.37,0,0,0,2.67.87c.23,0,.47.06.71.06h.36c.08,0,.09,0,.14,0a.72.72,0,0,0,.45,0,125.17,125.17,0,0,1,22.68-4.4,67.75,67.75,0,0,1,11-.1,37.28,37.28,0,0,1,9.9,2.09,20.71,20.71,0,0,1,4,2,18.34,18.34,0,0,1,1.72,1.26,16.9,16.9,0,0,1,1.46,1.45,17.21,17.21,0,0,1,1.27,1.59l.53.88.14.21,0,.05h0l-.11-.21,0,0,.09.17.35.68c.1.21.26.49.32.65l.14.37.16.36.15.46a6.42,6.42,0,0,1,.27.91,5.59,5.59,0,0,1,.19.89,9.85,9.85,0,0,1-1.38,6.82,24.75,24.75,0,0,1-6.34,6.81.67.67,0,0,0-.2.35s0,.07,0,.13l-.19.26a6.18,6.18,0,0,0-.33.55,8.36,8.36,0,0,0,.25,8.12,6.79,6.79,0,0,0,4.78,3.24,7.11,7.11,0,0,0,3.09-.18c.26-.07.52-.16.78-.26l.39-.16a.63.63,0,0,1,.17,0A.91.91,0,0,0,244.16,170.47Z"/><path class="cls-21" d="M243.7,169.88a38.5,38.5,0,0,0,10-11,25.45,25.45,0,0,0,3-7.74,23.5,23.5,0,0,0,.12-8.54,17.14,17.14,0,0,0-.43-2,18.11,18.11,0,0,0-.59-2l-.33-1-.43-1-.44-1c-.14-.31-.24-.48-.36-.72l-.35-.68-.09-.17-.16-.3-.06-.11-.26-.42-1-1.7a31.89,31.89,0,0,0-5.32-5.91,33.67,33.67,0,0,0-3.15-2.32,35,35,0,0,0-6.74-3.41,51.31,51.31,0,0,0-13.83-3,81.86,81.86,0,0,0-13.39.11,139.11,139.11,0,0,0-25.32,4.88.75.75,0,0,0-.36.24l-.07.1,0,.06-.15.09c-.19.12-.38.25-.56.39a6.73,6.73,0,0,0-1.7,2,6.51,6.51,0,0,0-.51,5.13,6.93,6.93,0,0,0,3.27,4,6.67,6.67,0,0,0,2.4.79,6.14,6.14,0,0,0,.64.06h.16l.06,0,.11,0a.67.67,0,0,0,.4,0,125.81,125.81,0,0,1,22.83-4.43,68.61,68.61,0,0,1,11.14-.1,38,38,0,0,1,10.11,2.14,21.51,21.51,0,0,1,4.19,2.11,19.84,19.84,0,0,1,1.8,1.31,18.13,18.13,0,0,1,1.54,1.51,18.52,18.52,0,0,1,1.34,1.67l.56.92.14.23,0,.06h0l-.1-.18,0,0,.09.17.35.69c.1.21.26.49.32.65l.16.4.17.39.16.49a6.44,6.44,0,0,1,.29,1,6.13,6.13,0,0,1,.2,1,10.6,10.6,0,0,1-1.47,7.32,25.32,25.32,0,0,1-6.53,7,.59.59,0,0,0-.18.32l0,.11v.06l-.09.12a5.82,5.82,0,0,0-.3.5,7.7,7.7,0,0,0-.74,2.29,7.48,7.48,0,0,0,1,5,6.13,6.13,0,0,0,4.32,2.87,6.26,6.26,0,0,0,2.76-.18,7.28,7.28,0,0,0,.69-.23l.17-.07h.2A.78.78,0,0,0,243.7,169.88Z"/><path class="cls-22" d="M187.42,132.5a.62.62,0,0,1-.55-.2s0,0-.08-.07l-.2,0-.39-.11a4.7,4.7,0,0,1-.74-.33,4.31,4.31,0,0,1-2-2.54,4.22,4.22,0,0,1,.36-3.27,3.83,3.83,0,0,1,.47-.68,3.73,3.73,0,0,1,.29-.3l.16-.14a.52.52,0,0,0,0-.1.66.66,0,0,1,.39-.46A136.57,136.57,0,0,1,210,119.47c8.5-.69,17.42-.51,26.12,2.72a32.53,32.53,0,0,1,6.28,3.18,30.48,30.48,0,0,1,2.9,2.13,29.2,29.2,0,0,1,4.87,5.41l1,1.55.24.39.06.1.12.22.09.17.35.68c.12.24.23.43.35.71l.39.9.38.9.3.88a15.84,15.84,0,0,1,.53,1.79,15.07,15.07,0,0,1,.39,1.85,21,21,0,0,1-.1,7.65,22.94,22.94,0,0,1-2.68,7,36.08,36.08,0,0,1-9.33,10.24.65.65,0,0,1-.62.06.39.39,0,0,0-.11,0l-.22,0-.43,0a4.22,4.22,0,0,1-.85,0,4,4,0,0,1-2.79-1.72,4.63,4.63,0,0,1-.75-3.18,4.48,4.48,0,0,1,.17-.77c0-.12.09-.25.14-.37l.08-.18a.39.39,0,0,0,0-.1.62.62,0,0,1,.15-.54,27.75,27.75,0,0,0,7.16-7.75,13.07,13.07,0,0,0,1.76-9,8.27,8.27,0,0,0-.24-1.15,8.56,8.56,0,0,0-.34-1.15l-.19-.58-.22-.51-.21-.51c-.08-.19-.22-.44-.33-.66l-.35-.68-.09-.17,0,0,.06.11v0l0-.07-.17-.26-.65-1.06a21.14,21.14,0,0,0-1.55-1.94,20.91,20.91,0,0,0-1.77-1.75,22.64,22.64,0,0,0-2-1.5,24,24,0,0,0-4.66-2.35c-6.71-2.53-14.6-2.85-22.34-2.19A128.38,128.38,0,0,0,187.42,132.5Z"/></svg>